  0
SECTION
  2
HEADER
  9
$ACADVER
  1
AC1014
  9
$HANDSEED
  5
FFFF
  9
$MEASUREMENT
 70
     1
  0
ENDSEC
  0
SECTION
  2
TABLES
  0
TABLE
  2
VPORT
  5
8
330
0
100
AcDbSymbolTable
 70
     4
  0
VPORT
  5
2E
330
8
100
AcDbSymbolTableRecord
100
AcDbViewportTableRecord
  2
*ACTIVE
 70
     0
 10
0.0
 20
0.0
 11
1.0
 21
1.0
 12
210.0
 22
148.5
 13
0.0
 23
0.0
 14
10.0
 24
10.0
 15
10.0
 25
10.0
 16
0.0
 26
0.0
 36
1.0
 17
0.0
 27
0.0
 37
0.0
 40
341.0
 41
1.24
 42
50.0
 43
0.0
 44
0.0
 50
0.0
 51
0.0
 71
     0
 72
   100
 73
     1
 74
     3
 75
     0
 76
     0
 77
     0
 78
     0
  0
ENDTAB
  0
TABLE
  2
LTYPE
  5
5
330
0
100
AcDbSymbolTable
 70
     1
  0
LTYPE
  5
14
330
5
100
AcDbSymbolTableRecord
100
AcDbLinetypeTableRecord
  2
BYBLOCK
 70
     0
  3

 72
    65
 73
     0
 40
0.0
  0
LTYPE
  5
15
330
5
100
AcDbSymbolTableRecord
100
AcDbLinetypeTableRecord
  2
BYLAYER
 70
     0
  3

 72
    65
 73
     0
 40
0.0
  0
LTYPE
  5
16
330
5
100
AcDbSymbolTableRecord
100
AcDbLinetypeTableRecord
  2
CONTINUOUS
 70
     0
  3
Solid line
 72
    65
 73
     0
 40
0.0
  0
ENDTAB
  0
TABLE
  2
LAYER
  5
2
100
AcDbSymbolTable
 70
2
  0
LAYER
  5
50
100
AcDbSymbolTableRecord
100
AcDbLayerTableRecord
  2
0
 70
0
  6
CONTINUOUS
  0
LAYER
  5
51
100
AcDbSymbolTableRecord
100
AcDbLayerTableRecord
  2
Layer_1
 70
0
  6
CONTINUOUS
  0
ENDTAB
  0
TABLE
  2
STYLE
  5
3
330
0
100
AcDbSymbolTable
 70
     1
  0
STYLE
  5
11
330
3
100
AcDbSymbolTableRecord
100
AcDbTextStyleTableRecord
  2
STANDARD
 70
     0
 40
0.0
 41
1.0
 50
0.0
 71
     0
 42
2.5
  3
txt
  4

  0
ENDTAB
  0
TABLE
  2
VIEW
  5
6
330
0
100
AcDbSymbolTable
 70
     0
  0
ENDTAB
  0
TABLE
  2
UCS
  5
7
330
0
100
AcDbSymbolTable
 70
     0
  0
ENDTAB
  0
TABLE
  2
APPID
  5
9
330
0
100
AcDbSymbolTable
 70
     2
  0
APPID
  5
12
330
9
100
AcDbSymbolTableRecord
100
AcDbRegAppTableRecord
  2
ACAD
 70
     0
  0
ENDTAB
  0
TABLE
  2
DIMSTYLE
  5
A
330
0
100
AcDbSymbolTable
 70
     1
  0
DIMSTYLE
105
27
330
A
100
AcDbSymbolTableRecord
100
AcDbDimStyleTableRecord
  2
ISO-25
 70
     0
  3

  4

  5

  6

  7

 40
1.0
 41
2.5
 42
0.625
 43
3.75
 44
1.25
 45
0.0
 46
0.0
 47
0.0
 48
0.0
140
2.5
141
2.5
142
0.0
143
0.03937007874016
144
1.0
145
0.0
146
1.0
147
0.625
 71
     0
 72
     0
 73
     0
 74
     0
 75
     0
 76
     0
 77
     1
 78
     8
170
     0
171
     3
172
     1
173
     0
174
     0
175
     0
176
     0
177
     0
178
     0
270
     2
271
     2
272
     2
273
     2
274
     3
340
11
275
     0
280
     0
281
     0
282
     0
283
     0
284
     8
285
     0
286
     0
287
     3
288
     0
  0
ENDTAB
  0
TABLE
  2
BLOCK_RECORD
  5
1
330
0
100
AcDbSymbolTable
 70
     1
  0
BLOCK_RECORD
  5
1F
330
1
100
AcDbSymbolTableRecord
100
AcDbBlockTableRecord
  2
*MODEL_SPACE
  0
BLOCK_RECORD
  5
1B
330
1
100
AcDbSymbolTableRecord
100
AcDbBlockTableRecord
  2
*PAPER_SPACE
  0
ENDTAB
  0
ENDSEC
  0
SECTION
  2
BLOCKS
  0
BLOCK
  5
20
330
1F
100
AcDbEntity
  8
0
100
AcDbBlockBegin
  2
*MODEL_SPACE
 70
     0
 10
0.0
 20
0.0
 30
0.0
  3
*MODEL_SPACE
  1

  0
ENDBLK
  5
21
330
1F
100
AcDbEntity
  8
0
100
AcDbBlockEnd
  0
BLOCK
  5
1C
330
1B
100
AcDbEntity
 67
     1
  8
0
100
AcDbBlockBegin
  2
*PAPER_SPACE
  1

  0
ENDBLK
  5
1D
330
1B
100
AcDbEntity
 67
     1
  8
0
100
AcDbBlockEnd
  0
ENDSEC
  0
SECTION
  2
ENTITIES
  0
LWPOLYLINE
  5
100
100
AcDbEntity
  8
Layer_1
 62
4
100
AcDbPolyline
 90
5
 70
1
 10
2.053419
 20
11.333553
 30
0.0
 10
10.800463
 20
11.333553
 30
0.0
 10
10.800463
 20
2.586511
 30
0.0
 10
2.053419
 20
2.586511
 30
0.0
 10
2.053419
 20
11.333553
 30
0.0
  0
LWPOLYLINE
  5
101
100
AcDbEntity
  8
Layer_1
 62
4
100
AcDbPolyline
 90
5
 70
1
 10
2.052941
 20
11.334032
 30
0.0
 10
2.552941
 20
11.334032
 30
0.0
 10
2.552941
 20
2.584032
 30
0.0
 10
2.052941
 20
2.584032
 30
0.0
 10
2.052941
 20
11.334032
 30
0.0
  0
LWPOLYLINE
  5
102
100
AcDbEntity
  8
Layer_1
 62
4
100
AcDbPolyline
 90
5
 70
1
 10
3.429667
 20
5.805831
 30
0.0
 10
4.009667
 20
5.805831
 30
0.0
 10
4.009667
 20
4.980831
 30
0.0
 10
3.429667
 20
4.980831
 30
0.0
 10
3.429667
 20
5.805831
 30
0.0
  0
SPLINE
  5
103
100
AcDbEntity
  8
Layer_1
 62
4
100
AcDbSpline
 70
8
 71
3
 72
8
 73
4
 74
0
 40
0
 40
0
 40
0
 40
0
 40
1
 40
1
 40
1
 40
1
 10
3.451541
 20
5.416439
 30
0.0
 10
3.451541
 20
5.451064
 30
0.0
 10
3.479416
 20
5.478939
 30
0.0
 10
3.514041
 20
5.478939
 30
0.0
  0
LWPOLYLINE
  5
104
100
AcDbEntity
  8
Layer_1
 62
4
100
AcDbPolyline
 90
2
 70
1
 10
3.451541
 20
5.353939
 30
0.0
 10
3.451541
 20
5.416439
 30
0.0
  0
SPLINE
  5
105
100
AcDbEntity
  8
Layer_1
 62
4
100
AcDbSpline
 70
8
 71
3
 72
8
 73
4
 74
0
 40
0
 40
0
 40
0
 40
0
 40
1
 40
1
 40
1
 40
1
 10
3.951541
 20
5.478939
 30
0.0
 10
3.986166
 20
5.478939
 30
0.0
 10
4.014041
 20
5.451064
 30
0.0
 10
4.014041
 20
5.416439
 30
0.0
  0
LWPOLYLINE
  5
106
100
AcDbEntity
  8
Layer_1
 62
4
100
AcDbPolyline
 90
2
 70
1
 10
3.514041
 20
5.478939
 30
0.0
 10
3.951541
 20
5.478939
 30
0.0
  0
SPLINE
  5
107
100
AcDbEntity
  8
Layer_1
 62
4
100
AcDbSpline
 70
8
 71
3
 72
8
 73
4
 74
0
 40
0
 40
0
 40
0
 40
0
 40
1
 40
1
 40
1
 40
1
 10
4.014041
 20
5.353939
 30
0.0
 10
4.014041
 20
5.319314
 30
0.0
 10
3.986166
 20
5.291439
 30
0.0
 10
3.951541
 20
5.291439
 30
0.0
  0
LWPOLYLINE
  5
108
100
AcDbEntity
  8
Layer_1
 62
4
100
AcDbPolyline
 90
2
 70
1
 10
4.014041
 20
5.416439
 30
0.0
 10
4.014041
 20
5.353939
 30
0.0
  0
SPLINE
  5
109
100
AcDbEntity
  8
Layer_1
 62
4
100
AcDbSpline
 70
8
 71
3
 72
8
 73
4
 74
0
 40
0
 40
0
 40
0
 40
0
 40
1
 40
1
 40
1
 40
1
 10
3.514041
 20
5.291439
 30
0.0
 10
3.479416
 20
5.291439
 30
0.0
 10
3.451541
 20
5.319314
 30
0.0
 10
3.451541
 20
5.353939
 30
0.0
  0
LWPOLYLINE
  5
10a
100
AcDbEntity
  8
Layer_1
 62
4
100
AcDbPolyline
 90
2
 70
1
 10
3.951541
 20
5.291439
 30
0.0
 10
3.514041
 20
5.291439
 30
0.0
  0
SPLINE
  5
10b
100
AcDbEntity
  8
Layer_1
 62
7
100
AcDbSpline
 70
8
 71
3
 72
8
 73
4
 74
0
 40
0
 40
0
 40
0
 40
0
 40
1
 40
1
 40
1
 40
1
 10
4.151405
 20
4.967854
 30
0.0
 10
4.151405
 20
4.914594
 30
0.0
 10
4.108229
 20
4.871418
 30
0.0
 10
4.054969
 20
4.871418
 30
0.0
  0
SPLINE
  5
10c
100
AcDbEntity
  8
Layer_1
 62
7
100
AcDbSpline
 70
8
 71
3
 72
8
 73
4
 74
0
 40
0
 40
0
 40
0
 40
0
 40
1
 40
1
 40
1
 40
1
 10
4.054969
 20
4.871418
 30
0.0
 10
4.029393
 20
4.871418
 30
0.0
 10
4.004864
 20
4.881578
 30
0.0
 10
3.986779
 20
4.899663
 30
0.0
  0
SPLINE
  5
10d
100
AcDbEntity
  8
Layer_1
 62
7
100
AcDbSpline
 70
8
 71
3
 72
8
 73
4
 74
0
 40
0
 40
0
 40
0
 40
0
 40
1
 40
1
 40
1
 40
1
 10
3.986779
 20
4.899663
 30
0.0
 10
3.968694
 20
4.917748
 30
0.0
 10
3.958534
 20
4.942277
 30
0.0
 10
3.958534
 20
4.967854
 30
0.0
  0
SPLINE
  5
10e
100
AcDbEntity
  8
Layer_1
 62
7
100
AcDbSpline
 70
8
 71
3
 72
8
 73
4
 74
0
 40
0
 40
0
 40
0
 40
0
 40
1
 40
1
 40
1
 40
1
 10
3.958534
 20
4.967854
 30
0.0
 10
3.958534
 20
4.993430
 30
0.0
 10
3.968694
 20
5.017959
 30
0.0
 10
3.986779
 20
5.036044
 30
0.0
  0
SPLINE
  5
10f
100
AcDbEntity
  8
Layer_1
 62
7
100
AcDbSpline
 70
8
 71
3
 72
8
 73
4
 74
0
 40
0
 40
0
 40
0
 40
0
 40
1
 40
1
 40
1
 40
1
 10
3.986779
 20
5.036044
 30
0.0
 10
4.004864
 20
5.054129
 30
0.0
 10
4.029393
 20
5.064289
 30
0.0
 10
4.054969
 20
5.064289
 30
0.0
  0
SPLINE
  5
110
100
AcDbEntity
  8
Layer_1
 62
7
100
AcDbSpline
 70
8
 71
3
 72
8
 73
4
 74
0
 40
0
 40
0
 40
0
 40
0
 40
1
 40
1
 40
1
 40
1
 10
4.054969
 20
5.064289
 30
0.0
 10
4.108229
 20
5.064289
 30
0.0
 10
4.151405
 20
5.021113
 30
0.0
 10
4.151405
 20
4.967853
 30
0.0
  0
LWPOLYLINE
  5
111
100
AcDbEntity
  8
Layer_1
 62
4
100
AcDbPolyline
 90
2
 70
1
 10
3.451541
 20
5.353939
 30
0.0
 10
3.451541
 20
5.353939
 30
0.0
  0
SPLINE
  5
112
100
AcDbEntity
  8
Layer_1
 62
7
100
AcDbSpline
 70
8
 71
3
 72
8
 73
4
 74
0
 40
0
 40
0
 40
0
 40
0
 40
1
 40
1
 40
1
 40
1
 10
4.151405
 20
5.921058
 30
0.0
 10
4.151405
 20
5.867798
 30
0.0
 10
4.108229
 20
5.824623
 30
0.0
 10
4.054969
 20
5.824623
 30
0.0
  0
SPLINE
  5
113
100
AcDbEntity
  8
Layer_1
 62
7
100
AcDbSpline
 70
8
 71
3
 72
8
 73
4
 74
0
 40
0
 40
0
 40
0
 40
0
 40
1
 40
1
 40
1
 40
1
 10
4.054969
 20
5.824623
 30
0.0
 10
4.029393
 20
5.824623
 30
0.0
 10
4.004864
 20
5.834783
 30
0.0
 10
3.986779
 20
5.852868
 30
0.0
  0
SPLINE
  5
114
100
AcDbEntity
  8
Layer_1
 62
7
100
AcDbSpline
 70
8
 71
3
 72
8
 73
4
 74
0
 40
0
 40
0
 40
0
 40
0
 40
1
 40
1
 40
1
 40
1
 10
3.986779
 20
5.852868
 30
0.0
 10
3.968694
 20
5.870953
 30
0.0
 10
3.958534
 20
5.895482
 30
0.0
 10
3.958534
 20
5.921058
 30
0.0
  0
SPLINE
  5
115
100
AcDbEntity
  8
Layer_1
 62
7
100
AcDbSpline
 70
8
 71
3
 72
8
 73
4
 74
0
 40
0
 40
0
 40
0
 40
0
 40
1
 40
1
 40
1
 40
1
 10
3.958534
 20
5.921058
 30
0.0
 10
3.958534
 20
5.946635
 30
0.0
 10
3.968694
 20
5.971164
 30
0.0
 10
3.986779
 20
5.989249
 30
0.0
  0
SPLINE
  5
116
100
AcDbEntity
  8
Layer_1
 62
7
100
AcDbSpline
 70
8
 71
3
 72
8
 73
4
 74
0
 40
0
 40
0
 40
0
 40
0
 40
1
 40
1
 40
1
 40
1
 10
3.986779
 20
5.989249
 30
0.0
 10
4.004864
 20
6.007334
 30
0.0
 10
4.029393
 20
6.017494
 30
0.0
 10
4.054969
 20
6.017494
 30
0.0
  0
SPLINE
  5
117
100
AcDbEntity
  8
Layer_1
 62
7
100
AcDbSpline
 70
8
 71
3
 72
8
 73
4
 74
0
 40
0
 40
0
 40
0
 40
0
 40
1
 40
1
 40
1
 40
1
 10
4.054969
 20
6.017494
 30
0.0
 10
4.080546
 20
6.017494
 30
0.0
 10
4.105074
 20
6.007334
 30
0.0
 10
4.123160
 20
5.989249
 30
0.0
  0
SPLINE
  5
118
100
AcDbEntity
  8
Layer_1
 62
7
100
AcDbSpline
 70
8
 71
3
 72
8
 73
4
 74
0
 40
0
 40
0
 40
0
 40
0
 40
1
 40
1
 40
1
 40
1
 10
4.123160
 20
5.989249
 30
0.0
 10
4.141245
 20
5.971164
 30
0.0
 10
4.151405
 20
5.946635
 30
0.0
 10
4.151405
 20
5.921058
 30
0.0
  0
LWPOLYLINE
  5
119
100
AcDbEntity
  8
Layer_1
 62
7
100
AcDbPolyline
 90
2
 70
1
 10
4.151405
 20
4.967853
 30
0.0
 10
4.151405
 20
4.967853
 30
0.0
  0
SPLINE
  5
11a
100
AcDbEntity
  8
Layer_1
 62
7
100
AcDbSpline
 70
8
 71
3
 72
8
 73
4
 74
0
 40
0
 40
0
 40
0
 40
0
 40
1
 40
1
 40
1
 40
1
 10
3.430645
 20
4.967854
 30
0.0
 10
3.430645
 20
4.942277
 30
0.0
 10
3.420485
 20
4.917748
 30
0.0
 10
3.402399
 20
4.899663
 30
0.0
  0
SPLINE
  5
11b
100
AcDbEntity
  8
Layer_1
 62
7
100
AcDbSpline
 70
8
 71
3
 72
8
 73
4
 74
0
 40
0
 40
0
 40
0
 40
0
 40
1
 40
1
 40
1
 40
1
 10
3.402399
 20
4.899663
 30
0.0
 10
3.384314
 20
4.881578
 30
0.0
 10
3.359785
 20
4.871418
 30
0.0
 10
3.334209
 20
4.871418
 30
0.0
  0
SPLINE
  5
11c
100
AcDbEntity
  8
Layer_1
 62
7
100
AcDbSpline
 70
8
 71
3
 72
8
 73
4
 74
0
 40
0
 40
0
 40
0
 40
0
 40
1
 40
1
 40
1
 40
1
 10
3.334209
 20
4.871418
 30
0.0
 10
3.280949
 20
4.871418
 30
0.0
 10
3.237773
 20
4.914594
 30
0.0
 10
3.237773
 20
4.967853
 30
0.0
  0
SPLINE
  5
11d
100
AcDbEntity
  8
Layer_1
 62
7
100
AcDbSpline
 70
8
 71
3
 72
8
 73
4
 74
0
 40
0
 40
0
 40
0
 40
0
 40
1
 40
1
 40
1
 40
1
 10
3.237773
 20
4.967853
 30
0.0
 10
3.237773
 20
5.021113
 30
0.0
 10
3.280949
 20
5.064289
 30
0.0
 10
3.334209
 20
5.064289
 30
0.0
  0
SPLINE
  5
11e
100
AcDbEntity
  8
Layer_1
 62
7
100
AcDbSpline
 70
8
 71
3
 72
8
 73
4
 74
0
 40
0
 40
0
 40
0
 40
0
 40
1
 40
1
 40
1
 40
1
 10
3.334209
 20
5.064289
 30
0.0
 10
3.359785
 20
5.064289
 30
0.0
 10
3.384314
 20
5.054129
 30
0.0
 10
3.402399
 20
5.036044
 30
0.0
  0
SPLINE
  5
11f
100
AcDbEntity
  8
Layer_1
 62
7
100
AcDbSpline
 70
8
 71
3
 72
8
 73
4
 74
0
 40
0
 40
0
 40
0
 40
0
 40
1
 40
1
 40
1
 40
1
 10
3.402399
 20
5.036044
 30
0.0
 10
3.420485
 20
5.017959
 30
0.0
 10
3.430645
 20
4.993430
 30
0.0
 10
3.430645
 20
4.967853
 30
0.0
  0
LWPOLYLINE
  5
120
100
AcDbEntity
  8
Layer_1
 62
7
100
AcDbPolyline
 90
2
 70
1
 10
4.151405
 20
5.921058
 30
0.0
 10
4.151405
 20
5.921058
 30
0.0
  0
SPLINE
  5
121
100
AcDbEntity
  8
Layer_1
 62
7
100
AcDbSpline
 70
8
 71
3
 72
8
 73
4
 74
0
 40
0
 40
0
 40
0
 40
0
 40
1
 40
1
 40
1
 40
1
 10
3.430645
 20
5.921058
 30
0.0
 10
3.430645
 20
5.895482
 30
0.0
 10
3.420485
 20
5.870953
 30
0.0
 10
3.402399
 20
5.852868
 30
0.0
  0
SPLINE
  5
122
100
AcDbEntity
  8
Layer_1
 62
7
100
AcDbSpline
 70
8
 71
3
 72
8
 73
4
 74
0
 40
0
 40
0
 40
0
 40
0
 40
1
 40
1
 40
1
 40
1
 10
3.402399
 20
5.852868
 30
0.0
 10
3.384314
 20
5.834783
 30
0.0
 10
3.359785
 20
5.824623
 30
0.0
 10
3.334209
 20
5.824623
 30
0.0
  0
SPLINE
  5
123
100
AcDbEntity
  8
Layer_1
 62
7
100
AcDbSpline
 70
8
 71
3
 72
8
 73
4
 74
0
 40
0
 40
0
 40
0
 40
0
 40
1
 40
1
 40
1
 40
1
 10
3.334209
 20
5.824623
 30
0.0
 10
3.280949
 20
5.824623
 30
0.0
 10
3.237773
 20
5.867798
 30
0.0
 10
3.237773
 20
5.921058
 30
0.0
  0
SPLINE
  5
124
100
AcDbEntity
  8
Layer_1
 62
7
100
AcDbSpline
 70
8
 71
3
 72
8
 73
4
 74
0
 40
0
 40
0
 40
0
 40
0
 40
1
 40
1
 40
1
 40
1
 10
3.237773
 20
5.921058
 30
0.0
 10
3.237773
 20
5.946635
 30
0.0
 10
3.247933
 20
5.971164
 30
0.0
 10
3.266019
 20
5.989249
 30
0.0
  0
SPLINE
  5
125
100
AcDbEntity
  8
Layer_1
 62
7
100
AcDbSpline
 70
8
 71
3
 72
8
 73
4
 74
0
 40
0
 40
0
 40
0
 40
0
 40
1
 40
1
 40
1
 40
1
 10
3.266019
 20
5.989249
 30
0.0
 10
3.284104
 20
6.007334
 30
0.0
 10
3.308633
 20
6.017494
 30
0.0
 10
3.334209
 20
6.017494
 30
0.0
  0
SPLINE
  5
126
100
AcDbEntity
  8
Layer_1
 62
7
100
AcDbSpline
 70
8
 71
3
 72
8
 73
4
 74
0
 40
0
 40
0
 40
0
 40
0
 40
1
 40
1
 40
1
 40
1
 10
3.334209
 20
6.017494
 30
0.0
 10
3.359785
 20
6.017494
 30
0.0
 10
3.384314
 20
6.007334
 30
0.0
 10
3.402399
 20
5.989249
 30
0.0
  0
SPLINE
  5
127
100
AcDbEntity
  8
Layer_1
 62
7
100
AcDbSpline
 70
8
 71
3
 72
8
 73
4
 74
0
 40
0
 40
0
 40
0
 40
0
 40
1
 40
1
 40
1
 40
1
 10
3.402399
 20
5.989249
 30
0.0
 10
3.420485
 20
5.971164
 30
0.0
 10
3.430645
 20
5.946635
 30
0.0
 10
3.430645
 20
5.921058
 30
0.0
  0
LWPOLYLINE
  5
128
100
AcDbEntity
  8
Layer_1
 62
7
100
AcDbPolyline
 90
2
 70
1
 10
3.430645
 20
4.967853
 30
0.0
 10
3.430645
 20
4.967853
 30
0.0
  0
SPLINE
  5
129
100
AcDbEntity
  8
Layer_1
 62
7
100
AcDbSpline
 70
8
 71
3
 72
8
 73
4
 74
0
 40
0
 40
0
 40
0
 40
0
 40
1
 40
1
 40
1
 40
1
 10
3.500136
 20
5.921058
 30
0.0
 10
3.500136
 20
5.829419
 30
0.0
 10
3.425848
 20
5.755131
 30
0.0
 10
3.334209
 20
5.755131
 30
0.0
  0
SPLINE
  5
12a
100
AcDbEntity
  8
Layer_1
 62
7
100
AcDbSpline
 70
8
 71
3
 72
8
 73
4
 74
0
 40
0
 40
0
 40
0
 40
0
 40
1
 40
1
 40
1
 40
1
 10
3.334209
 20
5.755131
 30
0.0
 10
3.290203
 20
5.755131
 30
0.0
 10
3.247998
 20
5.772613
 30
0.0
 10
3.216881
 20
5.803730
 30
0.0
  0
SPLINE
  5
12b
100
AcDbEntity
  8
Layer_1
 62
7
100
AcDbSpline
 70
8
 71
3
 72
8
 73
4
 74
0
 40
0
 40
0
 40
0
 40
0
 40
1
 40
1
 40
1
 40
1
 10
3.216881
 20
5.803730
 30
0.0
 10
3.185763
 20
5.834848
 30
0.0
 10
3.168282
 20
5.877052
 30
0.0
 10
3.168282
 20
5.921058
 30
0.0
  0
SPLINE
  5
12c
100
AcDbEntity
  8
Layer_1
 62
7
100
AcDbSpline
 70
8
 71
3
 72
8
 73
4
 74
0
 40
0
 40
0
 40
0
 40
0
 40
1
 40
1
 40
1
 40
1
 10
3.168282
 20
5.921058
 30
0.0
 10
3.168282
 20
5.965065
 30
0.0
 10
3.185763
 20
6.007269
 30
0.0
 10
3.216881
 20
6.038387
 30
0.0
  0
SPLINE
  5
12d
100
AcDbEntity
  8
Layer_1
 62
7
100
AcDbSpline
 70
8
 71
3
 72
8
 73
4
 74
0
 40
0
 40
0
 40
0
 40
0
 40
1
 40
1
 40
1
 40
1
 10
3.216881
 20
6.038387
 30
0.0
 10
3.247998
 20
6.069504
 30
0.0
 10
3.290203
 20
6.086986
 30
0.0
 10
3.334209
 20
6.086986
 30
0.0
  0
SPLINE
  5
12e
100
AcDbEntity
  8
Layer_1
 62
7
100
AcDbSpline
 70
8
 71
3
 72
8
 73
4
 74
0
 40
0
 40
0
 40
0
 40
0
 40
1
 40
1
 40
1
 40
1
 10
3.334209
 20
6.086986
 30
0.0
 10
3.425848
 20
6.086986
 30
0.0
 10
3.500136
 20
6.012698
 30
0.0
 10
3.500136
 20
5.921059
 30
0.0
  0
LWPOLYLINE
  5
12f
100
AcDbEntity
  8
Layer_1
 62
7
100
AcDbPolyline
 90
2
 70
1
 10
3.430645
 20
5.921058
 30
0.0
 10
3.430645
 20
5.921058
 30
0.0
  0
SPLINE
  5
130
100
AcDbEntity
  8
Layer_1
 62
7
100
AcDbSpline
 70
8
 71
3
 72
8
 73
4
 74
0
 40
0
 40
0
 40
0
 40
0
 40
1
 40
1
 40
1
 40
1
 10
4.220896
 20
5.921058
 30
0.0
 10
4.220896
 20
5.829419
 30
0.0
 10
4.146608
 20
5.755131
 30
0.0
 10
4.054969
 20
5.755131
 30
0.0
  0
SPLINE
  5
131
100
AcDbEntity
  8
Layer_1
 62
7
100
AcDbSpline
 70
8
 71
3
 72
8
 73
4
 74
0
 40
0
 40
0
 40
0
 40
0
 40
1
 40
1
 40
1
 40
1
 10
4.054969
 20
5.755131
 30
0.0
 10
4.010963
 20
5.755131
 30
0.0
 10
3.968759
 20
5.772613
 30
0.0
 10
3.937641
 20
5.803730
 30
0.0
  0
SPLINE
  5
132
100
AcDbEntity
  8
Layer_1
 62
7
100
AcDbSpline
 70
8
 71
3
 72
8
 73
4
 74
0
 40
0
 40
0
 40
0
 40
0
 40
1
 40
1
 40
1
 40
1
 10
3.937641
 20
5.803730
 30
0.0
 10
3.906524
 20
5.834847
 30
0.0
 10
3.889042
 20
5.877052
 30
0.0
 10
3.889042
 20
5.921058
 30
0.0
  0
SPLINE
  5
133
100
AcDbEntity
  8
Layer_1
 62
7
100
AcDbSpline
 70
8
 71
3
 72
8
 73
4
 74
0
 40
0
 40
0
 40
0
 40
0
 40
1
 40
1
 40
1
 40
1
 10
3.889042
 20
5.921058
 30
0.0
 10
3.889042
 20
5.965065
 30
0.0
 10
3.906524
 20
6.007269
 30
0.0
 10
3.937641
 20
6.038387
 30
0.0
  0
SPLINE
  5
134
100
AcDbEntity
  8
Layer_1
 62
7
100
AcDbSpline
 70
8
 71
3
 72
8
 73
4
 74
0
 40
0
 40
0
 40
0
 40
0
 40
1
 40
1
 40
1
 40
1
 10
3.937641
 20
6.038387
 30
0.0
 10
3.968759
 20
6.069504
 30
0.0
 10
4.010963
 20
6.086986
 30
0.0
 10
4.054969
 20
6.086986
 30
0.0
  0
SPLINE
  5
135
100
AcDbEntity
  8
Layer_1
 62
7
100
AcDbSpline
 70
8
 71
3
 72
8
 73
4
 74
0
 40
0
 40
0
 40
0
 40
0
 40
1
 40
1
 40
1
 40
1
 10
4.054969
 20
6.086986
 30
0.0
 10
4.146608
 20
6.086986
 30
0.0
 10
4.220896
 20
6.012697
 30
0.0
 10
4.220896
 20
5.921058
 30
0.0
  0
LWPOLYLINE
  5
136
100
AcDbEntity
  8
Layer_1
 62
7
100
AcDbPolyline
 90
2
 70
1
 10
3.500136
 20
5.921059
 30
0.0
 10
3.500136
 20
5.921059
 30
0.0
  0
SPLINE
  5
137
100
AcDbEntity
  8
Layer_1
 62
7
100
AcDbSpline
 70
8
 71
3
 72
8
 73
4
 74
0
 40
0
 40
0
 40
0
 40
0
 40
1
 40
1
 40
1
 40
1
 10
3.500136
 20
4.967853
 30
0.0
 10
3.500136
 20
4.876214
 30
0.0
 10
3.425848
 20
4.801926
 30
0.0
 10
3.334209
 20
4.801926
 30
0.0
  0
SPLINE
  5
138
100
AcDbEntity
  8
Layer_1
 62
7
100
AcDbSpline
 70
8
 71
3
 72
8
 73
4
 74
0
 40
0
 40
0
 40
0
 40
0
 40
1
 40
1
 40
1
 40
1
 10
3.334209
 20
4.801926
 30
0.0
 10
3.290203
 20
4.801926
 30
0.0
 10
3.247998
 20
4.819408
 30
0.0
 10
3.216881
 20
4.850525
 30
0.0
  0
SPLINE
  5
139
100
AcDbEntity
  8
Layer_1
 62
7
100
AcDbSpline
 70
8
 71
3
 72
8
 73
4
 74
0
 40
0
 40
0
 40
0
 40
0
 40
1
 40
1
 40
1
 40
1
 10
3.216881
 20
4.850525
 30
0.0
 10
3.185763
 20
4.881643
 30
0.0
 10
3.168282
 20
4.923847
 30
0.0
 10
3.168282
 20
4.967853
 30
0.0
  0
SPLINE
  5
13a
100
AcDbEntity
  8
Layer_1
 62
7
100
AcDbSpline
 70
8
 71
3
 72
8
 73
4
 74
0
 40
0
 40
0
 40
0
 40
0
 40
1
 40
1
 40
1
 40
1
 10
3.168282
 20
4.967853
 30
0.0
 10
3.168282
 20
5.011860
 30
0.0
 10
3.185763
 20
5.054064
 30
0.0
 10
3.216881
 20
5.085182
 30
0.0
  0
SPLINE
  5
13b
100
AcDbEntity
  8
Layer_1
 62
7
100
AcDbSpline
 70
8
 71
3
 72
8
 73
4
 74
0
 40
0
 40
0
 40
0
 40
0
 40
1
 40
1
 40
1
 40
1
 10
3.216881
 20
5.085182
 30
0.0
 10
3.247998
 20
5.116299
 30
0.0
 10
3.290203
 20
5.133781
 30
0.0
 10
3.334209
 20
5.133781
 30
0.0
  0
SPLINE
  5
13c
100
AcDbEntity
  8
Layer_1
 62
7
100
AcDbSpline
 70
8
 71
3
 72
8
 73
4
 74
0
 40
0
 40
0
 40
0
 40
0
 40
1
 40
1
 40
1
 40
1
 10
3.334209
 20
5.133781
 30
0.0
 10
3.425848
 20
5.133781
 30
0.0
 10
3.500136
 20
5.059493
 30
0.0
 10
3.500136
 20
4.967854
 30
0.0
  0
LWPOLYLINE
  5
13d
100
AcDbEntity
  8
Layer_1
 62
7
100
AcDbPolyline
 90
2
 70
1
 10
4.220896
 20
5.921058
 30
0.0
 10
4.220896
 20
5.921058
 30
0.0
  0
SPLINE
  5
13e
100
AcDbEntity
  8
Layer_1
 62
7
100
AcDbSpline
 70
8
 71
3
 72
8
 73
4
 74
0
 40
0
 40
0
 40
0
 40
0
 40
1
 40
1
 40
1
 40
1
 10
4.220896
 20
4.967853
 30
0.0
 10
4.220896
 20
4.876214
 30
0.0
 10
4.146608
 20
4.801926
 30
0.0
 10
4.054969
 20
4.801926
 30
0.0
  0
SPLINE
  5
13f
100
AcDbEntity
  8
Layer_1
 62
7
100
AcDbSpline
 70
8
 71
3
 72
8
 73
4
 74
0
 40
0
 40
0
 40
0
 40
0
 40
1
 40
1
 40
1
 40
1
 10
4.054969
 20
4.801926
 30
0.0
 10
4.010963
 20
4.801926
 30
0.0
 10
3.968759
 20
4.819408
 30
0.0
 10
3.937641
 20
4.850525
 30
0.0
  0
SPLINE
  5
140
100
AcDbEntity
  8
Layer_1
 62
7
100
AcDbSpline
 70
8
 71
3
 72
8
 73
4
 74
0
 40
0
 40
0
 40
0
 40
0
 40
1
 40
1
 40
1
 40
1
 10
3.937641
 20
4.850525
 30
0.0
 10
3.906524
 20
4.881643
 30
0.0
 10
3.889042
 20
4.923847
 30
0.0
 10
3.889042
 20
4.967853
 30
0.0
  0
SPLINE
  5
141
100
AcDbEntity
  8
Layer_1
 62
7
100
AcDbSpline
 70
8
 71
3
 72
8
 73
4
 74
0
 40
0
 40
0
 40
0
 40
0
 40
1
 40
1
 40
1
 40
1
 10
3.889042
 20
4.967853
 30
0.0
 10
3.889042
 20
5.011860
 30
0.0
 10
3.906524
 20
5.054064
 30
0.0
 10
3.937641
 20
5.085182
 30
0.0
  0
SPLINE
  5
142
100
AcDbEntity
  8
Layer_1
 62
7
100
AcDbSpline
 70
8
 71
3
 72
8
 73
4
 74
0
 40
0
 40
0
 40
0
 40
0
 40
1
 40
1
 40
1
 40
1
 10
3.937641
 20
5.085182
 30
0.0
 10
3.968759
 20
5.116299
 30
0.0
 10
4.010963
 20
5.133781
 30
0.0
 10
4.054969
 20
5.133781
 30
0.0
  0
SPLINE
  5
143
100
AcDbEntity
  8
Layer_1
 62
7
100
AcDbSpline
 70
8
 71
3
 72
8
 73
4
 74
0
 40
0
 40
0
 40
0
 40
0
 40
1
 40
1
 40
1
 40
1
 10
4.054969
 20
5.133781
 30
0.0
 10
4.146608
 20
5.133781
 30
0.0
 10
4.220896
 20
5.059493
 30
0.0
 10
4.220896
 20
4.967854
 30
0.0
  0
LWPOLYLINE
  5
144
100
AcDbEntity
  8
Layer_1
 62
7
100
AcDbPolyline
 90
2
 70
1
 10
3.500136
 20
4.967854
 30
0.0
 10
3.500136
 20
4.967853
 30
0.0
  0
LWPOLYLINE
  5
145
100
AcDbEntity
  8
Layer_1
 62
7
100
AcDbPolyline
 90
2
 70
1
 10
4.220896
 20
4.967854
 30
0.0
 10
4.220896
 20
4.967853
 30
0.0
  0
LWPOLYLINE
  5
146
100
AcDbEntity
  8
Layer_1
 62
4
100
AcDbPolyline
 90
5
 70
1
 10
6.140271
 20
5.805831
 30
0.0
 10
6.720271
 20
5.805831
 30
0.0
 10
6.720271
 20
4.980831
 30
0.0
 10
6.140271
 20
4.980831
 30
0.0
 10
6.140271
 20
5.805831
 30
0.0
  0
SPLINE
  5
147
100
AcDbEntity
  8
Layer_1
 62
4
100
AcDbSpline
 70
8
 71
3
 72
8
 73
4
 74
0
 40
0
 40
0
 40
0
 40
0
 40
1
 40
1
 40
1
 40
1
 10
6.162145
 20
5.416439
 30
0.0
 10
6.162145
 20
5.451064
 30
0.0
 10
6.190020
 20
5.478939
 30
0.0
 10
6.224645
 20
5.478939
 30
0.0
  0
LWPOLYLINE
  5
148
100
AcDbEntity
  8
Layer_1
 62
4
100
AcDbPolyline
 90
2
 70
1
 10
6.162145
 20
5.353939
 30
0.0
 10
6.162145
 20
5.416439
 30
0.0
  0
SPLINE
  5
149
100
AcDbEntity
  8
Layer_1
 62
4
100
AcDbSpline
 70
8
 71
3
 72
8
 73
4
 74
0
 40
0
 40
0
 40
0
 40
0
 40
1
 40
1
 40
1
 40
1
 10
6.662145
 20
5.478939
 30
0.0
 10
6.696770
 20
5.478939
 30
0.0
 10
6.724645
 20
5.451064
 30
0.0
 10
6.724645
 20
5.416439
 30
0.0
  0
LWPOLYLINE
  5
14a
100
AcDbEntity
  8
Layer_1
 62
4
100
AcDbPolyline
 90
2
 70
1
 10
6.224645
 20
5.478939
 30
0.0
 10
6.662145
 20
5.478939
 30
0.0
  0
SPLINE
  5
14b
100
AcDbEntity
  8
Layer_1
 62
4
100
AcDbSpline
 70
8
 71
3
 72
8
 73
4
 74
0
 40
0
 40
0
 40
0
 40
0
 40
1
 40
1
 40
1
 40
1
 10
6.724645
 20
5.353939
 30
0.0
 10
6.724645
 20
5.319314
 30
0.0
 10
6.696770
 20
5.291439
 30
0.0
 10
6.662145
 20
5.291439
 30
0.0
  0
LWPOLYLINE
  5
14c
100
AcDbEntity
  8
Layer_1
 62
4
100
AcDbPolyline
 90
2
 70
1
 10
6.724645
 20
5.416439
 30
0.0
 10
6.724645
 20
5.353939
 30
0.0
  0
SPLINE
  5
14d
100
AcDbEntity
  8
Layer_1
 62
4
100
AcDbSpline
 70
8
 71
3
 72
8
 73
4
 74
0
 40
0
 40
0
 40
0
 40
0
 40
1
 40
1
 40
1
 40
1
 10
6.224645
 20
5.291439
 30
0.0
 10
6.190020
 20
5.291439
 30
0.0
 10
6.162145
 20
5.319314
 30
0.0
 10
6.162145
 20
5.353939
 30
0.0
  0
LWPOLYLINE
  5
14e
100
AcDbEntity
  8
Layer_1
 62
4
100
AcDbPolyline
 90
2
 70
1
 10
6.662145
 20
5.291439
 30
0.0
 10
6.224645
 20
5.291439
 30
0.0
  0
SPLINE
  5
14f
100
AcDbEntity
  8
Layer_1
 62
7
100
AcDbSpline
 70
8
 71
3
 72
8
 73
4
 74
0
 40
0
 40
0
 40
0
 40
0
 40
1
 40
1
 40
1
 40
1
 10
6.862009
 20
4.967854
 30
0.0
 10
6.862009
 20
4.914594
 30
0.0
 10
6.818834
 20
4.871418
 30
0.0
 10
6.765574
 20
4.871418
 30
0.0
  0
SPLINE
  5
150
100
AcDbEntity
  8
Layer_1
 62
7
100
AcDbSpline
 70
8
 71
3
 72
8
 73
4
 74
0
 40
0
 40
0
 40
0
 40
0
 40
1
 40
1
 40
1
 40
1
 10
6.765574
 20
4.871418
 30
0.0
 10
6.739997
 20
4.871418
 30
0.0
 10
6.715469
 20
4.881578
 30
0.0
 10
6.697383
 20
4.899663
 30
0.0
  0
SPLINE
  5
151
100
AcDbEntity
  8
Layer_1
 62
7
100
AcDbSpline
 70
8
 71
3
 72
8
 73
4
 74
0
 40
0
 40
0
 40
0
 40
0
 40
1
 40
1
 40
1
 40
1
 10
6.697383
 20
4.899663
 30
0.0
 10
6.679298
 20
4.917748
 30
0.0
 10
6.669138
 20
4.942277
 30
0.0
 10
6.669138
 20
4.967854
 30
0.0
  0
SPLINE
  5
152
100
AcDbEntity
  8
Layer_1
 62
7
100
AcDbSpline
 70
8
 71
3
 72
8
 73
4
 74
0
 40
0
 40
0
 40
0
 40
0
 40
1
 40
1
 40
1
 40
1
 10
6.669138
 20
4.967854
 30
0.0
 10
6.669138
 20
4.993430
 30
0.0
 10
6.679298
 20
5.017959
 30
0.0
 10
6.697383
 20
5.036044
 30
0.0
  0
SPLINE
  5
153
100
AcDbEntity
  8
Layer_1
 62
7
100
AcDbSpline
 70
8
 71
3
 72
8
 73
4
 74
0
 40
0
 40
0
 40
0
 40
0
 40
1
 40
1
 40
1
 40
1
 10
6.697383
 20
5.036044
 30
0.0
 10
6.715469
 20
5.054129
 30
0.0
 10
6.739997
 20
5.064289
 30
0.0
 10
6.765574
 20
5.064289
 30
0.0
  0
SPLINE
  5
154
100
AcDbEntity
  8
Layer_1
 62
7
100
AcDbSpline
 70
8
 71
3
 72
8
 73
4
 74
0
 40
0
 40
0
 40
0
 40
0
 40
1
 40
1
 40
1
 40
1
 10
6.765574
 20
5.064289
 30
0.0
 10
6.818834
 20
5.064289
 30
0.0
 10
6.862009
 20
5.021113
 30
0.0
 10
6.862009
 20
4.967853
 30
0.0
  0
LWPOLYLINE
  5
155
100
AcDbEntity
  8
Layer_1
 62
4
100
AcDbPolyline
 90
2
 70
1
 10
6.162145
 20
5.353939
 30
0.0
 10
6.162145
 20
5.353939
 30
0.0
  0
SPLINE
  5
156
100
AcDbEntity
  8
Layer_1
 62
7
100
AcDbSpline
 70
8
 71
3
 72
8
 73
4
 74
0
 40
0
 40
0
 40
0
 40
0
 40
1
 40
1
 40
1
 40
1
 10
6.862009
 20
5.921058
 30
0.0
 10
6.862009
 20
5.867798
 30
0.0
 10
6.818834
 20
5.824623
 30
0.0
 10
6.765574
 20
5.824623
 30
0.0
  0
SPLINE
  5
157
100
AcDbEntity
  8
Layer_1
 62
7
100
AcDbSpline
 70
8
 71
3
 72
8
 73
4
 74
0
 40
0
 40
0
 40
0
 40
0
 40
1
 40
1
 40
1
 40
1
 10
6.765574
 20
5.824623
 30
0.0
 10
6.739997
 20
5.824623
 30
0.0
 10
6.715469
 20
5.834783
 30
0.0
 10
6.697383
 20
5.852868
 30
0.0
  0
SPLINE
  5
158
100
AcDbEntity
  8
Layer_1
 62
7
100
AcDbSpline
 70
8
 71
3
 72
8
 73
4
 74
0
 40
0
 40
0
 40
0
 40
0
 40
1
 40
1
 40
1
 40
1
 10
6.697383
 20
5.852868
 30
0.0
 10
6.679298
 20
5.870953
 30
0.0
 10
6.669138
 20
5.895482
 30
0.0
 10
6.669138
 20
5.921058
 30
0.0
  0
SPLINE
  5
159
100
AcDbEntity
  8
Layer_1
 62
7
100
AcDbSpline
 70
8
 71
3
 72
8
 73
4
 74
0
 40
0
 40
0
 40
0
 40
0
 40
1
 40
1
 40
1
 40
1
 10
6.669138
 20
5.921058
 30
0.0
 10
6.669138
 20
5.946635
 30
0.0
 10
6.679298
 20
5.971164
 30
0.0
 10
6.697383
 20
5.989249
 30
0.0
  0
SPLINE
  5
15a
100
AcDbEntity
  8
Layer_1
 62
7
100
AcDbSpline
 70
8
 71
3
 72
8
 73
4
 74
0
 40
0
 40
0
 40
0
 40
0
 40
1
 40
1
 40
1
 40
1
 10
6.697383
 20
5.989249
 30
0.0
 10
6.715469
 20
6.007334
 30
0.0
 10
6.739997
 20
6.017494
 30
0.0
 10
6.765574
 20
6.017494
 30
0.0
  0
SPLINE
  5
15b
100
AcDbEntity
  8
Layer_1
 62
7
100
AcDbSpline
 70
8
 71
3
 72
8
 73
4
 74
0
 40
0
 40
0
 40
0
 40
0
 40
1
 40
1
 40
1
 40
1
 10
6.765574
 20
6.017494
 30
0.0
 10
6.791150
 20
6.017494
 30
0.0
 10
6.815679
 20
6.007334
 30
0.0
 10
6.833764
 20
5.989249
 30
0.0
  0
SPLINE
  5
15c
100
AcDbEntity
  8
Layer_1
 62
7
100
AcDbSpline
 70
8
 71
3
 72
8
 73
4
 74
0
 40
0
 40
0
 40
0
 40
0
 40
1
 40
1
 40
1
 40
1
 10
6.833764
 20
5.989249
 30
0.0
 10
6.851849
 20
5.971164
 30
0.0
 10
6.862009
 20
5.946635
 30
0.0
 10
6.862009
 20
5.921058
 30
0.0
  0
LWPOLYLINE
  5
15d
100
AcDbEntity
  8
Layer_1
 62
7
100
AcDbPolyline
 90
2
 70
1
 10
6.862009
 20
4.967853
 30
0.0
 10
6.862009
 20
4.967853
 30
0.0
  0
SPLINE
  5
15e
100
AcDbEntity
  8
Layer_1
 62
7
100
AcDbSpline
 70
8
 71
3
 72
8
 73
4
 74
0
 40
0
 40
0
 40
0
 40
0
 40
1
 40
1
 40
1
 40
1
 10
6.141249
 20
4.967854
 30
0.0
 10
6.141249
 20
4.942277
 30
0.0
 10
6.131089
 20
4.917748
 30
0.0
 10
6.113004
 20
4.899663
 30
0.0
  0
SPLINE
  5
15f
100
AcDbEntity
  8
Layer_1
 62
7
100
AcDbSpline
 70
8
 71
3
 72
8
 73
4
 74
0
 40
0
 40
0
 40
0
 40
0
 40
1
 40
1
 40
1
 40
1
 10
6.113004
 20
4.899663
 30
0.0
 10
6.094919
 20
4.881578
 30
0.0
 10
6.070390
 20
4.871418
 30
0.0
 10
6.044813
 20
4.871418
 30
0.0
  0
SPLINE
  5
160
100
AcDbEntity
  8
Layer_1
 62
7
100
AcDbSpline
 70
8
 71
3
 72
8
 73
4
 74
0
 40
0
 40
0
 40
0
 40
0
 40
1
 40
1
 40
1
 40
1
 10
6.044813
 20
4.871418
 30
0.0
 10
5.991554
 20
4.871418
 30
0.0
 10
5.948378
 20
4.914594
 30
0.0
 10
5.948378
 20
4.967853
 30
0.0
  0
SPLINE
  5
161
100
AcDbEntity
  8
Layer_1
 62
7
100
AcDbSpline
 70
8
 71
3
 72
8
 73
4
 74
0
 40
0
 40
0
 40
0
 40
0
 40
1
 40
1
 40
1
 40
1
 10
5.948378
 20
4.967853
 30
0.0
 10
5.948378
 20
5.021113
 30
0.0
 10
5.991554
 20
5.064289
 30
0.0
 10
6.044813
 20
5.064289
 30
0.0
  0
SPLINE
  5
162
100
AcDbEntity
  8
Layer_1
 62
7
100
AcDbSpline
 70
8
 71
3
 72
8
 73
4
 74
0
 40
0
 40
0
 40
0
 40
0
 40
1
 40
1
 40
1
 40
1
 10
6.044813
 20
5.064289
 30
0.0
 10
6.070390
 20
5.064289
 30
0.0
 10
6.094919
 20
5.054129
 30
0.0
 10
6.113004
 20
5.036044
 30
0.0
  0
SPLINE
  5
163
100
AcDbEntity
  8
Layer_1
 62
7
100
AcDbSpline
 70
8
 71
3
 72
8
 73
4
 74
0
 40
0
 40
0
 40
0
 40
0
 40
1
 40
1
 40
1
 40
1
 10
6.113004
 20
5.036044
 30
0.0
 10
6.131089
 20
5.017959
 30
0.0
 10
6.141249
 20
4.993430
 30
0.0
 10
6.141249
 20
4.967853
 30
0.0
  0
LWPOLYLINE
  5
164
100
AcDbEntity
  8
Layer_1
 62
7
100
AcDbPolyline
 90
2
 70
1
 10
6.862009
 20
5.921058
 30
0.0
 10
6.862009
 20
5.921058
 30
0.0
  0
SPLINE
  5
165
100
AcDbEntity
  8
Layer_1
 62
7
100
AcDbSpline
 70
8
 71
3
 72
8
 73
4
 74
0
 40
0
 40
0
 40
0
 40
0
 40
1
 40
1
 40
1
 40
1
 10
6.141249
 20
5.921058
 30
0.0
 10
6.141249
 20
5.895482
 30
0.0
 10
6.131089
 20
5.870953
 30
0.0
 10
6.113004
 20
5.852868
 30
0.0
  0
SPLINE
  5
166
100
AcDbEntity
  8
Layer_1
 62
7
100
AcDbSpline
 70
8
 71
3
 72
8
 73
4
 74
0
 40
0
 40
0
 40
0
 40
0
 40
1
 40
1
 40
1
 40
1
 10
6.113004
 20
5.852868
 30
0.0
 10
6.094919
 20
5.834783
 30
0.0
 10
6.070390
 20
5.824623
 30
0.0
 10
6.044813
 20
5.824623
 30
0.0
  0
SPLINE
  5
167
100
AcDbEntity
  8
Layer_1
 62
7
100
AcDbSpline
 70
8
 71
3
 72
8
 73
4
 74
0
 40
0
 40
0
 40
0
 40
0
 40
1
 40
1
 40
1
 40
1
 10
6.044813
 20
5.824623
 30
0.0
 10
5.991554
 20
5.824623
 30
0.0
 10
5.948378
 20
5.867798
 30
0.0
 10
5.948378
 20
5.921058
 30
0.0
  0
SPLINE
  5
168
100
AcDbEntity
  8
Layer_1
 62
7
100
AcDbSpline
 70
8
 71
3
 72
8
 73
4
 74
0
 40
0
 40
0
 40
0
 40
0
 40
1
 40
1
 40
1
 40
1
 10
5.948378
 20
5.921058
 30
0.0
 10
5.948378
 20
5.946635
 30
0.0
 10
5.958538
 20
5.971164
 30
0.0
 10
5.976623
 20
5.989249
 30
0.0
  0
SPLINE
  5
169
100
AcDbEntity
  8
Layer_1
 62
7
100
AcDbSpline
 70
8
 71
3
 72
8
 73
4
 74
0
 40
0
 40
0
 40
0
 40
0
 40
1
 40
1
 40
1
 40
1
 10
5.976623
 20
5.989249
 30
0.0
 10
5.994708
 20
6.007334
 30
0.0
 10
6.019237
 20
6.017494
 30
0.0
 10
6.044813
 20
6.017494
 30
0.0
  0
SPLINE
  5
16a
100
AcDbEntity
  8
Layer_1
 62
7
100
AcDbSpline
 70
8
 71
3
 72
8
 73
4
 74
0
 40
0
 40
0
 40
0
 40
0
 40
1
 40
1
 40
1
 40
1
 10
6.044813
 20
6.017494
 30
0.0
 10
6.070390
 20
6.017494
 30
0.0
 10
6.094919
 20
6.007334
 30
0.0
 10
6.113004
 20
5.989249
 30
0.0
  0
SPLINE
  5
16b
100
AcDbEntity
  8
Layer_1
 62
7
100
AcDbSpline
 70
8
 71
3
 72
8
 73
4
 74
0
 40
0
 40
0
 40
0
 40
0
 40
1
 40
1
 40
1
 40
1
 10
6.113004
 20
5.989249
 30
0.0
 10
6.131089
 20
5.971164
 30
0.0
 10
6.141249
 20
5.946635
 30
0.0
 10
6.141249
 20
5.921058
 30
0.0
  0
LWPOLYLINE
  5
16c
100
AcDbEntity
  8
Layer_1
 62
7
100
AcDbPolyline
 90
2
 70
1
 10
6.141249
 20
4.967853
 30
0.0
 10
6.141249
 20
4.967853
 30
0.0
  0
SPLINE
  5
16d
100
AcDbEntity
  8
Layer_1
 62
7
100
AcDbSpline
 70
8
 71
3
 72
8
 73
4
 74
0
 40
0
 40
0
 40
0
 40
0
 40
1
 40
1
 40
1
 40
1
 10
6.210741
 20
5.921058
 30
0.0
 10
6.210741
 20
5.829419
 30
0.0
 10
6.136453
 20
5.755131
 30
0.0
 10
6.044814
 20
5.755131
 30
0.0
  0
SPLINE
  5
16e
100
AcDbEntity
  8
Layer_1
 62
7
100
AcDbSpline
 70
8
 71
3
 72
8
 73
4
 74
0
 40
0
 40
0
 40
0
 40
0
 40
1
 40
1
 40
1
 40
1
 10
6.044814
 20
5.755131
 30
0.0
 10
6.000807
 20
5.755131
 30
0.0
 10
5.958603
 20
5.772613
 30
0.0
 10
5.927485
 20
5.803730
 30
0.0
  0
SPLINE
  5
16f
100
AcDbEntity
  8
Layer_1
 62
7
100
AcDbSpline
 70
8
 71
3
 72
8
 73
4
 74
0
 40
0
 40
0
 40
0
 40
0
 40
1
 40
1
 40
1
 40
1
 10
5.927485
 20
5.803730
 30
0.0
 10
5.896368
 20
5.834848
 30
0.0
 10
5.878886
 20
5.877052
 30
0.0
 10
5.878886
 20
5.921058
 30
0.0
  0
SPLINE
  5
170
100
AcDbEntity
  8
Layer_1
 62
7
100
AcDbSpline
 70
8
 71
3
 72
8
 73
4
 74
0
 40
0
 40
0
 40
0
 40
0
 40
1
 40
1
 40
1
 40
1
 10
5.878886
 20
5.921058
 30
0.0
 10
5.878886
 20
5.965065
 30
0.0
 10
5.896368
 20
6.007269
 30
0.0
 10
5.927485
 20
6.038387
 30
0.0
  0
SPLINE
  5
171
100
AcDbEntity
  8
Layer_1
 62
7
100
AcDbSpline
 70
8
 71
3
 72
8
 73
4
 74
0
 40
0
 40
0
 40
0
 40
0
 40
1
 40
1
 40
1
 40
1
 10
5.927485
 20
6.038387
 30
0.0
 10
5.958603
 20
6.069504
 30
0.0
 10
6.000807
 20
6.086986
 30
0.0
 10
6.044814
 20
6.086986
 30
0.0
  0
SPLINE
  5
172
100
AcDbEntity
  8
Layer_1
 62
7
100
AcDbSpline
 70
8
 71
3
 72
8
 73
4
 74
0
 40
0
 40
0
 40
0
 40
0
 40
1
 40
1
 40
1
 40
1
 10
6.044814
 20
6.086986
 30
0.0
 10
6.136453
 20
6.086986
 30
0.0
 10
6.210741
 20
6.012698
 30
0.0
 10
6.210741
 20
5.921059
 30
0.0
  0
LWPOLYLINE
  5
173
100
AcDbEntity
  8
Layer_1
 62
7
100
AcDbPolyline
 90
2
 70
1
 10
6.141249
 20
5.921058
 30
0.0
 10
6.141249
 20
5.921058
 30
0.0
  0
SPLINE
  5
174
100
AcDbEntity
  8
Layer_1
 62
7
100
AcDbSpline
 70
8
 71
3
 72
8
 73
4
 74
0
 40
0
 40
0
 40
0
 40
0
 40
1
 40
1
 40
1
 40
1
 10
6.931501
 20
5.921058
 30
0.0
 10
6.931501
 20
5.829419
 30
0.0
 10
6.857213
 20
5.755131
 30
0.0
 10
6.765574
 20
5.755131
 30
0.0
  0
SPLINE
  5
175
100
AcDbEntity
  8
Layer_1
 62
7
100
AcDbSpline
 70
8
 71
3
 72
8
 73
4
 74
0
 40
0
 40
0
 40
0
 40
0
 40
1
 40
1
 40
1
 40
1
 10
6.765574
 20
5.755131
 30
0.0
 10
6.721567
 20
5.755131
 30
0.0
 10
6.679363
 20
5.772613
 30
0.0
 10
6.648246
 20
5.803730
 30
0.0
  0
SPLINE
  5
176
100
AcDbEntity
  8
Layer_1
 62
7
100
AcDbSpline
 70
8
 71
3
 72
8
 73
4
 74
0
 40
0
 40
0
 40
0
 40
0
 40
1
 40
1
 40
1
 40
1
 10
6.648246
 20
5.803730
 30
0.0
 10
6.617128
 20
5.834847
 30
0.0
 10
6.599647
 20
5.877052
 30
0.0
 10
6.599647
 20
5.921058
 30
0.0
  0
SPLINE
  5
177
100
AcDbEntity
  8
Layer_1
 62
7
100
AcDbSpline
 70
8
 71
3
 72
8
 73
4
 74
0
 40
0
 40
0
 40
0
 40
0
 40
1
 40
1
 40
1
 40
1
 10
6.599647
 20
5.921058
 30
0.0
 10
6.599647
 20
5.965065
 30
0.0
 10
6.617128
 20
6.007269
 30
0.0
 10
6.648246
 20
6.038387
 30
0.0
  0
SPLINE
  5
178
100
AcDbEntity
  8
Layer_1
 62
7
100
AcDbSpline
 70
8
 71
3
 72
8
 73
4
 74
0
 40
0
 40
0
 40
0
 40
0
 40
1
 40
1
 40
1
 40
1
 10
6.648246
 20
6.038387
 30
0.0
 10
6.679363
 20
6.069504
 30
0.0
 10
6.721567
 20
6.086986
 30
0.0
 10
6.765574
 20
6.086986
 30
0.0
  0
SPLINE
  5
179
100
AcDbEntity
  8
Layer_1
 62
7
100
AcDbSpline
 70
8
 71
3
 72
8
 73
4
 74
0
 40
0
 40
0
 40
0
 40
0
 40
1
 40
1
 40
1
 40
1
 10
6.765574
 20
6.086986
 30
0.0
 10
6.857213
 20
6.086986
 30
0.0
 10
6.931501
 20
6.012697
 30
0.0
 10
6.931501
 20
5.921058
 30
0.0
  0
LWPOLYLINE
  5
17a
100
AcDbEntity
  8
Layer_1
 62
7
100
AcDbPolyline
 90
2
 70
1
 10
6.210741
 20
5.921059
 30
0.0
 10
6.210741
 20
5.921059
 30
0.0
  0
SPLINE
  5
17b
100
AcDbEntity
  8
Layer_1
 62
7
100
AcDbSpline
 70
8
 71
3
 72
8
 73
4
 74
0
 40
0
 40
0
 40
0
 40
0
 40
1
 40
1
 40
1
 40
1
 10
6.210741
 20
4.967853
 30
0.0
 10
6.210741
 20
4.876214
 30
0.0
 10
6.136453
 20
4.801926
 30
0.0
 10
6.044814
 20
4.801926
 30
0.0
  0
SPLINE
  5
17c
100
AcDbEntity
  8
Layer_1
 62
7
100
AcDbSpline
 70
8
 71
3
 72
8
 73
4
 74
0
 40
0
 40
0
 40
0
 40
0
 40
1
 40
1
 40
1
 40
1
 10
6.044814
 20
4.801926
 30
0.0
 10
6.000807
 20
4.801926
 30
0.0
 10
5.958603
 20
4.819408
 30
0.0
 10
5.927485
 20
4.850525
 30
0.0
  0
SPLINE
  5
17d
100
AcDbEntity
  8
Layer_1
 62
7
100
AcDbSpline
 70
8
 71
3
 72
8
 73
4
 74
0
 40
0
 40
0
 40
0
 40
0
 40
1
 40
1
 40
1
 40
1
 10
5.927485
 20
4.850525
 30
0.0
 10
5.896368
 20
4.881643
 30
0.0
 10
5.878886
 20
4.923847
 30
0.0
 10
5.878886
 20
4.967853
 30
0.0
  0
SPLINE
  5
17e
100
AcDbEntity
  8
Layer_1
 62
7
100
AcDbSpline
 70
8
 71
3
 72
8
 73
4
 74
0
 40
0
 40
0
 40
0
 40
0
 40
1
 40
1
 40
1
 40
1
 10
5.878886
 20
4.967853
 30
0.0
 10
5.878886
 20
5.011860
 30
0.0
 10
5.896368
 20
5.054064
 30
0.0
 10
5.927485
 20
5.085182
 30
0.0
  0
SPLINE
  5
17f
100
AcDbEntity
  8
Layer_1
 62
7
100
AcDbSpline
 70
8
 71
3
 72
8
 73
4
 74
0
 40
0
 40
0
 40
0
 40
0
 40
1
 40
1
 40
1
 40
1
 10
5.927485
 20
5.085182
 30
0.0
 10
5.958603
 20
5.116299
 30
0.0
 10
6.000807
 20
5.133781
 30
0.0
 10
6.044814
 20
5.133781
 30
0.0
  0
SPLINE
  5
180
100
AcDbEntity
  8
Layer_1
 62
7
100
AcDbSpline
 70
8
 71
3
 72
8
 73
4
 74
0
 40
0
 40
0
 40
0
 40
0
 40
1
 40
1
 40
1
 40
1
 10
6.044814
 20
5.133781
 30
0.0
 10
6.136453
 20
5.133781
 30
0.0
 10
6.210741
 20
5.059493
 30
0.0
 10
6.210741
 20
4.967854
 30
0.0
  0
LWPOLYLINE
  5
181
100
AcDbEntity
  8
Layer_1
 62
7
100
AcDbPolyline
 90
2
 70
1
 10
6.931501
 20
5.921058
 30
0.0
 10
6.931501
 20
5.921058
 30
0.0
  0
SPLINE
  5
182
100
AcDbEntity
  8
Layer_1
 62
7
100
AcDbSpline
 70
8
 71
3
 72
8
 73
4
 74
0
 40
0
 40
0
 40
0
 40
0
 40
1
 40
1
 40
1
 40
1
 10
6.931501
 20
4.967853
 30
0.0
 10
6.931501
 20
4.876214
 30
0.0
 10
6.857213
 20
4.801926
 30
0.0
 10
6.765574
 20
4.801926
 30
0.0
  0
SPLINE
  5
183
100
AcDbEntity
  8
Layer_1
 62
7
100
AcDbSpline
 70
8
 71
3
 72
8
 73
4
 74
0
 40
0
 40
0
 40
0
 40
0
 40
1
 40
1
 40
1
 40
1
 10
6.765574
 20
4.801926
 30
0.0
 10
6.721567
 20
4.801926
 30
0.0
 10
6.679363
 20
4.819408
 30
0.0
 10
6.648246
 20
4.850525
 30
0.0
  0
SPLINE
  5
184
100
AcDbEntity
  8
Layer_1
 62
7
100
AcDbSpline
 70
8
 71
3
 72
8
 73
4
 74
0
 40
0
 40
0
 40
0
 40
0
 40
1
 40
1
 40
1
 40
1
 10
6.648246
 20
4.850525
 30
0.0
 10
6.617128
 20
4.881643
 30
0.0
 10
6.599647
 20
4.923847
 30
0.0
 10
6.599647
 20
4.967854
 30
0.0
  0
SPLINE
  5
185
100
AcDbEntity
  8
Layer_1
 62
7
100
AcDbSpline
 70
8
 71
3
 72
8
 73
4
 74
0
 40
0
 40
0
 40
0
 40
0
 40
1
 40
1
 40
1
 40
1
 10
6.599647
 20
4.967854
 30
0.0
 10
6.599647
 20
5.011860
 30
0.0
 10
6.617128
 20
5.054064
 30
0.0
 10
6.648246
 20
5.085182
 30
0.0
  0
SPLINE
  5
186
100
AcDbEntity
  8
Layer_1
 62
7
100
AcDbSpline
 70
8
 71
3
 72
8
 73
4
 74
0
 40
0
 40
0
 40
0
 40
0
 40
1
 40
1
 40
1
 40
1
 10
6.648246
 20
5.085182
 30
0.0
 10
6.679363
 20
5.116299
 30
0.0
 10
6.721567
 20
5.133781
 30
0.0
 10
6.765574
 20
5.133781
 30
0.0
  0
SPLINE
  5
187
100
AcDbEntity
  8
Layer_1
 62
7
100
AcDbSpline
 70
8
 71
3
 72
8
 73
4
 74
0
 40
0
 40
0
 40
0
 40
0
 40
1
 40
1
 40
1
 40
1
 10
6.765574
 20
5.133781
 30
0.0
 10
6.857213
 20
5.133781
 30
0.0
 10
6.931501
 20
5.059493
 30
0.0
 10
6.931501
 20
4.967854
 30
0.0
  0
LWPOLYLINE
  5
188
100
AcDbEntity
  8
Layer_1
 62
7
100
AcDbPolyline
 90
2
 70
1
 10
6.210741
 20
4.967854
 30
0.0
 10
6.210741
 20
4.967853
 30
0.0
  0
LWPOLYLINE
  5
189
100
AcDbEntity
  8
Layer_1
 62
7
100
AcDbPolyline
 90
2
 70
1
 10
6.931501
 20
4.967854
 30
0.0
 10
6.931501
 20
4.967853
 30
0.0
  0
LWPOLYLINE
  5
18a
100
AcDbEntity
  8
Layer_1
 62
4
100
AcDbPolyline
 90
5
 70
1
 10
6.141361
 20
9.683609
 30
0.0
 10
6.721361
 20
9.683609
 30
0.0
 10
6.721361
 20
8.858609
 30
0.0
 10
6.141361
 20
8.858609
 30
0.0
 10
6.141361
 20
9.683609
 30
0.0
  0
SPLINE
  5
18b
100
AcDbEntity
  8
Layer_1
 62
4
100
AcDbSpline
 70
8
 71
3
 72
8
 73
4
 74
0
 40
0
 40
0
 40
0
 40
0
 40
1
 40
1
 40
1
 40
1
 10
6.163235
 20
9.306220
 30
0.0
 10
6.163235
 20
9.340845
 30
0.0
 10
6.191110
 20
9.368720
 30
0.0
 10
6.225735
 20
9.368720
 30
0.0
  0
LWPOLYLINE
  5
18c
100
AcDbEntity
  8
Layer_1
 62
4
100
AcDbPolyline
 90
2
 70
1
 10
6.163235
 20
9.243720
 30
0.0
 10
6.163235
 20
9.306220
 30
0.0
  0
SPLINE
  5
18d
100
AcDbEntity
  8
Layer_1
 62
4
100
AcDbSpline
 70
8
 71
3
 72
8
 73
4
 74
0
 40
0
 40
0
 40
0
 40
0
 40
1
 40
1
 40
1
 40
1
 10
6.663235
 20
9.368720
 30
0.0
 10
6.697860
 20
9.368720
 30
0.0
 10
6.725735
 20
9.340845
 30
0.0
 10
6.725735
 20
9.306220
 30
0.0
  0
LWPOLYLINE
  5
18e
100
AcDbEntity
  8
Layer_1
 62
4
100
AcDbPolyline
 90
2
 70
1
 10
6.225735
 20
9.368720
 30
0.0
 10
6.663235
 20
9.368720
 30
0.0
  0
SPLINE
  5
18f
100
AcDbEntity
  8
Layer_1
 62
4
100
AcDbSpline
 70
8
 71
3
 72
8
 73
4
 74
0
 40
0
 40
0
 40
0
 40
0
 40
1
 40
1
 40
1
 40
1
 10
6.725735
 20
9.243720
 30
0.0
 10
6.725735
 20
9.209095
 30
0.0
 10
6.697860
 20
9.181220
 30
0.0
 10
6.663235
 20
9.181220
 30
0.0
  0
LWPOLYLINE
  5
190
100
AcDbEntity
  8
Layer_1
 62
4
100
AcDbPolyline
 90
2
 70
1
 10
6.725735
 20
9.306220
 30
0.0
 10
6.725735
 20
9.243720
 30
0.0
  0
SPLINE
  5
191
100
AcDbEntity
  8
Layer_1
 62
4
100
AcDbSpline
 70
8
 71
3
 72
8
 73
4
 74
0
 40
0
 40
0
 40
0
 40
0
 40
1
 40
1
 40
1
 40
1
 10
6.225735
 20
9.181220
 30
0.0
 10
6.191110
 20
9.181220
 30
0.0
 10
6.163235
 20
9.209095
 30
0.0
 10
6.163235
 20
9.243720
 30
0.0
  0
LWPOLYLINE
  5
192
100
AcDbEntity
  8
Layer_1
 62
4
100
AcDbPolyline
 90
2
 70
1
 10
6.663235
 20
9.181220
 30
0.0
 10
6.225735
 20
9.181220
 30
0.0
  0
SPLINE
  5
193
100
AcDbEntity
  8
Layer_1
 62
7
100
AcDbSpline
 70
8
 71
3
 72
8
 73
4
 74
0
 40
0
 40
0
 40
0
 40
0
 40
1
 40
1
 40
1
 40
1
 10
6.862009
 20
8.834180
 30
0.0
 10
6.862009
 20
8.780920
 30
0.0
 10
6.818834
 20
8.737745
 30
0.0
 10
6.765574
 20
8.737744
 30
0.0
  0
SPLINE
  5
194
100
AcDbEntity
  8
Layer_1
 62
7
100
AcDbSpline
 70
8
 71
3
 72
8
 73
4
 74
0
 40
0
 40
0
 40
0
 40
0
 40
1
 40
1
 40
1
 40
1
 10
6.765574
 20
8.737744
 30
0.0
 10
6.739997
 20
8.737744
 30
0.0
 10
6.715469
 20
8.747905
 30
0.0
 10
6.697383
 20
8.765990
 30
0.0
  0
SPLINE
  5
195
100
AcDbEntity
  8
Layer_1
 62
7
100
AcDbSpline
 70
8
 71
3
 72
8
 73
4
 74
0
 40
0
 40
0
 40
0
 40
0
 40
1
 40
1
 40
1
 40
1
 10
6.697383
 20
8.765990
 30
0.0
 10
6.679298
 20
8.784075
 30
0.0
 10
6.669138
 20
8.808604
 30
0.0
 10
6.669138
 20
8.834180
 30
0.0
  0
SPLINE
  5
196
100
AcDbEntity
  8
Layer_1
 62
7
100
AcDbSpline
 70
8
 71
3
 72
8
 73
4
 74
0
 40
0
 40
0
 40
0
 40
0
 40
1
 40
1
 40
1
 40
1
 10
6.669138
 20
8.834180
 30
0.0
 10
6.669138
 20
8.859757
 30
0.0
 10
6.679298
 20
8.884285
 30
0.0
 10
6.697383
 20
8.902371
 30
0.0
  0
SPLINE
  5
197
100
AcDbEntity
  8
Layer_1
 62
7
100
AcDbSpline
 70
8
 71
3
 72
8
 73
4
 74
0
 40
0
 40
0
 40
0
 40
0
 40
1
 40
1
 40
1
 40
1
 10
6.697383
 20
8.902371
 30
0.0
 10
6.715469
 20
8.920456
 30
0.0
 10
6.739997
 20
8.930616
 30
0.0
 10
6.765574
 20
8.930616
 30
0.0
  0
SPLINE
  5
198
100
AcDbEntity
  8
Layer_1
 62
7
100
AcDbSpline
 70
8
 71
3
 72
8
 73
4
 74
0
 40
0
 40
0
 40
0
 40
0
 40
1
 40
1
 40
1
 40
1
 10
6.765574
 20
8.930616
 30
0.0
 10
6.818834
 20
8.930616
 30
0.0
 10
6.862009
 20
8.887440
 30
0.0
 10
6.862009
 20
8.834180
 30
0.0
  0
LWPOLYLINE
  5
199
100
AcDbEntity
  8
Layer_1
 62
4
100
AcDbPolyline
 90
2
 70
1
 10
6.163235
 20
9.243720
 30
0.0
 10
6.163235
 20
9.243720
 30
0.0
  0
SPLINE
  5
19a
100
AcDbEntity
  8
Layer_1
 62
7
100
AcDbSpline
 70
8
 71
3
 72
8
 73
4
 74
0
 40
0
 40
0
 40
0
 40
0
 40
1
 40
1
 40
1
 40
1
 10
6.862009
 20
9.787385
 30
0.0
 10
6.862009
 20
9.734125
 30
0.0
 10
6.818834
 20
9.690949
 30
0.0
 10
6.765574
 20
9.690949
 30
0.0
  0
SPLINE
  5
19b
100
AcDbEntity
  8
Layer_1
 62
7
100
AcDbSpline
 70
8
 71
3
 72
8
 73
4
 74
0
 40
0
 40
0
 40
0
 40
0
 40
1
 40
1
 40
1
 40
1
 10
6.765574
 20
9.690949
 30
0.0
 10
6.739997
 20
9.690949
 30
0.0
 10
6.715469
 20
9.701110
 30
0.0
 10
6.697383
 20
9.719195
 30
0.0
  0
SPLINE
  5
19c
100
AcDbEntity
  8
Layer_1
 62
7
100
AcDbSpline
 70
8
 71
3
 72
8
 73
4
 74
0
 40
0
 40
0
 40
0
 40
0
 40
1
 40
1
 40
1
 40
1
 10
6.697383
 20
9.719195
 30
0.0
 10
6.679298
 20
9.737280
 30
0.0
 10
6.669138
 20
9.761809
 30
0.0
 10
6.669138
 20
9.787385
 30
0.0
  0
SPLINE
  5
19d
100
AcDbEntity
  8
Layer_1
 62
7
100
AcDbSpline
 70
8
 71
3
 72
8
 73
4
 74
0
 40
0
 40
0
 40
0
 40
0
 40
1
 40
1
 40
1
 40
1
 10
6.669138
 20
9.787385
 30
0.0
 10
6.669138
 20
9.812961
 30
0.0
 10
6.679298
 20
9.837490
 30
0.0
 10
6.697383
 20
9.855575
 30
0.0
  0
SPLINE
  5
19e
100
AcDbEntity
  8
Layer_1
 62
7
100
AcDbSpline
 70
8
 71
3
 72
8
 73
4
 74
0
 40
0
 40
0
 40
0
 40
0
 40
1
 40
1
 40
1
 40
1
 10
6.697383
 20
9.855575
 30
0.0
 10
6.715469
 20
9.873661
 30
0.0
 10
6.739997
 20
9.883821
 30
0.0
 10
6.765574
 20
9.883821
 30
0.0
  0
SPLINE
  5
19f
100
AcDbEntity
  8
Layer_1
 62
7
100
AcDbSpline
 70
8
 71
3
 72
8
 73
4
 74
0
 40
0
 40
0
 40
0
 40
0
 40
1
 40
1
 40
1
 40
1
 10
6.765574
 20
9.883821
 30
0.0
 10
6.791150
 20
9.883821
 30
0.0
 10
6.815679
 20
9.873661
 30
0.0
 10
6.833764
 20
9.855575
 30
0.0
  0
SPLINE
  5
1a0
100
AcDbEntity
  8
Layer_1
 62
7
100
AcDbSpline
 70
8
 71
3
 72
8
 73
4
 74
0
 40
0
 40
0
 40
0
 40
0
 40
1
 40
1
 40
1
 40
1
 10
6.833764
 20
9.855575
 30
0.0
 10
6.851849
 20
9.837490
 30
0.0
 10
6.862009
 20
9.812961
 30
0.0
 10
6.862009
 20
9.787385
 30
0.0
  0
LWPOLYLINE
  5
1a1
100
AcDbEntity
  8
Layer_1
 62
7
100
AcDbPolyline
 90
2
 70
1
 10
6.862009
 20
8.834180
 30
0.0
 10
6.862009
 20
8.834180
 30
0.0
  0
SPLINE
  5
1a2
100
AcDbEntity
  8
Layer_1
 62
7
100
AcDbSpline
 70
8
 71
3
 72
8
 73
4
 74
0
 40
0
 40
0
 40
0
 40
0
 40
1
 40
1
 40
1
 40
1
 10
6.141249
 20
8.834180
 30
0.0
 10
6.141249
 20
8.808604
 30
0.0
 10
6.131089
 20
8.784075
 30
0.0
 10
6.113004
 20
8.765990
 30
0.0
  0
SPLINE
  5
1a3
100
AcDbEntity
  8
Layer_1
 62
7
100
AcDbSpline
 70
8
 71
3
 72
8
 73
4
 74
0
 40
0
 40
0
 40
0
 40
0
 40
1
 40
1
 40
1
 40
1
 10
6.113004
 20
8.765990
 30
0.0
 10
6.094919
 20
8.747905
 30
0.0
 10
6.070390
 20
8.737744
 30
0.0
 10
6.044813
 20
8.737744
 30
0.0
  0
SPLINE
  5
1a4
100
AcDbEntity
  8
Layer_1
 62
7
100
AcDbSpline
 70
8
 71
3
 72
8
 73
4
 74
0
 40
0
 40
0
 40
0
 40
0
 40
1
 40
1
 40
1
 40
1
 10
6.044813
 20
8.737744
 30
0.0
 10
5.991554
 20
8.737745
 30
0.0
 10
5.948378
 20
8.780920
 30
0.0
 10
5.948378
 20
8.834180
 30
0.0
  0
SPLINE
  5
1a5
100
AcDbEntity
  8
Layer_1
 62
7
100
AcDbSpline
 70
8
 71
3
 72
8
 73
4
 74
0
 40
0
 40
0
 40
0
 40
0
 40
1
 40
1
 40
1
 40
1
 10
5.948378
 20
8.834180
 30
0.0
 10
5.948378
 20
8.887440
 30
0.0
 10
5.991554
 20
8.930616
 30
0.0
 10
6.044813
 20
8.930616
 30
0.0
  0
SPLINE
  5
1a6
100
AcDbEntity
  8
Layer_1
 62
7
100
AcDbSpline
 70
8
 71
3
 72
8
 73
4
 74
0
 40
0
 40
0
 40
0
 40
0
 40
1
 40
1
 40
1
 40
1
 10
6.044813
 20
8.930616
 30
0.0
 10
6.070390
 20
8.930616
 30
0.0
 10
6.094919
 20
8.920456
 30
0.0
 10
6.113004
 20
8.902371
 30
0.0
  0
SPLINE
  5
1a7
100
AcDbEntity
  8
Layer_1
 62
7
100
AcDbSpline
 70
8
 71
3
 72
8
 73
4
 74
0
 40
0
 40
0
 40
0
 40
0
 40
1
 40
1
 40
1
 40
1
 10
6.113004
 20
8.902371
 30
0.0
 10
6.131089
 20
8.884285
 30
0.0
 10
6.141249
 20
8.859757
 30
0.0
 10
6.141249
 20
8.834180
 30
0.0
  0
LWPOLYLINE
  5
1a8
100
AcDbEntity
  8
Layer_1
 62
7
100
AcDbPolyline
 90
2
 70
1
 10
6.862009
 20
9.787385
 30
0.0
 10
6.862009
 20
9.787385
 30
0.0
  0
SPLINE
  5
1a9
100
AcDbEntity
  8
Layer_1
 62
7
100
AcDbSpline
 70
8
 71
3
 72
8
 73
4
 74
0
 40
0
 40
0
 40
0
 40
0
 40
1
 40
1
 40
1
 40
1
 10
6.141249
 20
9.787385
 30
0.0
 10
6.141249
 20
9.761809
 30
0.0
 10
6.131089
 20
9.737280
 30
0.0
 10
6.113004
 20
9.719195
 30
0.0
  0
SPLINE
  5
1aa
100
AcDbEntity
  8
Layer_1
 62
7
100
AcDbSpline
 70
8
 71
3
 72
8
 73
4
 74
0
 40
0
 40
0
 40
0
 40
0
 40
1
 40
1
 40
1
 40
1
 10
6.113004
 20
9.719195
 30
0.0
 10
6.094919
 20
9.701110
 30
0.0
 10
6.070390
 20
9.690949
 30
0.0
 10
6.044813
 20
9.690949
 30
0.0
  0
SPLINE
  5
1ab
100
AcDbEntity
  8
Layer_1
 62
7
100
AcDbSpline
 70
8
 71
3
 72
8
 73
4
 74
0
 40
0
 40
0
 40
0
 40
0
 40
1
 40
1
 40
1
 40
1
 10
6.044813
 20
9.690949
 30
0.0
 10
5.991554
 20
9.690949
 30
0.0
 10
5.948378
 20
9.734125
 30
0.0
 10
5.948378
 20
9.787385
 30
0.0
  0
SPLINE
  5
1ac
100
AcDbEntity
  8
Layer_1
 62
7
100
AcDbSpline
 70
8
 71
3
 72
8
 73
4
 74
0
 40
0
 40
0
 40
0
 40
0
 40
1
 40
1
 40
1
 40
1
 10
5.948378
 20
9.787385
 30
0.0
 10
5.948378
 20
9.812961
 30
0.0
 10
5.958538
 20
9.837490
 30
0.0
 10
5.976623
 20
9.855575
 30
0.0
  0
SPLINE
  5
1ad
100
AcDbEntity
  8
Layer_1
 62
7
100
AcDbSpline
 70
8
 71
3
 72
8
 73
4
 74
0
 40
0
 40
0
 40
0
 40
0
 40
1
 40
1
 40
1
 40
1
 10
5.976623
 20
9.855575
 30
0.0
 10
5.994708
 20
9.873661
 30
0.0
 10
6.019237
 20
9.883821
 30
0.0
 10
6.044813
 20
9.883821
 30
0.0
  0
SPLINE
  5
1ae
100
AcDbEntity
  8
Layer_1
 62
7
100
AcDbSpline
 70
8
 71
3
 72
8
 73
4
 74
0
 40
0
 40
0
 40
0
 40
0
 40
1
 40
1
 40
1
 40
1
 10
6.044813
 20
9.883821
 30
0.0
 10
6.070390
 20
9.883821
 30
0.0
 10
6.094919
 20
9.873661
 30
0.0
 10
6.113004
 20
9.855575
 30
0.0
  0
SPLINE
  5
1af
100
AcDbEntity
  8
Layer_1
 62
7
100
AcDbSpline
 70
8
 71
3
 72
8
 73
4
 74
0
 40
0
 40
0
 40
0
 40
0
 40
1
 40
1
 40
1
 40
1
 10
6.113004
 20
9.855575
 30
0.0
 10
6.131089
 20
9.837490
 30
0.0
 10
6.141249
 20
9.812961
 30
0.0
 10
6.141249
 20
9.787385
 30
0.0
  0
LWPOLYLINE
  5
1b0
100
AcDbEntity
  8
Layer_1
 62
7
100
AcDbPolyline
 90
2
 70
1
 10
6.141249
 20
8.834180
 30
0.0
 10
6.141249
 20
8.834180
 30
0.0
  0
SPLINE
  5
1b1
100
AcDbEntity
  8
Layer_1
 62
7
100
AcDbSpline
 70
8
 71
3
 72
8
 73
4
 74
0
 40
0
 40
0
 40
0
 40
0
 40
1
 40
1
 40
1
 40
1
 10
6.210741
 20
9.787385
 30
0.0
 10
6.210741
 20
9.695746
 30
0.0
 10
6.136453
 20
9.621458
 30
0.0
 10
6.044814
 20
9.621458
 30
0.0
  0
SPLINE
  5
1b2
100
AcDbEntity
  8
Layer_1
 62
7
100
AcDbSpline
 70
8
 71
3
 72
8
 73
4
 74
0
 40
0
 40
0
 40
0
 40
0
 40
1
 40
1
 40
1
 40
1
 10
6.044814
 20
9.621458
 30
0.0
 10
6.000807
 20
9.621458
 30
0.0
 10
5.958603
 20
9.638939
 30
0.0
 10
5.927485
 20
9.670057
 30
0.0
  0
SPLINE
  5
1b3
100
AcDbEntity
  8
Layer_1
 62
7
100
AcDbSpline
 70
8
 71
3
 72
8
 73
4
 74
0
 40
0
 40
0
 40
0
 40
0
 40
1
 40
1
 40
1
 40
1
 10
5.927485
 20
9.670057
 30
0.0
 10
5.896368
 20
9.701174
 30
0.0
 10
5.878886
 20
9.743379
 30
0.0
 10
5.878886
 20
9.787385
 30
0.0
  0
SPLINE
  5
1b4
100
AcDbEntity
  8
Layer_1
 62
7
100
AcDbSpline
 70
8
 71
3
 72
8
 73
4
 74
0
 40
0
 40
0
 40
0
 40
0
 40
1
 40
1
 40
1
 40
1
 10
5.878886
 20
9.787385
 30
0.0
 10
5.878886
 20
9.831392
 30
0.0
 10
5.896368
 20
9.873596
 30
0.0
 10
5.927485
 20
9.904713
 30
0.0
  0
SPLINE
  5
1b5
100
AcDbEntity
  8
Layer_1
 62
7
100
AcDbSpline
 70
8
 71
3
 72
8
 73
4
 74
0
 40
0
 40
0
 40
0
 40
0
 40
1
 40
1
 40
1
 40
1
 10
5.927485
 20
9.904713
 30
0.0
 10
5.958603
 20
9.935831
 30
0.0
 10
6.000807
 20
9.953312
 30
0.0
 10
6.044814
 20
9.953312
 30
0.0
  0
SPLINE
  5
1b6
100
AcDbEntity
  8
Layer_1
 62
7
100
AcDbSpline
 70
8
 71
3
 72
8
 73
4
 74
0
 40
0
 40
0
 40
0
 40
0
 40
1
 40
1
 40
1
 40
1
 10
6.044814
 20
9.953312
 30
0.0
 10
6.136453
 20
9.953312
 30
0.0
 10
6.210741
 20
9.879024
 30
0.0
 10
6.210741
 20
9.787385
 30
0.0
  0
LWPOLYLINE
  5
1b7
100
AcDbEntity
  8
Layer_1
 62
7
100
AcDbPolyline
 90
2
 70
1
 10
6.141249
 20
9.787385
 30
0.0
 10
6.141249
 20
9.787385
 30
0.0
  0
SPLINE
  5
1b8
100
AcDbEntity
  8
Layer_1
 62
7
100
AcDbSpline
 70
8
 71
3
 72
8
 73
4
 74
0
 40
0
 40
0
 40
0
 40
0
 40
1
 40
1
 40
1
 40
1
 10
6.931501
 20
9.787385
 30
0.0
 10
6.931501
 20
9.695746
 30
0.0
 10
6.857213
 20
9.621458
 30
0.0
 10
6.765574
 20
9.621458
 30
0.0
  0
SPLINE
  5
1b9
100
AcDbEntity
  8
Layer_1
 62
7
100
AcDbSpline
 70
8
 71
3
 72
8
 73
4
 74
0
 40
0
 40
0
 40
0
 40
0
 40
1
 40
1
 40
1
 40
1
 10
6.765574
 20
9.621458
 30
0.0
 10
6.721567
 20
9.621458
 30
0.0
 10
6.679363
 20
9.638939
 30
0.0
 10
6.648246
 20
9.670057
 30
0.0
  0
SPLINE
  5
1ba
100
AcDbEntity
  8
Layer_1
 62
7
100
AcDbSpline
 70
8
 71
3
 72
8
 73
4
 74
0
 40
0
 40
0
 40
0
 40
0
 40
1
 40
1
 40
1
 40
1
 10
6.648246
 20
9.670057
 30
0.0
 10
6.617128
 20
9.701174
 30
0.0
 10
6.599647
 20
9.743378
 30
0.0
 10
6.599647
 20
9.787385
 30
0.0
  0
SPLINE
  5
1bb
100
AcDbEntity
  8
Layer_1
 62
7
100
AcDbSpline
 70
8
 71
3
 72
8
 73
4
 74
0
 40
0
 40
0
 40
0
 40
0
 40
1
 40
1
 40
1
 40
1
 10
6.599647
 20
9.787385
 30
0.0
 10
6.599647
 20
9.831392
 30
0.0
 10
6.617128
 20
9.873596
 30
0.0
 10
6.648246
 20
9.904713
 30
0.0
  0
SPLINE
  5
1bc
100
AcDbEntity
  8
Layer_1
 62
7
100
AcDbSpline
 70
8
 71
3
 72
8
 73
4
 74
0
 40
0
 40
0
 40
0
 40
0
 40
1
 40
1
 40
1
 40
1
 10
6.648246
 20
9.904713
 30
0.0
 10
6.679363
 20
9.935831
 30
0.0
 10
6.721567
 20
9.953312
 30
0.0
 10
6.765574
 20
9.953312
 30
0.0
  0
SPLINE
  5
1bd
100
AcDbEntity
  8
Layer_1
 62
7
100
AcDbSpline
 70
8
 71
3
 72
8
 73
4
 74
0
 40
0
 40
0
 40
0
 40
0
 40
1
 40
1
 40
1
 40
1
 10
6.765574
 20
9.953312
 30
0.0
 10
6.857213
 20
9.953312
 30
0.0
 10
6.931501
 20
9.879024
 30
0.0
 10
6.931501
 20
9.787385
 30
0.0
  0
LWPOLYLINE
  5
1be
100
AcDbEntity
  8
Layer_1
 62
7
100
AcDbPolyline
 90
2
 70
1
 10
6.210741
 20
9.787385
 30
0.0
 10
6.210741
 20
9.787385
 30
0.0
  0
SPLINE
  5
1bf
100
AcDbEntity
  8
Layer_1
 62
7
100
AcDbSpline
 70
8
 71
3
 72
8
 73
4
 74
0
 40
0
 40
0
 40
0
 40
0
 40
1
 40
1
 40
1
 40
1
 10
6.210741
 20
8.834180
 30
0.0
 10
6.210741
 20
8.742541
 30
0.0
 10
6.136453
 20
8.668253
 30
0.0
 10
6.044814
 20
8.668253
 30
0.0
  0
SPLINE
  5
1c0
100
AcDbEntity
  8
Layer_1
 62
7
100
AcDbSpline
 70
8
 71
3
 72
8
 73
4
 74
0
 40
0
 40
0
 40
0
 40
0
 40
1
 40
1
 40
1
 40
1
 10
6.044814
 20
8.668253
 30
0.0
 10
6.000807
 20
8.668253
 30
0.0
 10
5.958603
 20
8.685734
 30
0.0
 10
5.927485
 20
8.716852
 30
0.0
  0
SPLINE
  5
1c1
100
AcDbEntity
  8
Layer_1
 62
7
100
AcDbSpline
 70
8
 71
3
 72
8
 73
4
 74
0
 40
0
 40
0
 40
0
 40
0
 40
1
 40
1
 40
1
 40
1
 10
5.927485
 20
8.716852
 30
0.0
 10
5.896368
 20
8.747969
 30
0.0
 10
5.878886
 20
8.790174
 30
0.0
 10
5.878886
 20
8.834180
 30
0.0
  0
SPLINE
  5
1c2
100
AcDbEntity
  8
Layer_1
 62
7
100
AcDbSpline
 70
8
 71
3
 72
8
 73
4
 74
0
 40
0
 40
0
 40
0
 40
0
 40
1
 40
1
 40
1
 40
1
 10
5.878886
 20
8.834180
 30
0.0
 10
5.878886
 20
8.878187
 30
0.0
 10
5.896368
 20
8.920391
 30
0.0
 10
5.927485
 20
8.951508
 30
0.0
  0
SPLINE
  5
1c3
100
AcDbEntity
  8
Layer_1
 62
7
100
AcDbSpline
 70
8
 71
3
 72
8
 73
4
 74
0
 40
0
 40
0
 40
0
 40
0
 40
1
 40
1
 40
1
 40
1
 10
5.927485
 20
8.951508
 30
0.0
 10
5.958603
 20
8.982626
 30
0.0
 10
6.000807
 20
9.000107
 30
0.0
 10
6.044814
 20
9.000107
 30
0.0
  0
SPLINE
  5
1c4
100
AcDbEntity
  8
Layer_1
 62
7
100
AcDbSpline
 70
8
 71
3
 72
8
 73
4
 74
0
 40
0
 40
0
 40
0
 40
0
 40
1
 40
1
 40
1
 40
1
 10
6.044814
 20
9.000107
 30
0.0
 10
6.136453
 20
9.000107
 30
0.0
 10
6.210741
 20
8.925819
 30
0.0
 10
6.210741
 20
8.834180
 30
0.0
  0
LWPOLYLINE
  5
1c5
100
AcDbEntity
  8
Layer_1
 62
7
100
AcDbPolyline
 90
2
 70
1
 10
6.931501
 20
9.787385
 30
0.0
 10
6.931501
 20
9.787385
 30
0.0
  0
SPLINE
  5
1c6
100
AcDbEntity
  8
Layer_1
 62
7
100
AcDbSpline
 70
8
 71
3
 72
8
 73
4
 74
0
 40
0
 40
0
 40
0
 40
0
 40
1
 40
1
 40
1
 40
1
 10
6.931501
 20
8.834180
 30
0.0
 10
6.931501
 20
8.742541
 30
0.0
 10
6.857213
 20
8.668253
 30
0.0
 10
6.765574
 20
8.668253
 30
0.0
  0
SPLINE
  5
1c7
100
AcDbEntity
  8
Layer_1
 62
7
100
AcDbSpline
 70
8
 71
3
 72
8
 73
4
 74
0
 40
0
 40
0
 40
0
 40
0
 40
1
 40
1
 40
1
 40
1
 10
6.765574
 20
8.668253
 30
0.0
 10
6.721567
 20
8.668253
 30
0.0
 10
6.679363
 20
8.685734
 30
0.0
 10
6.648246
 20
8.716852
 30
0.0
  0
SPLINE
  5
1c8
100
AcDbEntity
  8
Layer_1
 62
7
100
AcDbSpline
 70
8
 71
3
 72
8
 73
4
 74
0
 40
0
 40
0
 40
0
 40
0
 40
1
 40
1
 40
1
 40
1
 10
6.648246
 20
8.716852
 30
0.0
 10
6.617128
 20
8.747969
 30
0.0
 10
6.599647
 20
8.790174
 30
0.0
 10
6.599647
 20
8.834180
 30
0.0
  0
SPLINE
  5
1c9
100
AcDbEntity
  8
Layer_1
 62
7
100
AcDbSpline
 70
8
 71
3
 72
8
 73
4
 74
0
 40
0
 40
0
 40
0
 40
0
 40
1
 40
1
 40
1
 40
1
 10
6.599647
 20
8.834180
 30
0.0
 10
6.599647
 20
8.878187
 30
0.0
 10
6.617128
 20
8.920391
 30
0.0
 10
6.648246
 20
8.951508
 30
0.0
  0
SPLINE
  5
1ca
100
AcDbEntity
  8
Layer_1
 62
7
100
AcDbSpline
 70
8
 71
3
 72
8
 73
4
 74
0
 40
0
 40
0
 40
0
 40
0
 40
1
 40
1
 40
1
 40
1
 10
6.648246
 20
8.951508
 30
0.0
 10
6.679363
 20
8.982626
 30
0.0
 10
6.721567
 20
9.000107
 30
0.0
 10
6.765574
 20
9.000107
 30
0.0
  0
SPLINE
  5
1cb
100
AcDbEntity
  8
Layer_1
 62
7
100
AcDbSpline
 70
8
 71
3
 72
8
 73
4
 74
0
 40
0
 40
0
 40
0
 40
0
 40
1
 40
1
 40
1
 40
1
 10
6.765574
 20
9.000107
 30
0.0
 10
6.857213
 20
9.000107
 30
0.0
 10
6.931501
 20
8.925819
 30
0.0
 10
6.931501
 20
8.834180
 30
0.0
  0
LWPOLYLINE
  5
1cc
100
AcDbEntity
  8
Layer_1
 62
7
100
AcDbPolyline
 90
2
 70
1
 10
6.210741
 20
8.834180
 30
0.0
 10
6.210741
 20
8.834180
 30
0.0
  0
LWPOLYLINE
  5
1cd
100
AcDbEntity
  8
Layer_1
 62
7
100
AcDbPolyline
 90
2
 70
1
 10
6.931501
 20
8.834180
 30
0.0
 10
6.931501
 20
8.834180
 30
0.0
  0
LWPOLYLINE
  5
1ce
100
AcDbEntity
  8
Layer_1
 62
4
100
AcDbPolyline
 90
5
 70
1
 10
3.430756
 20
9.683609
 30
0.0
 10
4.010756
 20
9.683609
 30
0.0
 10
4.010756
 20
8.858609
 30
0.0
 10
3.430756
 20
8.858609
 30
0.0
 10
3.430756
 20
9.683609
 30
0.0
  0
SPLINE
  5
1cf
100
AcDbEntity
  8
Layer_1
 62
4
100
AcDbSpline
 70
8
 71
3
 72
8
 73
4
 74
0
 40
0
 40
0
 40
0
 40
0
 40
1
 40
1
 40
1
 40
1
 10
3.452631
 20
9.306220
 30
0.0
 10
3.452631
 20
9.340845
 30
0.0
 10
3.480506
 20
9.368720
 30
0.0
 10
3.515131
 20
9.368720
 30
0.0
  0
LWPOLYLINE
  5
1d0
100
AcDbEntity
  8
Layer_1
 62
4
100
AcDbPolyline
 90
2
 70
1
 10
3.452631
 20
9.243720
 30
0.0
 10
3.452631
 20
9.306220
 30
0.0
  0
SPLINE
  5
1d1
100
AcDbEntity
  8
Layer_1
 62
4
100
AcDbSpline
 70
8
 71
3
 72
8
 73
4
 74
0
 40
0
 40
0
 40
0
 40
0
 40
1
 40
1
 40
1
 40
1
 10
3.952631
 20
9.368720
 30
0.0
 10
3.987256
 20
9.368720
 30
0.0
 10
4.015131
 20
9.340845
 30
0.0
 10
4.015131
 20
9.306220
 30
0.0
  0
LWPOLYLINE
  5
1d2
100
AcDbEntity
  8
Layer_1
 62
4
100
AcDbPolyline
 90
2
 70
1
 10
3.515131
 20
9.368720
 30
0.0
 10
3.952631
 20
9.368720
 30
0.0
  0
SPLINE
  5
1d3
100
AcDbEntity
  8
Layer_1
 62
4
100
AcDbSpline
 70
8
 71
3
 72
8
 73
4
 74
0
 40
0
 40
0
 40
0
 40
0
 40
1
 40
1
 40
1
 40
1
 10
4.015131
 20
9.243720
 30
0.0
 10
4.015131
 20
9.209095
 30
0.0
 10
3.987256
 20
9.181220
 30
0.0
 10
3.952631
 20
9.181220
 30
0.0
  0
LWPOLYLINE
  5
1d4
100
AcDbEntity
  8
Layer_1
 62
4
100
AcDbPolyline
 90
2
 70
1
 10
4.015131
 20
9.306220
 30
0.0
 10
4.015131
 20
9.243720
 30
0.0
  0
SPLINE
  5
1d5
100
AcDbEntity
  8
Layer_1
 62
4
100
AcDbSpline
 70
8
 71
3
 72
8
 73
4
 74
0
 40
0
 40
0
 40
0
 40
0
 40
1
 40
1
 40
1
 40
1
 10
3.515131
 20
9.181220
 30
0.0
 10
3.480506
 20
9.181220
 30
0.0
 10
3.452631
 20
9.209095
 30
0.0
 10
3.452631
 20
9.243720
 30
0.0
  0
LWPOLYLINE
  5
1d6
100
AcDbEntity
  8
Layer_1
 62
4
100
AcDbPolyline
 90
2
 70
1
 10
3.952631
 20
9.181220
 30
0.0
 10
3.515131
 20
9.181220
 30
0.0
  0
SPLINE
  5
1d7
100
AcDbEntity
  8
Layer_1
 62
7
100
AcDbSpline
 70
8
 71
3
 72
8
 73
4
 74
0
 40
0
 40
0
 40
0
 40
0
 40
1
 40
1
 40
1
 40
1
 10
4.151405
 20
8.834180
 30
0.0
 10
4.151405
 20
8.780920
 30
0.0
 10
4.108229
 20
8.737745
 30
0.0
 10
4.054969
 20
8.737744
 30
0.0
  0
SPLINE
  5
1d8
100
AcDbEntity
  8
Layer_1
 62
7
100
AcDbSpline
 70
8
 71
3
 72
8
 73
4
 74
0
 40
0
 40
0
 40
0
 40
0
 40
1
 40
1
 40
1
 40
1
 10
4.054969
 20
8.737744
 30
0.0
 10
4.029393
 20
8.737744
 30
0.0
 10
4.004864
 20
8.747905
 30
0.0
 10
3.986779
 20
8.765990
 30
0.0
  0
SPLINE
  5
1d9
100
AcDbEntity
  8
Layer_1
 62
7
100
AcDbSpline
 70
8
 71
3
 72
8
 73
4
 74
0
 40
0
 40
0
 40
0
 40
0
 40
1
 40
1
 40
1
 40
1
 10
3.986779
 20
8.765990
 30
0.0
 10
3.968694
 20
8.784075
 30
0.0
 10
3.958534
 20
8.808604
 30
0.0
 10
3.958534
 20
8.834180
 30
0.0
  0
SPLINE
  5
1da
100
AcDbEntity
  8
Layer_1
 62
7
100
AcDbSpline
 70
8
 71
3
 72
8
 73
4
 74
0
 40
0
 40
0
 40
0
 40
0
 40
1
 40
1
 40
1
 40
1
 10
3.958534
 20
8.834180
 30
0.0
 10
3.958534
 20
8.859757
 30
0.0
 10
3.968694
 20
8.884285
 30
0.0
 10
3.986779
 20
8.902371
 30
0.0
  0
SPLINE
  5
1db
100
AcDbEntity
  8
Layer_1
 62
7
100
AcDbSpline
 70
8
 71
3
 72
8
 73
4
 74
0
 40
0
 40
0
 40
0
 40
0
 40
1
 40
1
 40
1
 40
1
 10
3.986779
 20
8.902371
 30
0.0
 10
4.004864
 20
8.920456
 30
0.0
 10
4.029393
 20
8.930616
 30
0.0
 10
4.054969
 20
8.930616
 30
0.0
  0
SPLINE
  5
1dc
100
AcDbEntity
  8
Layer_1
 62
7
100
AcDbSpline
 70
8
 71
3
 72
8
 73
4
 74
0
 40
0
 40
0
 40
0
 40
0
 40
1
 40
1
 40
1
 40
1
 10
4.054969
 20
8.930616
 30
0.0
 10
4.108229
 20
8.930616
 30
0.0
 10
4.151405
 20
8.887440
 30
0.0
 10
4.151405
 20
8.834180
 30
0.0
  0
LWPOLYLINE
  5
1dd
100
AcDbEntity
  8
Layer_1
 62
4
100
AcDbPolyline
 90
2
 70
1
 10
3.452631
 20
9.243720
 30
0.0
 10
3.452631
 20
9.243720
 30
0.0
  0
SPLINE
  5
1de
100
AcDbEntity
  8
Layer_1
 62
7
100
AcDbSpline
 70
8
 71
3
 72
8
 73
4
 74
0
 40
0
 40
0
 40
0
 40
0
 40
1
 40
1
 40
1
 40
1
 10
4.151405
 20
9.787385
 30
0.0
 10
4.151405
 20
9.734125
 30
0.0
 10
4.108229
 20
9.690949
 30
0.0
 10
4.054969
 20
9.690949
 30
0.0
  0
SPLINE
  5
1df
100
AcDbEntity
  8
Layer_1
 62
7
100
AcDbSpline
 70
8
 71
3
 72
8
 73
4
 74
0
 40
0
 40
0
 40
0
 40
0
 40
1
 40
1
 40
1
 40
1
 10
4.054969
 20
9.690949
 30
0.0
 10
4.029393
 20
9.690949
 30
0.0
 10
4.004864
 20
9.701110
 30
0.0
 10
3.986779
 20
9.719195
 30
0.0
  0
SPLINE
  5
1e0
100
AcDbEntity
  8
Layer_1
 62
7
100
AcDbSpline
 70
8
 71
3
 72
8
 73
4
 74
0
 40
0
 40
0
 40
0
 40
0
 40
1
 40
1
 40
1
 40
1
 10
3.986779
 20
9.719195
 30
0.0
 10
3.968694
 20
9.737280
 30
0.0
 10
3.958534
 20
9.761809
 30
0.0
 10
3.958534
 20
9.787385
 30
0.0
  0
SPLINE
  5
1e1
100
AcDbEntity
  8
Layer_1
 62
7
100
AcDbSpline
 70
8
 71
3
 72
8
 73
4
 74
0
 40
0
 40
0
 40
0
 40
0
 40
1
 40
1
 40
1
 40
1
 10
3.958534
 20
9.787385
 30
0.0
 10
3.958534
 20
9.812961
 30
0.0
 10
3.968694
 20
9.837490
 30
0.0
 10
3.986779
 20
9.855575
 30
0.0
  0
SPLINE
  5
1e2
100
AcDbEntity
  8
Layer_1
 62
7
100
AcDbSpline
 70
8
 71
3
 72
8
 73
4
 74
0
 40
0
 40
0
 40
0
 40
0
 40
1
 40
1
 40
1
 40
1
 10
3.986779
 20
9.855575
 30
0.0
 10
4.004864
 20
9.873661
 30
0.0
 10
4.029393
 20
9.883821
 30
0.0
 10
4.054969
 20
9.883821
 30
0.0
  0
SPLINE
  5
1e3
100
AcDbEntity
  8
Layer_1
 62
7
100
AcDbSpline
 70
8
 71
3
 72
8
 73
4
 74
0
 40
0
 40
0
 40
0
 40
0
 40
1
 40
1
 40
1
 40
1
 10
4.054969
 20
9.883821
 30
0.0
 10
4.080546
 20
9.883821
 30
0.0
 10
4.105074
 20
9.873661
 30
0.0
 10
4.123160
 20
9.855575
 30
0.0
  0
SPLINE
  5
1e4
100
AcDbEntity
  8
Layer_1
 62
7
100
AcDbSpline
 70
8
 71
3
 72
8
 73
4
 74
0
 40
0
 40
0
 40
0
 40
0
 40
1
 40
1
 40
1
 40
1
 10
4.123160
 20
9.855575
 30
0.0
 10
4.141245
 20
9.837490
 30
0.0
 10
4.151405
 20
9.812961
 30
0.0
 10
4.151405
 20
9.787385
 30
0.0
  0
LWPOLYLINE
  5
1e5
100
AcDbEntity
  8
Layer_1
 62
7
100
AcDbPolyline
 90
2
 70
1
 10
4.151405
 20
8.834180
 30
0.0
 10
4.151405
 20
8.834180
 30
0.0
  0
SPLINE
  5
1e6
100
AcDbEntity
  8
Layer_1
 62
7
100
AcDbSpline
 70
8
 71
3
 72
8
 73
4
 74
0
 40
0
 40
0
 40
0
 40
0
 40
1
 40
1
 40
1
 40
1
 10
3.430645
 20
8.834180
 30
0.0
 10
3.430645
 20
8.808604
 30
0.0
 10
3.420485
 20
8.784075
 30
0.0
 10
3.402399
 20
8.765990
 30
0.0
  0
SPLINE
  5
1e7
100
AcDbEntity
  8
Layer_1
 62
7
100
AcDbSpline
 70
8
 71
3
 72
8
 73
4
 74
0
 40
0
 40
0
 40
0
 40
0
 40
1
 40
1
 40
1
 40
1
 10
3.402399
 20
8.765990
 30
0.0
 10
3.384314
 20
8.747905
 30
0.0
 10
3.359785
 20
8.737744
 30
0.0
 10
3.334209
 20
8.737744
 30
0.0
  0
SPLINE
  5
1e8
100
AcDbEntity
  8
Layer_1
 62
7
100
AcDbSpline
 70
8
 71
3
 72
8
 73
4
 74
0
 40
0
 40
0
 40
0
 40
0
 40
1
 40
1
 40
1
 40
1
 10
3.334209
 20
8.737744
 30
0.0
 10
3.280949
 20
8.737745
 30
0.0
 10
3.237773
 20
8.780920
 30
0.0
 10
3.237773
 20
8.834180
 30
0.0
  0
SPLINE
  5
1e9
100
AcDbEntity
  8
Layer_1
 62
7
100
AcDbSpline
 70
8
 71
3
 72
8
 73
4
 74
0
 40
0
 40
0
 40
0
 40
0
 40
1
 40
1
 40
1
 40
1
 10
3.237773
 20
8.834180
 30
0.0
 10
3.237773
 20
8.887440
 30
0.0
 10
3.280949
 20
8.930616
 30
0.0
 10
3.334209
 20
8.930616
 30
0.0
  0
SPLINE
  5
1ea
100
AcDbEntity
  8
Layer_1
 62
7
100
AcDbSpline
 70
8
 71
3
 72
8
 73
4
 74
0
 40
0
 40
0
 40
0
 40
0
 40
1
 40
1
 40
1
 40
1
 10
3.334209
 20
8.930616
 30
0.0
 10
3.359785
 20
8.930616
 30
0.0
 10
3.384314
 20
8.920456
 30
0.0
 10
3.402399
 20
8.902371
 30
0.0
  0
SPLINE
  5
1eb
100
AcDbEntity
  8
Layer_1
 62
7
100
AcDbSpline
 70
8
 71
3
 72
8
 73
4
 74
0
 40
0
 40
0
 40
0
 40
0
 40
1
 40
1
 40
1
 40
1
 10
3.402399
 20
8.902371
 30
0.0
 10
3.420485
 20
8.884285
 30
0.0
 10
3.430645
 20
8.859757
 30
0.0
 10
3.430645
 20
8.834180
 30
0.0
  0
LWPOLYLINE
  5
1ec
100
AcDbEntity
  8
Layer_1
 62
7
100
AcDbPolyline
 90
2
 70
1
 10
4.151405
 20
9.787385
 30
0.0
 10
4.151405
 20
9.787385
 30
0.0
  0
SPLINE
  5
1ed
100
AcDbEntity
  8
Layer_1
 62
7
100
AcDbSpline
 70
8
 71
3
 72
8
 73
4
 74
0
 40
0
 40
0
 40
0
 40
0
 40
1
 40
1
 40
1
 40
1
 10
3.430645
 20
9.787385
 30
0.0
 10
3.430645
 20
9.761809
 30
0.0
 10
3.420485
 20
9.737280
 30
0.0
 10
3.402399
 20
9.719195
 30
0.0
  0
SPLINE
  5
1ee
100
AcDbEntity
  8
Layer_1
 62
7
100
AcDbSpline
 70
8
 71
3
 72
8
 73
4
 74
0
 40
0
 40
0
 40
0
 40
0
 40
1
 40
1
 40
1
 40
1
 10
3.402399
 20
9.719195
 30
0.0
 10
3.384314
 20
9.701110
 30
0.0
 10
3.359785
 20
9.690949
 30
0.0
 10
3.334209
 20
9.690949
 30
0.0
  0
SPLINE
  5
1ef
100
AcDbEntity
  8
Layer_1
 62
7
100
AcDbSpline
 70
8
 71
3
 72
8
 73
4
 74
0
 40
0
 40
0
 40
0
 40
0
 40
1
 40
1
 40
1
 40
1
 10
3.334209
 20
9.690949
 30
0.0
 10
3.280949
 20
9.690949
 30
0.0
 10
3.237773
 20
9.734125
 30
0.0
 10
3.237773
 20
9.787385
 30
0.0
  0
SPLINE
  5
1f0
100
AcDbEntity
  8
Layer_1
 62
7
100
AcDbSpline
 70
8
 71
3
 72
8
 73
4
 74
0
 40
0
 40
0
 40
0
 40
0
 40
1
 40
1
 40
1
 40
1
 10
3.237773
 20
9.787385
 30
0.0
 10
3.237773
 20
9.812961
 30
0.0
 10
3.247933
 20
9.837490
 30
0.0
 10
3.266019
 20
9.855575
 30
0.0
  0
SPLINE
  5
1f1
100
AcDbEntity
  8
Layer_1
 62
7
100
AcDbSpline
 70
8
 71
3
 72
8
 73
4
 74
0
 40
0
 40
0
 40
0
 40
0
 40
1
 40
1
 40
1
 40
1
 10
3.266019
 20
9.855575
 30
0.0
 10
3.284104
 20
9.873661
 30
0.0
 10
3.308633
 20
9.883821
 30
0.0
 10
3.334209
 20
9.883821
 30
0.0
  0
SPLINE
  5
1f2
100
AcDbEntity
  8
Layer_1
 62
7
100
AcDbSpline
 70
8
 71
3
 72
8
 73
4
 74
0
 40
0
 40
0
 40
0
 40
0
 40
1
 40
1
 40
1
 40
1
 10
3.334209
 20
9.883821
 30
0.0
 10
3.359785
 20
9.883821
 30
0.0
 10
3.384314
 20
9.873661
 30
0.0
 10
3.402399
 20
9.855575
 30
0.0
  0
SPLINE
  5
1f3
100
AcDbEntity
  8
Layer_1
 62
7
100
AcDbSpline
 70
8
 71
3
 72
8
 73
4
 74
0
 40
0
 40
0
 40
0
 40
0
 40
1
 40
1
 40
1
 40
1
 10
3.402399
 20
9.855575
 30
0.0
 10
3.420485
 20
9.837490
 30
0.0
 10
3.430645
 20
9.812961
 30
0.0
 10
3.430645
 20
9.787385
 30
0.0
  0
LWPOLYLINE
  5
1f4
100
AcDbEntity
  8
Layer_1
 62
7
100
AcDbPolyline
 90
2
 70
1
 10
3.430645
 20
8.834180
 30
0.0
 10
3.430645
 20
8.834180
 30
0.0
  0
SPLINE
  5
1f5
100
AcDbEntity
  8
Layer_1
 62
7
100
AcDbSpline
 70
8
 71
3
 72
8
 73
4
 74
0
 40
0
 40
0
 40
0
 40
0
 40
1
 40
1
 40
1
 40
1
 10
3.500136
 20
9.787385
 30
0.0
 10
3.500136
 20
9.695746
 30
0.0
 10
3.425848
 20
9.621458
 30
0.0
 10
3.334209
 20
9.621458
 30
0.0
  0
SPLINE
  5
1f6
100
AcDbEntity
  8
Layer_1
 62
7
100
AcDbSpline
 70
8
 71
3
 72
8
 73
4
 74
0
 40
0
 40
0
 40
0
 40
0
 40
1
 40
1
 40
1
 40
1
 10
3.334209
 20
9.621458
 30
0.0
 10
3.290203
 20
9.621458
 30
0.0
 10
3.247998
 20
9.638939
 30
0.0
 10
3.216881
 20
9.670057
 30
0.0
  0
SPLINE
  5
1f7
100
AcDbEntity
  8
Layer_1
 62
7
100
AcDbSpline
 70
8
 71
3
 72
8
 73
4
 74
0
 40
0
 40
0
 40
0
 40
0
 40
1
 40
1
 40
1
 40
1
 10
3.216881
 20
9.670057
 30
0.0
 10
3.185763
 20
9.701174
 30
0.0
 10
3.168282
 20
9.743379
 30
0.0
 10
3.168282
 20
9.787385
 30
0.0
  0
SPLINE
  5
1f8
100
AcDbEntity
  8
Layer_1
 62
7
100
AcDbSpline
 70
8
 71
3
 72
8
 73
4
 74
0
 40
0
 40
0
 40
0
 40
0
 40
1
 40
1
 40
1
 40
1
 10
3.168282
 20
9.787385
 30
0.0
 10
3.168282
 20
9.831392
 30
0.0
 10
3.185763
 20
9.873596
 30
0.0
 10
3.216881
 20
9.904713
 30
0.0
  0
SPLINE
  5
1f9
100
AcDbEntity
  8
Layer_1
 62
7
100
AcDbSpline
 70
8
 71
3
 72
8
 73
4
 74
0
 40
0
 40
0
 40
0
 40
0
 40
1
 40
1
 40
1
 40
1
 10
3.216881
 20
9.904713
 30
0.0
 10
3.247998
 20
9.935831
 30
0.0
 10
3.290203
 20
9.953312
 30
0.0
 10
3.334209
 20
9.953312
 30
0.0
  0
SPLINE
  5
1fa
100
AcDbEntity
  8
Layer_1
 62
7
100
AcDbSpline
 70
8
 71
3
 72
8
 73
4
 74
0
 40
0
 40
0
 40
0
 40
0
 40
1
 40
1
 40
1
 40
1
 10
3.334209
 20
9.953312
 30
0.0
 10
3.425848
 20
9.953312
 30
0.0
 10
3.500136
 20
9.879024
 30
0.0
 10
3.500136
 20
9.787385
 30
0.0
  0
LWPOLYLINE
  5
1fb
100
AcDbEntity
  8
Layer_1
 62
7
100
AcDbPolyline
 90
2
 70
1
 10
3.430645
 20
9.787385
 30
0.0
 10
3.430645
 20
9.787385
 30
0.0
  0
SPLINE
  5
1fc
100
AcDbEntity
  8
Layer_1
 62
7
100
AcDbSpline
 70
8
 71
3
 72
8
 73
4
 74
0
 40
0
 40
0
 40
0
 40
0
 40
1
 40
1
 40
1
 40
1
 10
4.220896
 20
9.787385
 30
0.0
 10
4.220896
 20
9.695746
 30
0.0
 10
4.146608
 20
9.621458
 30
0.0
 10
4.054969
 20
9.621458
 30
0.0
  0
SPLINE
  5
1fd
100
AcDbEntity
  8
Layer_1
 62
7
100
AcDbSpline
 70
8
 71
3
 72
8
 73
4
 74
0
 40
0
 40
0
 40
0
 40
0
 40
1
 40
1
 40
1
 40
1
 10
4.054969
 20
9.621458
 30
0.0
 10
4.010963
 20
9.621458
 30
0.0
 10
3.968759
 20
9.638939
 30
0.0
 10
3.937641
 20
9.670057
 30
0.0
  0
SPLINE
  5
1fe
100
AcDbEntity
  8
Layer_1
 62
7
100
AcDbSpline
 70
8
 71
3
 72
8
 73
4
 74
0
 40
0
 40
0
 40
0
 40
0
 40
1
 40
1
 40
1
 40
1
 10
3.937641
 20
9.670057
 30
0.0
 10
3.906524
 20
9.701174
 30
0.0
 10
3.889042
 20
9.743378
 30
0.0
 10
3.889042
 20
9.787385
 30
0.0
  0
SPLINE
  5
1ff
100
AcDbEntity
  8
Layer_1
 62
7
100
AcDbSpline
 70
8
 71
3
 72
8
 73
4
 74
0
 40
0
 40
0
 40
0
 40
0
 40
1
 40
1
 40
1
 40
1
 10
3.889042
 20
9.787385
 30
0.0
 10
3.889042
 20
9.831392
 30
0.0
 10
3.906524
 20
9.873596
 30
0.0
 10
3.937641
 20
9.904713
 30
0.0
  0
SPLINE
  5
200
100
AcDbEntity
  8
Layer_1
 62
7
100
AcDbSpline
 70
8
 71
3
 72
8
 73
4
 74
0
 40
0
 40
0
 40
0
 40
0
 40
1
 40
1
 40
1
 40
1
 10
3.937641
 20
9.904713
 30
0.0
 10
3.968759
 20
9.935831
 30
0.0
 10
4.010963
 20
9.953312
 30
0.0
 10
4.054969
 20
9.953312
 30
0.0
  0
SPLINE
  5
201
100
AcDbEntity
  8
Layer_1
 62
7
100
AcDbSpline
 70
8
 71
3
 72
8
 73
4
 74
0
 40
0
 40
0
 40
0
 40
0
 40
1
 40
1
 40
1
 40
1
 10
4.054969
 20
9.953312
 30
0.0
 10
4.146608
 20
9.953312
 30
0.0
 10
4.220896
 20
9.879024
 30
0.0
 10
4.220896
 20
9.787385
 30
0.0
  0
LWPOLYLINE
  5
202
100
AcDbEntity
  8
Layer_1
 62
7
100
AcDbPolyline
 90
2
 70
1
 10
3.500136
 20
9.787385
 30
0.0
 10
3.500136
 20
9.787385
 30
0.0
  0
SPLINE
  5
203
100
AcDbEntity
  8
Layer_1
 62
7
100
AcDbSpline
 70
8
 71
3
 72
8
 73
4
 74
0
 40
0
 40
0
 40
0
 40
0
 40
1
 40
1
 40
1
 40
1
 10
3.500136
 20
8.834180
 30
0.0
 10
3.500136
 20
8.742541
 30
0.0
 10
3.425848
 20
8.668253
 30
0.0
 10
3.334209
 20
8.668253
 30
0.0
  0
SPLINE
  5
204
100
AcDbEntity
  8
Layer_1
 62
7
100
AcDbSpline
 70
8
 71
3
 72
8
 73
4
 74
0
 40
0
 40
0
 40
0
 40
0
 40
1
 40
1
 40
1
 40
1
 10
3.334209
 20
8.668253
 30
0.0
 10
3.290203
 20
8.668253
 30
0.0
 10
3.247998
 20
8.685734
 30
0.0
 10
3.216881
 20
8.716852
 30
0.0
  0
SPLINE
  5
205
100
AcDbEntity
  8
Layer_1
 62
7
100
AcDbSpline
 70
8
 71
3
 72
8
 73
4
 74
0
 40
0
 40
0
 40
0
 40
0
 40
1
 40
1
 40
1
 40
1
 10
3.216881
 20
8.716852
 30
0.0
 10
3.185763
 20
8.747969
 30
0.0
 10
3.168282
 20
8.790174
 30
0.0
 10
3.168282
 20
8.834180
 30
0.0
  0
SPLINE
  5
206
100
AcDbEntity
  8
Layer_1
 62
7
100
AcDbSpline
 70
8
 71
3
 72
8
 73
4
 74
0
 40
0
 40
0
 40
0
 40
0
 40
1
 40
1
 40
1
 40
1
 10
3.168282
 20
8.834180
 30
0.0
 10
3.168282
 20
8.878187
 30
0.0
 10
3.185763
 20
8.920391
 30
0.0
 10
3.216881
 20
8.951508
 30
0.0
  0
SPLINE
  5
207
100
AcDbEntity
  8
Layer_1
 62
7
100
AcDbSpline
 70
8
 71
3
 72
8
 73
4
 74
0
 40
0
 40
0
 40
0
 40
0
 40
1
 40
1
 40
1
 40
1
 10
3.216881
 20
8.951508
 30
0.0
 10
3.247998
 20
8.982626
 30
0.0
 10
3.290203
 20
9.000107
 30
0.0
 10
3.334209
 20
9.000107
 30
0.0
  0
SPLINE
  5
208
100
AcDbEntity
  8
Layer_1
 62
7
100
AcDbSpline
 70
8
 71
3
 72
8
 73
4
 74
0
 40
0
 40
0
 40
0
 40
0
 40
1
 40
1
 40
1
 40
1
 10
3.334209
 20
9.000107
 30
0.0
 10
3.425848
 20
9.000107
 30
0.0
 10
3.500136
 20
8.925819
 30
0.0
 10
3.500136
 20
8.834180
 30
0.0
  0
LWPOLYLINE
  5
209
100
AcDbEntity
  8
Layer_1
 62
7
100
AcDbPolyline
 90
2
 70
1
 10
4.220896
 20
9.787385
 30
0.0
 10
4.220896
 20
9.787385
 30
0.0
  0
SPLINE
  5
20a
100
AcDbEntity
  8
Layer_1
 62
7
100
AcDbSpline
 70
8
 71
3
 72
8
 73
4
 74
0
 40
0
 40
0
 40
0
 40
0
 40
1
 40
1
 40
1
 40
1
 10
4.220896
 20
8.834180
 30
0.0
 10
4.220896
 20
8.742541
 30
0.0
 10
4.146608
 20
8.668253
 30
0.0
 10
4.054969
 20
8.668253
 30
0.0
  0
SPLINE
  5
20b
100
AcDbEntity
  8
Layer_1
 62
7
100
AcDbSpline
 70
8
 71
3
 72
8
 73
4
 74
0
 40
0
 40
0
 40
0
 40
0
 40
1
 40
1
 40
1
 40
1
 10
4.054969
 20
8.668253
 30
0.0
 10
4.010963
 20
8.668253
 30
0.0
 10
3.968759
 20
8.685734
 30
0.0
 10
3.937641
 20
8.716852
 30
0.0
  0
SPLINE
  5
20c
100
AcDbEntity
  8
Layer_1
 62
7
100
AcDbSpline
 70
8
 71
3
 72
8
 73
4
 74
0
 40
0
 40
0
 40
0
 40
0
 40
1
 40
1
 40
1
 40
1
 10
3.937641
 20
8.716852
 30
0.0
 10
3.906524
 20
8.747969
 30
0.0
 10
3.889042
 20
8.790174
 30
0.0
 10
3.889042
 20
8.834180
 30
0.0
  0
SPLINE
  5
20d
100
AcDbEntity
  8
Layer_1
 62
7
100
AcDbSpline
 70
8
 71
3
 72
8
 73
4
 74
0
 40
0
 40
0
 40
0
 40
0
 40
1
 40
1
 40
1
 40
1
 10
3.889042
 20
8.834180
 30
0.0
 10
3.889042
 20
8.878187
 30
0.0
 10
3.906524
 20
8.920391
 30
0.0
 10
3.937641
 20
8.951508
 30
0.0
  0
SPLINE
  5
20e
100
AcDbEntity
  8
Layer_1
 62
7
100
AcDbSpline
 70
8
 71
3
 72
8
 73
4
 74
0
 40
0
 40
0
 40
0
 40
0
 40
1
 40
1
 40
1
 40
1
 10
3.937641
 20
8.951508
 30
0.0
 10
3.968759
 20
8.982626
 30
0.0
 10
4.010963
 20
9.000107
 30
0.0
 10
4.054969
 20
9.000107
 30
0.0
  0
SPLINE
  5
20f
100
AcDbEntity
  8
Layer_1
 62
7
100
AcDbSpline
 70
8
 71
3
 72
8
 73
4
 74
0
 40
0
 40
0
 40
0
 40
0
 40
1
 40
1
 40
1
 40
1
 10
4.054969
 20
9.000107
 30
0.0
 10
4.146608
 20
9.000107
 30
0.0
 10
4.220896
 20
8.925819
 30
0.0
 10
4.220896
 20
8.834180
 30
0.0
  0
LWPOLYLINE
  5
210
100
AcDbEntity
  8
Layer_1
 62
7
100
AcDbPolyline
 90
2
 70
1
 10
3.500136
 20
8.834180
 30
0.0
 10
3.500136
 20
8.834180
 30
0.0
  0
LWPOLYLINE
  5
211
100
AcDbEntity
  8
Layer_1
 62
7
100
AcDbPolyline
 90
2
 70
1
 10
4.220896
 20
8.834180
 30
0.0
 10
4.220896
 20
8.834180
 30
0.0
  0
ENDSEC
  0
SECTION
  2
OBJECTS
  0
DICTIONARY
  5
C
330
0
100
AcDbDictionary
  3
ACAD_GROUP
350
D
  3
ACAD_MLINESTYLE
350
17
  0
DICTIONARY
  5
D
330
C
100
AcDbDictionary
  0
DICTIONARY
  5
1A
330
C
100
AcDbDictionary
  0
DICTIONARY
  5
17
330
C
100
AcDbDictionary
  3
STANDARD
350
18
  0
DICTIONARY
  5
19
330
C
100
AcDbDictionary
  0
ENDSEC
  0
EOF
