  0
SECTION
  2
HEADER
  9
$ACADVER
  1
AC1014
  9
$HANDSEED
  5
FFFF
  9
$MEASUREMENT
 70
     1
  0
ENDSEC
  0
SECTION
  2
TABLES
  0
TABLE
  2
VPORT
  5
8
330
0
100
AcDbSymbolTable
 70
     4
  0
VPORT
  5
2E
330
8
100
AcDbSymbolTableRecord
100
AcDbViewportTableRecord
  2
*ACTIVE
 70
     0
 10
0.0
 20
0.0
 11
1.0
 21
1.0
 12
210.0
 22
148.5
 13
0.0
 23
0.0
 14
10.0
 24
10.0
 15
10.0
 25
10.0
 16
0.0
 26
0.0
 36
1.0
 17
0.0
 27
0.0
 37
0.0
 40
341.0
 41
1.24
 42
50.0
 43
0.0
 44
0.0
 50
0.0
 51
0.0
 71
     0
 72
   100
 73
     1
 74
     3
 75
     0
 76
     0
 77
     0
 78
     0
  0
ENDTAB
  0
TABLE
  2
LTYPE
  5
5
330
0
100
AcDbSymbolTable
 70
     1
  0
LTYPE
  5
14
330
5
100
AcDbSymbolTableRecord
100
AcDbLinetypeTableRecord
  2
BYBLOCK
 70
     0
  3

 72
    65
 73
     0
 40
0.0
  0
LTYPE
  5
15
330
5
100
AcDbSymbolTableRecord
100
AcDbLinetypeTableRecord
  2
BYLAYER
 70
     0
  3

 72
    65
 73
     0
 40
0.0
  0
LTYPE
  5
16
330
5
100
AcDbSymbolTableRecord
100
AcDbLinetypeTableRecord
  2
CONTINUOUS
 70
     0
  3
Solid line
 72
    65
 73
     0
 40
0.0
  0
ENDTAB
  0
TABLE
  2
LAYER
  5
2
100
AcDbSymbolTable
 70
2
  0
LAYER
  5
50
100
AcDbSymbolTableRecord
100
AcDbLayerTableRecord
  2
0
 70
0
  6
CONTINUOUS
  0
LAYER
  5
51
100
AcDbSymbolTableRecord
100
AcDbLayerTableRecord
  2
Layer_1
 70
0
  6
CONTINUOUS
  0
ENDTAB
  0
TABLE
  2
STYLE
  5
3
330
0
100
AcDbSymbolTable
 70
     1
  0
STYLE
  5
11
330
3
100
AcDbSymbolTableRecord
100
AcDbTextStyleTableRecord
  2
STANDARD
 70
     0
 40
0.0
 41
1.0
 50
0.0
 71
     0
 42
2.5
  3
txt
  4

  0
ENDTAB
  0
TABLE
  2
VIEW
  5
6
330
0
100
AcDbSymbolTable
 70
     0
  0
ENDTAB
  0
TABLE
  2
UCS
  5
7
330
0
100
AcDbSymbolTable
 70
     0
  0
ENDTAB
  0
TABLE
  2
APPID
  5
9
330
0
100
AcDbSymbolTable
 70
     2
  0
APPID
  5
12
330
9
100
AcDbSymbolTableRecord
100
AcDbRegAppTableRecord
  2
ACAD
 70
     0
  0
ENDTAB
  0
TABLE
  2
DIMSTYLE
  5
A
330
0
100
AcDbSymbolTable
 70
     1
  0
DIMSTYLE
105
27
330
A
100
AcDbSymbolTableRecord
100
AcDbDimStyleTableRecord
  2
ISO-25
 70
     0
  3

  4

  5

  6

  7

 40
1.0
 41
2.5
 42
0.625
 43
3.75
 44
1.25
 45
0.0
 46
0.0
 47
0.0
 48
0.0
140
2.5
141
2.5
142
0.0
143
0.03937007874016
144
1.0
145
0.0
146
1.0
147
0.625
 71
     0
 72
     0
 73
     0
 74
     0
 75
     0
 76
     0
 77
     1
 78
     8
170
     0
171
     3
172
     1
173
     0
174
     0
175
     0
176
     0
177
     0
178
     0
270
     2
271
     2
272
     2
273
     2
274
     3
340
11
275
     0
280
     0
281
     0
282
     0
283
     0
284
     8
285
     0
286
     0
287
     3
288
     0
  0
ENDTAB
  0
TABLE
  2
BLOCK_RECORD
  5
1
330
0
100
AcDbSymbolTable
 70
     1
  0
BLOCK_RECORD
  5
1F
330
1
100
AcDbSymbolTableRecord
100
AcDbBlockTableRecord
  2
*MODEL_SPACE
  0
BLOCK_RECORD
  5
1B
330
1
100
AcDbSymbolTableRecord
100
AcDbBlockTableRecord
  2
*PAPER_SPACE
  0
ENDTAB
  0
ENDSEC
  0
SECTION
  2
BLOCKS
  0
BLOCK
  5
20
330
1F
100
AcDbEntity
  8
0
100
AcDbBlockBegin
  2
*MODEL_SPACE
 70
     0
 10
0.0
 20
0.0
 30
0.0
  3
*MODEL_SPACE
  1

  0
ENDBLK
  5
21
330
1F
100
AcDbEntity
  8
0
100
AcDbBlockEnd
  0
BLOCK
  5
1C
330
1B
100
AcDbEntity
 67
     1
  8
0
100
AcDbBlockBegin
  2
*PAPER_SPACE
  1

  0
ENDBLK
  5
1D
330
1B
100
AcDbEntity
 67
     1
  8
0
100
AcDbBlockEnd
  0
ENDSEC
  0
SECTION
  2
ENTITIES
  0
LWPOLYLINE
  5
100
100
AcDbEntity
  8
Layer_1
 62
4
100
AcDbPolyline
 90
5
 70
1
 10
1.167883
 20
11.378824
 30
0.0
 10
1.747883
 20
11.378824
 30
0.0
 10
1.747883
 20
10.553824
 30
0.0
 10
1.167883
 20
10.553824
 30
0.0
 10
1.167883
 20
11.378824
 30
0.0
  0
SPLINE
  5
101
100
AcDbEntity
  8
Layer_1
 62
4
100
AcDbSpline
 70
8
 71
3
 72
8
 73
4
 74
0
 40
0
 40
0
 40
0
 40
0
 40
1
 40
1
 40
1
 40
1
 10
2.981876
 20
11.540980
 30
0.0
 10
2.981876
 20
11.472520
 30
0.0
 10
2.926379
 20
11.417023
 30
0.0
 10
2.857919
 20
11.417023
 30
0.0
  0
SPLINE
  5
102
100
AcDbEntity
  8
Layer_1
 62
4
100
AcDbSpline
 70
8
 71
3
 72
8
 73
4
 74
0
 40
0
 40
0
 40
0
 40
0
 40
1
 40
1
 40
1
 40
1
 10
2.857919
 20
11.417023
 30
0.0
 10
2.825043
 20
11.417023
 30
0.0
 10
2.793514
 20
11.430082
 30
0.0
 10
2.770268
 20
11.453329
 30
0.0
  0
SPLINE
  5
103
100
AcDbEntity
  8
Layer_1
 62
4
100
AcDbSpline
 70
8
 71
3
 72
8
 73
4
 74
0
 40
0
 40
0
 40
0
 40
0
 40
1
 40
1
 40
1
 40
1
 10
2.770268
 20
11.453329
 30
0.0
 10
2.747021
 20
11.476575
 30
0.0
 10
2.733962
 20
11.508104
 30
0.0
 10
2.733962
 20
11.540980
 30
0.0
  0
SPLINE
  5
104
100
AcDbEntity
  8
Layer_1
 62
4
100
AcDbSpline
 70
8
 71
3
 72
8
 73
4
 74
0
 40
0
 40
0
 40
0
 40
0
 40
1
 40
1
 40
1
 40
1
 10
2.733962
 20
11.540980
 30
0.0
 10
2.733962
 20
11.573856
 30
0.0
 10
2.747021
 20
11.605385
 30
0.0
 10
2.770268
 20
11.628631
 30
0.0
  0
SPLINE
  5
105
100
AcDbEntity
  8
Layer_1
 62
4
100
AcDbSpline
 70
8
 71
3
 72
8
 73
4
 74
0
 40
0
 40
0
 40
0
 40
0
 40
1
 40
1
 40
1
 40
1
 10
2.770268
 20
11.628631
 30
0.0
 10
2.793514
 20
11.651878
 30
0.0
 10
2.825043
 20
11.664937
 30
0.0
 10
2.857919
 20
11.664937
 30
0.0
  0
SPLINE
  5
106
100
AcDbEntity
  8
Layer_1
 62
4
100
AcDbSpline
 70
8
 71
3
 72
8
 73
4
 74
0
 40
0
 40
0
 40
0
 40
0
 40
1
 40
1
 40
1
 40
1
 10
2.857919
 20
11.664937
 30
0.0
 10
2.926379
 20
11.664937
 30
0.0
 10
2.981876
 20
11.609440
 30
0.0
 10
2.981876
 20
11.540980
 30
0.0
  0
LWPOLYLINE
  5
107
100
AcDbEntity
  8
Layer_1
 62
4
100
AcDbPolyline
 90
5
 70
1
 10
3.141669
 20
11.733980
 30
0.0
 10
3.141669
 20
10.083980
 30
0.0
 10
2.574169
 20
10.083980
 30
0.0
 10
2.574169
 20
11.733980
 30
0.0
 10
3.141669
 20
11.733980
 30
0.0
  0
SPLINE
  5
108
100
AcDbEntity
  8
Layer_1
 62
4
100
AcDbSpline
 70
8
 71
3
 72
8
 73
4
 74
0
 40
0
 40
0
 40
0
 40
0
 40
1
 40
1
 40
1
 40
1
 10
2.982154
 20
10.276980
 30
0.0
 10
2.982154
 20
10.244104
 30
0.0
 10
2.969094
 20
10.212575
 30
0.0
 10
2.945848
 20
10.189329
 30
0.0
  0
SPLINE
  5
109
100
AcDbEntity
  8
Layer_1
 62
4
100
AcDbSpline
 70
8
 71
3
 72
8
 73
4
 74
0
 40
0
 40
0
 40
0
 40
0
 40
1
 40
1
 40
1
 40
1
 10
2.945848
 20
10.189329
 30
0.0
 10
2.922601
 20
10.166082
 30
0.0
 10
2.891072
 20
10.153023
 30
0.0
 10
2.858197
 20
10.153023
 30
0.0
  0
SPLINE
  5
10a
100
AcDbEntity
  8
Layer_1
 62
4
100
AcDbSpline
 70
8
 71
3
 72
8
 73
4
 74
0
 40
0
 40
0
 40
0
 40
0
 40
1
 40
1
 40
1
 40
1
 10
2.858197
 20
10.153023
 30
0.0
 10
2.825321
 20
10.153023
 30
0.0
 10
2.793792
 20
10.166082
 30
0.0
 10
2.770546
 20
10.189329
 30
0.0
  0
SPLINE
  5
10b
100
AcDbEntity
  8
Layer_1
 62
4
100
AcDbSpline
 70
8
 71
3
 72
8
 73
4
 74
0
 40
0
 40
0
 40
0
 40
0
 40
1
 40
1
 40
1
 40
1
 10
2.770546
 20
10.189329
 30
0.0
 10
2.747299
 20
10.212575
 30
0.0
 10
2.734239
 20
10.244104
 30
0.0
 10
2.734239
 20
10.276980
 30
0.0
  0
SPLINE
  5
10c
100
AcDbEntity
  8
Layer_1
 62
4
100
AcDbSpline
 70
8
 71
3
 72
8
 73
4
 74
0
 40
0
 40
0
 40
0
 40
0
 40
1
 40
1
 40
1
 40
1
 10
2.734239
 20
10.276980
 30
0.0
 10
2.734239
 20
10.345440
 30
0.0
 10
2.789737
 20
10.400937
 30
0.0
 10
2.858197
 20
10.400937
 30
0.0
  0
SPLINE
  5
10d
100
AcDbEntity
  8
Layer_1
 62
4
100
AcDbSpline
 70
8
 71
3
 72
8
 73
4
 74
0
 40
0
 40
0
 40
0
 40
0
 40
1
 40
1
 40
1
 40
1
 10
2.858197
 20
10.400937
 30
0.0
 10
2.926656
 20
10.400937
 30
0.0
 10
2.982154
 20
10.345440
 30
0.0
 10
2.982154
 20
10.276980
 30
0.0
  0
LWPOLYLINE
  5
10e
100
AcDbEntity
  8
Layer_1
 62
4
100
AcDbPolyline
 90
2
 70
1
 10
2.981876
 20
11.540980
 30
0.0
 10
2.981876
 20
11.540980
 30
0.0
  0
SPLINE
  5
10f
100
AcDbEntity
  8
Layer_1
 62
7
100
AcDbSpline
 70
8
 71
3
 72
8
 73
4
 74
0
 40
0
 40
0
 40
0
 40
0
 40
1
 40
1
 40
1
 40
1
 10
2.896961
 20
11.540980
 30
0.0
 10
2.896961
 20
11.530626
 30
0.0
 10
2.892847
 20
11.520695
 30
0.0
 10
2.885526
 20
11.513373
 30
0.0
  0
SPLINE
  5
110
100
AcDbEntity
  8
Layer_1
 62
7
100
AcDbSpline
 70
8
 71
3
 72
8
 73
4
 74
0
 40
0
 40
0
 40
0
 40
0
 40
1
 40
1
 40
1
 40
1
 10
2.885526
 20
11.513373
 30
0.0
 10
2.878204
 20
11.506052
 30
0.0
 10
2.868273
 20
11.501938
 30
0.0
 10
2.857919
 20
11.501938
 30
0.0
  0
SPLINE
  5
111
100
AcDbEntity
  8
Layer_1
 62
7
100
AcDbSpline
 70
8
 71
3
 72
8
 73
4
 74
0
 40
0
 40
0
 40
0
 40
0
 40
1
 40
1
 40
1
 40
1
 10
2.857919
 20
11.501938
 30
0.0
 10
2.836357
 20
11.501938
 30
0.0
 10
2.818877
 20
11.519418
 30
0.0
 10
2.818877
 20
11.540980
 30
0.0
  0
SPLINE
  5
112
100
AcDbEntity
  8
Layer_1
 62
7
100
AcDbSpline
 70
8
 71
3
 72
8
 73
4
 74
0
 40
0
 40
0
 40
0
 40
0
 40
1
 40
1
 40
1
 40
1
 10
2.818877
 20
11.540980
 30
0.0
 10
2.818877
 20
11.562542
 30
0.0
 10
2.836357
 20
11.580022
 30
0.0
 10
2.857919
 20
11.580022
 30
0.0
  0
SPLINE
  5
113
100
AcDbEntity
  8
Layer_1
 62
7
100
AcDbSpline
 70
8
 71
3
 72
8
 73
4
 74
0
 40
0
 40
0
 40
0
 40
0
 40
1
 40
1
 40
1
 40
1
 10
2.857919
 20
11.580022
 30
0.0
 10
2.868273
 20
11.580022
 30
0.0
 10
2.878204
 20
11.575908
 30
0.0
 10
2.885526
 20
11.568587
 30
0.0
  0
SPLINE
  5
114
100
AcDbEntity
  8
Layer_1
 62
7
100
AcDbSpline
 70
8
 71
3
 72
8
 73
4
 74
0
 40
0
 40
0
 40
0
 40
0
 40
1
 40
1
 40
1
 40
1
 10
2.885526
 20
11.568587
 30
0.0
 10
2.892847
 20
11.561265
 30
0.0
 10
2.896961
 20
11.551335
 30
0.0
 10
2.896961
 20
11.540980
 30
0.0
  0
LWPOLYLINE
  5
115
100
AcDbEntity
  8
Layer_1
 62
4
100
AcDbPolyline
 90
2
 70
1
 10
2.982154
 20
10.276980
 30
0.0
 10
2.982154
 20
10.276980
 30
0.0
  0
SPLINE
  5
116
100
AcDbEntity
  8
Layer_1
 62
7
100
AcDbSpline
 70
8
 71
3
 72
8
 73
4
 74
0
 40
0
 40
0
 40
0
 40
0
 40
1
 40
1
 40
1
 40
1
 10
2.897238
 20
10.276980
 30
0.0
 10
2.897238
 20
10.266625
 30
0.0
 10
2.893125
 20
10.256695
 30
0.0
 10
2.885803
 20
10.249373
 30
0.0
  0
SPLINE
  5
117
100
AcDbEntity
  8
Layer_1
 62
7
100
AcDbSpline
 70
8
 71
3
 72
8
 73
4
 74
0
 40
0
 40
0
 40
0
 40
0
 40
1
 40
1
 40
1
 40
1
 10
2.885803
 20
10.249373
 30
0.0
 10
2.878482
 20
10.242051
 30
0.0
 10
2.868551
 20
10.237938
 30
0.0
 10
2.858197
 20
10.237938
 30
0.0
  0
SPLINE
  5
118
100
AcDbEntity
  8
Layer_1
 62
7
100
AcDbSpline
 70
8
 71
3
 72
8
 73
4
 74
0
 40
0
 40
0
 40
0
 40
0
 40
1
 40
1
 40
1
 40
1
 10
2.858197
 20
10.237938
 30
0.0
 10
2.847842
 20
10.237938
 30
0.0
 10
2.837912
 20
10.242051
 30
0.0
 10
2.830590
 20
10.249373
 30
0.0
  0
SPLINE
  5
119
100
AcDbEntity
  8
Layer_1
 62
7
100
AcDbSpline
 70
8
 71
3
 72
8
 73
4
 74
0
 40
0
 40
0
 40
0
 40
0
 40
1
 40
1
 40
1
 40
1
 10
2.830590
 20
10.249373
 30
0.0
 10
2.823268
 20
10.256695
 30
0.0
 10
2.819155
 20
10.266625
 30
0.0
 10
2.819155
 20
10.276980
 30
0.0
  0
SPLINE
  5
11a
100
AcDbEntity
  8
Layer_1
 62
7
100
AcDbSpline
 70
8
 71
3
 72
8
 73
4
 74
0
 40
0
 40
0
 40
0
 40
0
 40
1
 40
1
 40
1
 40
1
 10
2.819155
 20
10.276980
 30
0.0
 10
2.819155
 20
10.298542
 30
0.0
 10
2.836635
 20
10.316022
 30
0.0
 10
2.858197
 20
10.316022
 30
0.0
  0
SPLINE
  5
11b
100
AcDbEntity
  8
Layer_1
 62
7
100
AcDbSpline
 70
8
 71
3
 72
8
 73
4
 74
0
 40
0
 40
0
 40
0
 40
0
 40
1
 40
1
 40
1
 40
1
 10
2.858197
 20
10.316022
 30
0.0
 10
2.868551
 20
10.316022
 30
0.0
 10
2.878482
 20
10.311908
 30
0.0
 10
2.885803
 20
10.304587
 30
0.0
  0
SPLINE
  5
11c
100
AcDbEntity
  8
Layer_1
 62
7
100
AcDbSpline
 70
8
 71
3
 72
8
 73
4
 74
0
 40
0
 40
0
 40
0
 40
0
 40
1
 40
1
 40
1
 40
1
 10
2.885803
 20
10.304587
 30
0.0
 10
2.893125
 20
10.297265
 30
0.0
 10
2.897238
 20
10.287334
 30
0.0
 10
2.897238
 20
10.276980
 30
0.0
  0
LWPOLYLINE
  5
11d
100
AcDbEntity
  8
Layer_1
 62
7
100
AcDbPolyline
 90
2
 70
1
 10
2.896961
 20
11.540980
 30
0.0
 10
2.896961
 20
11.540980
 30
0.0
  0
SPLINE
  5
11e
100
AcDbEntity
  8
Layer_1
 62
7
100
AcDbSpline
 70
8
 71
3
 72
8
 73
4
 74
0
 40
0
 40
0
 40
0
 40
0
 40
1
 40
1
 40
1
 40
1
 10
1.156147
 20
11.478249
 30
0.0
 10
1.156147
 20
11.454993
 30
0.0
 10
1.146908
 20
11.432688
 30
0.0
 10
1.130463
 20
11.416243
 30
0.0
  0
SPLINE
  5
11f
100
AcDbEntity
  8
Layer_1
 62
7
100
AcDbSpline
 70
8
 71
3
 72
8
 73
4
 74
0
 40
0
 40
0
 40
0
 40
0
 40
1
 40
1
 40
1
 40
1
 10
1.130463
 20
11.416243
 30
0.0
 10
1.114018
 20
11.399798
 30
0.0
 10
1.091714
 20
11.390560
 30
0.0
 10
1.068457
 20
11.390560
 30
0.0
  0
SPLINE
  5
120
100
AcDbEntity
  8
Layer_1
 62
7
100
AcDbSpline
 70
8
 71
3
 72
8
 73
4
 74
0
 40
0
 40
0
 40
0
 40
0
 40
1
 40
1
 40
1
 40
1
 10
1.068457
 20
11.390560
 30
0.0
 10
1.045201
 20
11.390560
 30
0.0
 10
1.022896
 20
11.399798
 30
0.0
 10
1.006452
 20
11.416243
 30
0.0
  0
SPLINE
  5
121
100
AcDbEntity
  8
Layer_1
 62
7
100
AcDbSpline
 70
8
 71
3
 72
8
 73
4
 74
0
 40
0
 40
0
 40
0
 40
0
 40
1
 40
1
 40
1
 40
1
 10
1.006452
 20
11.416243
 30
0.0
 10
0.990007
 20
11.432688
 30
0.0
 10
0.980768
 20
11.454993
 30
0.0
 10
0.980768
 20
11.478249
 30
0.0
  0
SPLINE
  5
122
100
AcDbEntity
  8
Layer_1
 62
7
100
AcDbSpline
 70
8
 71
3
 72
8
 73
4
 74
0
 40
0
 40
0
 40
0
 40
0
 40
1
 40
1
 40
1
 40
1
 10
0.980768
 20
11.478249
 30
0.0
 10
0.980768
 20
11.501506
 30
0.0
 10
0.990007
 20
11.523810
 30
0.0
 10
1.006452
 20
11.540255
 30
0.0
  0
SPLINE
  5
123
100
AcDbEntity
  8
Layer_1
 62
7
100
AcDbSpline
 70
8
 71
3
 72
8
 73
4
 74
0
 40
0
 40
0
 40
0
 40
0
 40
1
 40
1
 40
1
 40
1
 10
1.006452
 20
11.540255
 30
0.0
 10
1.022896
 20
11.556700
 30
0.0
 10
1.045201
 20
11.565939
 30
0.0
 10
1.068457
 20
11.565939
 30
0.0
  0
SPLINE
  5
124
100
AcDbEntity
  8
Layer_1
 62
7
100
AcDbSpline
 70
8
 71
3
 72
8
 73
4
 74
0
 40
0
 40
0
 40
0
 40
0
 40
1
 40
1
 40
1
 40
1
 10
1.068457
 20
11.565939
 30
0.0
 10
1.091714
 20
11.565939
 30
0.0
 10
1.114018
 20
11.556700
 30
0.0
 10
1.130463
 20
11.540255
 30
0.0
  0
SPLINE
  5
125
100
AcDbEntity
  8
Layer_1
 62
7
100
AcDbSpline
 70
8
 71
3
 72
8
 73
4
 74
0
 40
0
 40
0
 40
0
 40
0
 40
1
 40
1
 40
1
 40
1
 10
1.130463
 20
11.540255
 30
0.0
 10
1.146908
 20
11.523810
 30
0.0
 10
1.156147
 20
11.501506
 30
0.0
 10
1.156147
 20
11.478249
 30
0.0
  0
LWPOLYLINE
  5
126
100
AcDbEntity
  8
Layer_1
 62
7
100
AcDbPolyline
 90
2
 70
1
 10
2.897238
 20
10.276980
 30
0.0
 10
2.897238
 20
10.276980
 30
0.0
  0
SPLINE
  5
127
100
AcDbEntity
  8
Layer_1
 62
7
100
AcDbSpline
 70
8
 71
3
 72
8
 73
4
 74
0
 40
0
 40
0
 40
0
 40
0
 40
1
 40
1
 40
1
 40
1
 10
1.205103
 20
11.478249
 30
0.0
 10
1.205103
 20
11.402782
 30
0.0
 10
1.143925
 20
11.341603
 30
0.0
 10
1.068457
 20
11.341603
 30
0.0
  0
SPLINE
  5
128
100
AcDbEntity
  8
Layer_1
 62
7
100
AcDbSpline
 70
8
 71
3
 72
8
 73
4
 74
0
 40
0
 40
0
 40
0
 40
0
 40
1
 40
1
 40
1
 40
1
 10
1.068457
 20
11.341603
 30
0.0
 10
1.032217
 20
11.341603
 30
0.0
 10
0.997460
 20
11.356000
 30
0.0
 10
0.971834
 20
11.381626
 30
0.0
  0
SPLINE
  5
129
100
AcDbEntity
  8
Layer_1
 62
7
100
AcDbSpline
 70
8
 71
3
 72
8
 73
4
 74
0
 40
0
 40
0
 40
0
 40
0
 40
1
 40
1
 40
1
 40
1
 10
0.971834
 20
11.381626
 30
0.0
 10
0.946208
 20
11.407252
 30
0.0
 10
0.931811
 20
11.442008
 30
0.0
 10
0.931811
 20
11.478249
 30
0.0
  0
SPLINE
  5
12a
100
AcDbEntity
  8
Layer_1
 62
7
100
AcDbSpline
 70
8
 71
3
 72
8
 73
4
 74
0
 40
0
 40
0
 40
0
 40
0
 40
1
 40
1
 40
1
 40
1
 10
0.931811
 20
11.478249
 30
0.0
 10
0.931811
 20
11.514490
 30
0.0
 10
0.946208
 20
11.549246
 30
0.0
 10
0.971834
 20
11.574872
 30
0.0
  0
SPLINE
  5
12b
100
AcDbEntity
  8
Layer_1
 62
7
100
AcDbSpline
 70
8
 71
3
 72
8
 73
4
 74
0
 40
0
 40
0
 40
0
 40
0
 40
1
 40
1
 40
1
 40
1
 10
0.971834
 20
11.574872
 30
0.0
 10
0.997460
 20
11.600499
 30
0.0
 10
1.032217
 20
11.614895
 30
0.0
 10
1.068457
 20
11.614895
 30
0.0
  0
SPLINE
  5
12c
100
AcDbEntity
  8
Layer_1
 62
7
100
AcDbSpline
 70
8
 71
3
 72
8
 73
4
 74
0
 40
0
 40
0
 40
0
 40
0
 40
1
 40
1
 40
1
 40
1
 10
1.068457
 20
11.614895
 30
0.0
 10
1.143925
 20
11.614895
 30
0.0
 10
1.205103
 20
11.553717
 30
0.0
 10
1.205103
 20
11.478249
 30
0.0
  0
LWPOLYLINE
  5
12d
100
AcDbEntity
  8
Layer_1
 62
7
100
AcDbPolyline
 90
2
 70
1
 10
1.156147
 20
11.478249
 30
0.0
 10
1.156147
 20
11.478249
 30
0.0
  0
SPLINE
  5
12e
100
AcDbEntity
  8
Layer_1
 62
7
100
AcDbSpline
 70
8
 71
3
 72
8
 73
4
 74
0
 40
0
 40
0
 40
0
 40
0
 40
1
 40
1
 40
1
 40
1
 10
1.934997
 20
11.478249
 30
0.0
 10
1.934997
 20
11.429820
 30
0.0
 10
1.895737
 20
11.390560
 30
0.0
 10
1.847307
 20
11.390560
 30
0.0
  0
SPLINE
  5
12f
100
AcDbEntity
  8
Layer_1
 62
7
100
AcDbSpline
 70
8
 71
3
 72
8
 73
4
 74
0
 40
0
 40
0
 40
0
 40
0
 40
1
 40
1
 40
1
 40
1
 10
1.847307
 20
11.390560
 30
0.0
 10
1.824051
 20
11.390560
 30
0.0
 10
1.801747
 20
11.399798
 30
0.0
 10
1.785302
 20
11.416243
 30
0.0
  0
SPLINE
  5
130
100
AcDbEntity
  8
Layer_1
 62
7
100
AcDbSpline
 70
8
 71
3
 72
8
 73
4
 74
0
 40
0
 40
0
 40
0
 40
0
 40
1
 40
1
 40
1
 40
1
 10
1.785302
 20
11.416243
 30
0.0
 10
1.768857
 20
11.432688
 30
0.0
 10
1.759618
 20
11.454993
 30
0.0
 10
1.759618
 20
11.478249
 30
0.0
  0
SPLINE
  5
131
100
AcDbEntity
  8
Layer_1
 62
7
100
AcDbSpline
 70
8
 71
3
 72
8
 73
4
 74
0
 40
0
 40
0
 40
0
 40
0
 40
1
 40
1
 40
1
 40
1
 10
1.759618
 20
11.478249
 30
0.0
 10
1.759618
 20
11.501506
 30
0.0
 10
1.768857
 20
11.523810
 30
0.0
 10
1.785302
 20
11.540255
 30
0.0
  0
SPLINE
  5
132
100
AcDbEntity
  8
Layer_1
 62
7
100
AcDbSpline
 70
8
 71
3
 72
8
 73
4
 74
0
 40
0
 40
0
 40
0
 40
0
 40
1
 40
1
 40
1
 40
1
 10
1.785302
 20
11.540255
 30
0.0
 10
1.801746
 20
11.556700
 30
0.0
 10
1.824051
 20
11.565939
 30
0.0
 10
1.847307
 20
11.565939
 30
0.0
  0
SPLINE
  5
133
100
AcDbEntity
  8
Layer_1
 62
7
100
AcDbSpline
 70
8
 71
3
 72
8
 73
4
 74
0
 40
0
 40
0
 40
0
 40
0
 40
1
 40
1
 40
1
 40
1
 10
1.847307
 20
11.565939
 30
0.0
 10
1.895737
 20
11.565939
 30
0.0
 10
1.934997
 20
11.526679
 30
0.0
 10
1.934997
 20
11.478249
 30
0.0
  0
LWPOLYLINE
  5
134
100
AcDbEntity
  8
Layer_1
 62
7
100
AcDbPolyline
 90
2
 70
1
 10
1.205103
 20
11.478249
 30
0.0
 10
1.205103
 20
11.478249
 30
0.0
  0
SPLINE
  5
135
100
AcDbEntity
  8
Layer_1
 62
7
100
AcDbSpline
 70
8
 71
3
 72
8
 73
4
 74
0
 40
0
 40
0
 40
0
 40
0
 40
1
 40
1
 40
1
 40
1
 10
1.983953
 20
11.478249
 30
0.0
 10
1.983953
 20
11.442008
 30
0.0
 10
1.969557
 20
11.407252
 30
0.0
 10
1.943931
 20
11.381626
 30
0.0
  0
SPLINE
  5
136
100
AcDbEntity
  8
Layer_1
 62
7
100
AcDbSpline
 70
8
 71
3
 72
8
 73
4
 74
0
 40
0
 40
0
 40
0
 40
0
 40
1
 40
1
 40
1
 40
1
 10
1.943931
 20
11.381626
 30
0.0
 10
1.918304
 20
11.356000
 30
0.0
 10
1.883548
 20
11.341603
 30
0.0
 10
1.847307
 20
11.341603
 30
0.0
  0
SPLINE
  5
137
100
AcDbEntity
  8
Layer_1
 62
7
100
AcDbSpline
 70
8
 71
3
 72
8
 73
4
 74
0
 40
0
 40
0
 40
0
 40
0
 40
1
 40
1
 40
1
 40
1
 10
1.847307
 20
11.341603
 30
0.0
 10
1.811067
 20
11.341603
 30
0.0
 10
1.776310
 20
11.356000
 30
0.0
 10
1.750684
 20
11.381626
 30
0.0
  0
SPLINE
  5
138
100
AcDbEntity
  8
Layer_1
 62
7
100
AcDbSpline
 70
8
 71
3
 72
8
 73
4
 74
0
 40
0
 40
0
 40
0
 40
0
 40
1
 40
1
 40
1
 40
1
 10
1.750684
 20
11.381626
 30
0.0
 10
1.725058
 20
11.407252
 30
0.0
 10
1.710661
 20
11.442008
 30
0.0
 10
1.710661
 20
11.478249
 30
0.0
  0
SPLINE
  5
139
100
AcDbEntity
  8
Layer_1
 62
7
100
AcDbSpline
 70
8
 71
3
 72
8
 73
4
 74
0
 40
0
 40
0
 40
0
 40
0
 40
1
 40
1
 40
1
 40
1
 10
1.710661
 20
11.478249
 30
0.0
 10
1.710661
 20
11.514490
 30
0.0
 10
1.725058
 20
11.549246
 30
0.0
 10
1.750684
 20
11.574872
 30
0.0
  0
SPLINE
  5
13a
100
AcDbEntity
  8
Layer_1
 62
7
100
AcDbSpline
 70
8
 71
3
 72
8
 73
4
 74
0
 40
0
 40
0
 40
0
 40
0
 40
1
 40
1
 40
1
 40
1
 10
1.750684
 20
11.574872
 30
0.0
 10
1.776310
 20
11.600499
 30
0.0
 10
1.811067
 20
11.614895
 30
0.0
 10
1.847307
 20
11.614895
 30
0.0
  0
SPLINE
  5
13b
100
AcDbEntity
  8
Layer_1
 62
7
100
AcDbSpline
 70
8
 71
3
 72
8
 73
4
 74
0
 40
0
 40
0
 40
0
 40
0
 40
1
 40
1
 40
1
 40
1
 10
1.847307
 20
11.614895
 30
0.0
 10
1.883548
 20
11.614895
 30
0.0
 10
1.918304
 20
11.600499
 30
0.0
 10
1.943931
 20
11.574872
 30
0.0
  0
SPLINE
  5
13c
100
AcDbEntity
  8
Layer_1
 62
7
100
AcDbSpline
 70
8
 71
3
 72
8
 73
4
 74
0
 40
0
 40
0
 40
0
 40
0
 40
1
 40
1
 40
1
 40
1
 10
1.943931
 20
11.574872
 30
0.0
 10
1.969557
 20
11.549246
 30
0.0
 10
1.983953
 20
11.514490
 30
0.0
 10
1.983953
 20
11.478249
 30
0.0
  0
LWPOLYLINE
  5
13d
100
AcDbEntity
  8
Layer_1
 62
7
100
AcDbPolyline
 90
2
 70
1
 10
1.934997
 20
11.478249
 30
0.0
 10
1.934997
 20
11.478249
 30
0.0
  0
SPLINE
  5
13e
100
AcDbEntity
  8
Layer_1
 62
7
100
AcDbSpline
 70
8
 71
3
 72
8
 73
4
 74
0
 40
0
 40
0
 40
0
 40
0
 40
1
 40
1
 40
1
 40
1
 10
1.156147
 20
10.454399
 30
0.0
 10
1.156147
 20
10.405969
 30
0.0
 10
1.116887
 20
10.366709
 30
0.0
 10
1.068457
 20
10.366709
 30
0.0
  0
SPLINE
  5
13f
100
AcDbEntity
  8
Layer_1
 62
7
100
AcDbSpline
 70
8
 71
3
 72
8
 73
4
 74
0
 40
0
 40
0
 40
0
 40
0
 40
1
 40
1
 40
1
 40
1
 10
1.068457
 20
10.366709
 30
0.0
 10
1.020028
 20
10.366709
 30
0.0
 10
0.980768
 20
10.405969
 30
0.0
 10
0.980768
 20
10.454399
 30
0.0
  0
SPLINE
  5
140
100
AcDbEntity
  8
Layer_1
 62
7
100
AcDbSpline
 70
8
 71
3
 72
8
 73
4
 74
0
 40
0
 40
0
 40
0
 40
0
 40
1
 40
1
 40
1
 40
1
 10
0.980768
 20
10.454399
 30
0.0
 10
0.980768
 20
10.477655
 30
0.0
 10
0.990007
 20
10.499960
 30
0.0
 10
1.006451
 20
10.516405
 30
0.0
  0
SPLINE
  5
141
100
AcDbEntity
  8
Layer_1
 62
7
100
AcDbSpline
 70
8
 71
3
 72
8
 73
4
 74
0
 40
0
 40
0
 40
0
 40
0
 40
1
 40
1
 40
1
 40
1
 10
1.006451
 20
10.516405
 30
0.0
 10
1.022896
 20
10.532850
 30
0.0
 10
1.045201
 20
10.542088
 30
0.0
 10
1.068457
 20
10.542088
 30
0.0
  0
SPLINE
  5
142
100
AcDbEntity
  8
Layer_1
 62
7
100
AcDbSpline
 70
8
 71
3
 72
8
 73
4
 74
0
 40
0
 40
0
 40
0
 40
0
 40
1
 40
1
 40
1
 40
1
 10
1.068457
 20
10.542088
 30
0.0
 10
1.091714
 20
10.542088
 30
0.0
 10
1.114018
 20
10.532850
 30
0.0
 10
1.130463
 20
10.516405
 30
0.0
  0
SPLINE
  5
143
100
AcDbEntity
  8
Layer_1
 62
7
100
AcDbSpline
 70
8
 71
3
 72
8
 73
4
 74
0
 40
0
 40
0
 40
0
 40
0
 40
1
 40
1
 40
1
 40
1
 10
1.130463
 20
10.516405
 30
0.0
 10
1.146908
 20
10.499960
 30
0.0
 10
1.156147
 20
10.477655
 30
0.0
 10
1.156147
 20
10.454399
 30
0.0
  0
LWPOLYLINE
  5
144
100
AcDbEntity
  8
Layer_1
 62
7
100
AcDbPolyline
 90
2
 70
1
 10
1.983953
 20
11.478249
 30
0.0
 10
1.983953
 20
11.478249
 30
0.0
  0
SPLINE
  5
145
100
AcDbEntity
  8
Layer_1
 62
7
100
AcDbSpline
 70
8
 71
3
 72
8
 73
4
 74
0
 40
0
 40
0
 40
0
 40
0
 40
1
 40
1
 40
1
 40
1
 10
1.205103
 20
10.454399
 30
0.0
 10
1.205103
 20
10.378931
 30
0.0
 10
1.143925
 20
10.317753
 30
0.0
 10
1.068457
 20
10.317753
 30
0.0
  0
SPLINE
  5
146
100
AcDbEntity
  8
Layer_1
 62
7
100
AcDbSpline
 70
8
 71
3
 72
8
 73
4
 74
0
 40
0
 40
0
 40
0
 40
0
 40
1
 40
1
 40
1
 40
1
 10
1.068457
 20
10.317753
 30
0.0
 10
1.032217
 20
10.317753
 30
0.0
 10
0.997460
 20
10.332149
 30
0.0
 10
0.971834
 20
10.357776
 30
0.0
  0
SPLINE
  5
147
100
AcDbEntity
  8
Layer_1
 62
7
100
AcDbSpline
 70
8
 71
3
 72
8
 73
4
 74
0
 40
0
 40
0
 40
0
 40
0
 40
1
 40
1
 40
1
 40
1
 10
0.971834
 20
10.357776
 30
0.0
 10
0.946208
 20
10.383402
 30
0.0
 10
0.931811
 20
10.418158
 30
0.0
 10
0.931811
 20
10.454399
 30
0.0
  0
SPLINE
  5
148
100
AcDbEntity
  8
Layer_1
 62
7
100
AcDbSpline
 70
8
 71
3
 72
8
 73
4
 74
0
 40
0
 40
0
 40
0
 40
0
 40
1
 40
1
 40
1
 40
1
 10
0.931811
 20
10.454399
 30
0.0
 10
0.931811
 20
10.490640
 30
0.0
 10
0.946208
 20
10.525396
 30
0.0
 10
0.971834
 20
10.551022
 30
0.0
  0
SPLINE
  5
149
100
AcDbEntity
  8
Layer_1
 62
7
100
AcDbSpline
 70
8
 71
3
 72
8
 73
4
 74
0
 40
0
 40
0
 40
0
 40
0
 40
1
 40
1
 40
1
 40
1
 10
0.971834
 20
10.551022
 30
0.0
 10
0.997460
 20
10.576648
 30
0.0
 10
1.032217
 20
10.591045
 30
0.0
 10
1.068457
 20
10.591045
 30
0.0
  0
SPLINE
  5
14a
100
AcDbEntity
  8
Layer_1
 62
7
100
AcDbSpline
 70
8
 71
3
 72
8
 73
4
 74
0
 40
0
 40
0
 40
0
 40
0
 40
1
 40
1
 40
1
 40
1
 10
1.068457
 20
10.591045
 30
0.0
 10
1.104698
 20
10.591045
 30
0.0
 10
1.139454
 20
10.576648
 30
0.0
 10
1.165081
 20
10.551022
 30
0.0
  0
SPLINE
  5
14b
100
AcDbEntity
  8
Layer_1
 62
7
100
AcDbSpline
 70
8
 71
3
 72
8
 73
4
 74
0
 40
0
 40
0
 40
0
 40
0
 40
1
 40
1
 40
1
 40
1
 10
1.165081
 20
10.551022
 30
0.0
 10
1.190707
 20
10.525396
 30
0.0
 10
1.205103
 20
10.490640
 30
0.0
 10
1.205103
 20
10.454399
 30
0.0
  0
LWPOLYLINE
  5
14c
100
AcDbEntity
  8
Layer_1
 62
7
100
AcDbPolyline
 90
2
 70
1
 10
1.156147
 20
10.454399
 30
0.0
 10
1.156147
 20
10.454399
 30
0.0
  0
SPLINE
  5
14d
100
AcDbEntity
  8
Layer_1
 62
7
100
AcDbSpline
 70
8
 71
3
 72
8
 73
4
 74
0
 40
0
 40
0
 40
0
 40
0
 40
1
 40
1
 40
1
 40
1
 10
1.934997
 20
10.454399
 30
0.0
 10
1.934997
 20
10.405969
 30
0.0
 10
1.895737
 20
10.366709
 30
0.0
 10
1.847307
 20
10.366709
 30
0.0
  0
SPLINE
  5
14e
100
AcDbEntity
  8
Layer_1
 62
7
100
AcDbSpline
 70
8
 71
3
 72
8
 73
4
 74
0
 40
0
 40
0
 40
0
 40
0
 40
1
 40
1
 40
1
 40
1
 10
1.847307
 20
10.366709
 30
0.0
 10
1.824051
 20
10.366709
 30
0.0
 10
1.801747
 20
10.375948
 30
0.0
 10
1.785302
 20
10.392393
 30
0.0
  0
SPLINE
  5
14f
100
AcDbEntity
  8
Layer_1
 62
7
100
AcDbSpline
 70
8
 71
3
 72
8
 73
4
 74
0
 40
0
 40
0
 40
0
 40
0
 40
1
 40
1
 40
1
 40
1
 10
1.785302
 20
10.392393
 30
0.0
 10
1.768857
 20
10.408838
 30
0.0
 10
1.759618
 20
10.431142
 30
0.0
 10
1.759618
 20
10.454399
 30
0.0
  0
SPLINE
  5
150
100
AcDbEntity
  8
Layer_1
 62
7
100
AcDbSpline
 70
8
 71
3
 72
8
 73
4
 74
0
 40
0
 40
0
 40
0
 40
0
 40
1
 40
1
 40
1
 40
1
 10
1.759618
 20
10.454399
 30
0.0
 10
1.759618
 20
10.477656
 30
0.0
 10
1.768857
 20
10.499960
 30
0.0
 10
1.785302
 20
10.516405
 30
0.0
  0
SPLINE
  5
151
100
AcDbEntity
  8
Layer_1
 62
7
100
AcDbSpline
 70
8
 71
3
 72
8
 73
4
 74
0
 40
0
 40
0
 40
0
 40
0
 40
1
 40
1
 40
1
 40
1
 10
1.785302
 20
10.516405
 30
0.0
 10
1.801746
 20
10.532850
 30
0.0
 10
1.824051
 20
10.542088
 30
0.0
 10
1.847307
 20
10.542088
 30
0.0
  0
SPLINE
  5
152
100
AcDbEntity
  8
Layer_1
 62
7
100
AcDbSpline
 70
8
 71
3
 72
8
 73
4
 74
0
 40
0
 40
0
 40
0
 40
0
 40
1
 40
1
 40
1
 40
1
 10
1.847307
 20
10.542088
 30
0.0
 10
1.870564
 20
10.542088
 30
0.0
 10
1.892868
 20
10.532850
 30
0.0
 10
1.909313
 20
10.516405
 30
0.0
  0
SPLINE
  5
153
100
AcDbEntity
  8
Layer_1
 62
7
100
AcDbSpline
 70
8
 71
3
 72
8
 73
4
 74
0
 40
0
 40
0
 40
0
 40
0
 40
1
 40
1
 40
1
 40
1
 10
1.909313
 20
10.516405
 30
0.0
 10
1.925758
 20
10.499960
 30
0.0
 10
1.934997
 20
10.477655
 30
0.0
 10
1.934997
 20
10.454399
 30
0.0
  0
LWPOLYLINE
  5
154
100
AcDbEntity
  8
Layer_1
 62
7
100
AcDbPolyline
 90
2
 70
1
 10
1.205103
 20
10.454399
 30
0.0
 10
1.205103
 20
10.454399
 30
0.0
  0
SPLINE
  5
155
100
AcDbEntity
  8
Layer_1
 62
7
100
AcDbSpline
 70
8
 71
3
 72
8
 73
4
 74
0
 40
0
 40
0
 40
0
 40
0
 40
1
 40
1
 40
1
 40
1
 10
1.983953
 20
10.454399
 30
0.0
 10
1.983953
 20
10.378931
 30
0.0
 10
1.922775
 20
10.317753
 30
0.0
 10
1.847307
 20
10.317753
 30
0.0
  0
SPLINE
  5
156
100
AcDbEntity
  8
Layer_1
 62
7
100
AcDbSpline
 70
8
 71
3
 72
8
 73
4
 74
0
 40
0
 40
0
 40
0
 40
0
 40
1
 40
1
 40
1
 40
1
 10
1.847307
 20
10.317753
 30
0.0
 10
1.771840
 20
10.317753
 30
0.0
 10
1.710661
 20
10.378931
 30
0.0
 10
1.710661
 20
10.454399
 30
0.0
  0
SPLINE
  5
157
100
AcDbEntity
  8
Layer_1
 62
7
100
AcDbSpline
 70
8
 71
3
 72
8
 73
4
 74
0
 40
0
 40
0
 40
0
 40
0
 40
1
 40
1
 40
1
 40
1
 10
1.710661
 20
10.454399
 30
0.0
 10
1.710661
 20
10.490640
 30
0.0
 10
1.725058
 20
10.525396
 30
0.0
 10
1.750684
 20
10.551022
 30
0.0
  0
SPLINE
  5
158
100
AcDbEntity
  8
Layer_1
 62
7
100
AcDbSpline
 70
8
 71
3
 72
8
 73
4
 74
0
 40
0
 40
0
 40
0
 40
0
 40
1
 40
1
 40
1
 40
1
 10
1.750684
 20
10.551022
 30
0.0
 10
1.776310
 20
10.576648
 30
0.0
 10
1.811067
 20
10.591045
 30
0.0
 10
1.847307
 20
10.591045
 30
0.0
  0
SPLINE
  5
159
100
AcDbEntity
  8
Layer_1
 62
7
100
AcDbSpline
 70
8
 71
3
 72
8
 73
4
 74
0
 40
0
 40
0
 40
0
 40
0
 40
1
 40
1
 40
1
 40
1
 10
1.847307
 20
10.591045
 30
0.0
 10
1.883548
 20
10.591045
 30
0.0
 10
1.918304
 20
10.576648
 30
0.0
 10
1.943931
 20
10.551022
 30
0.0
  0
SPLINE
  5
15a
100
AcDbEntity
  8
Layer_1
 62
7
100
AcDbSpline
 70
8
 71
3
 72
8
 73
4
 74
0
 40
0
 40
0
 40
0
 40
0
 40
1
 40
1
 40
1
 40
1
 10
1.943931
 20
10.551022
 30
0.0
 10
1.969557
 20
10.525396
 30
0.0
 10
1.983953
 20
10.490640
 30
0.0
 10
1.983953
 20
10.454399
 30
0.0
  0
LWPOLYLINE
  5
15b
100
AcDbEntity
  8
Layer_1
 62
7
100
AcDbPolyline
 90
2
 70
1
 10
1.934997
 20
10.454399
 30
0.0
 10
1.934997
 20
10.454399
 30
0.0
  0
LWPOLYLINE
  5
15c
100
AcDbEntity
  8
Layer_1
 62
7
100
AcDbPolyline
 90
2
 70
1
 10
1.983953
 20
10.454399
 30
0.0
 10
1.983953
 20
10.454399
 30
0.0
  0
ENDSEC
  0
SECTION
  2
OBJECTS
  0
DICTIONARY
  5
C
330
0
100
AcDbDictionary
  3
ACAD_GROUP
350
D
  3
ACAD_MLINESTYLE
350
17
  0
DICTIONARY
  5
D
330
C
100
AcDbDictionary
  0
DICTIONARY
  5
1A
330
C
100
AcDbDictionary
  0
DICTIONARY
  5
17
330
C
100
AcDbDictionary
  3
STANDARD
350
18
  0
DICTIONARY
  5
19
330
C
100
AcDbDictionary
  0
ENDSEC
  0
EOF
