  0
SECTION
  2
HEADER
  9
$ACADVER
  1
AC1014
  9
$HANDSEED
  5
FFFF
  9
$MEASUREMENT
 70
     1
  0
ENDSEC
  0
SECTION
  2
TABLES
  0
TABLE
  2
VPORT
  5
8
330
0
100
AcDbSymbolTable
 70
     4
  0
VPORT
  5
2E
330
8
100
AcDbSymbolTableRecord
100
AcDbViewportTableRecord
  2
*ACTIVE
 70
     0
 10
0.0
 20
0.0
 11
1.0
 21
1.0
 12
210.0
 22
148.5
 13
0.0
 23
0.0
 14
10.0
 24
10.0
 15
10.0
 25
10.0
 16
0.0
 26
0.0
 36
1.0
 17
0.0
 27
0.0
 37
0.0
 40
341.0
 41
1.24
 42
50.0
 43
0.0
 44
0.0
 50
0.0
 51
0.0
 71
     0
 72
   100
 73
     1
 74
     3
 75
     0
 76
     0
 77
     0
 78
     0
  0
ENDTAB
  0
TABLE
  2
LTYPE
  5
5
330
0
100
AcDbSymbolTable
 70
     1
  0
LTYPE
  5
14
330
5
100
AcDbSymbolTableRecord
100
AcDbLinetypeTableRecord
  2
BYBLOCK
 70
     0
  3

 72
    65
 73
     0
 40
0.0
  0
LTYPE
  5
15
330
5
100
AcDbSymbolTableRecord
100
AcDbLinetypeTableRecord
  2
BYLAYER
 70
     0
  3

 72
    65
 73
     0
 40
0.0
  0
LTYPE
  5
16
330
5
100
AcDbSymbolTableRecord
100
AcDbLinetypeTableRecord
  2
CONTINUOUS
 70
     0
  3
Solid line
 72
    65
 73
     0
 40
0.0
  0
ENDTAB
  0
TABLE
  2
LAYER
  5
2
100
AcDbSymbolTable
 70
2
  0
LAYER
  5
50
100
AcDbSymbolTableRecord
100
AcDbLayerTableRecord
  2
0
 70
0
  6
CONTINUOUS
  0
LAYER
  5
51
100
AcDbSymbolTableRecord
100
AcDbLayerTableRecord
  2
Layer_1
 70
0
  6
CONTINUOUS
  0
ENDTAB
  0
TABLE
  2
STYLE
  5
3
330
0
100
AcDbSymbolTable
 70
     1
  0
STYLE
  5
11
330
3
100
AcDbSymbolTableRecord
100
AcDbTextStyleTableRecord
  2
STANDARD
 70
     0
 40
0.0
 41
1.0
 50
0.0
 71
     0
 42
2.5
  3
txt
  4

  0
ENDTAB
  0
TABLE
  2
VIEW
  5
6
330
0
100
AcDbSymbolTable
 70
     0
  0
ENDTAB
  0
TABLE
  2
UCS
  5
7
330
0
100
AcDbSymbolTable
 70
     0
  0
ENDTAB
  0
TABLE
  2
APPID
  5
9
330
0
100
AcDbSymbolTable
 70
     2
  0
APPID
  5
12
330
9
100
AcDbSymbolTableRecord
100
AcDbRegAppTableRecord
  2
ACAD
 70
     0
  0
ENDTAB
  0
TABLE
  2
DIMSTYLE
  5
A
330
0
100
AcDbSymbolTable
 70
     1
  0
DIMSTYLE
105
27
330
A
100
AcDbSymbolTableRecord
100
AcDbDimStyleTableRecord
  2
ISO-25
 70
     0
  3

  4

  5

  6

  7

 40
1.0
 41
2.5
 42
0.625
 43
3.75
 44
1.25
 45
0.0
 46
0.0
 47
0.0
 48
0.0
140
2.5
141
2.5
142
0.0
143
0.03937007874016
144
1.0
145
0.0
146
1.0
147
0.625
 71
     0
 72
     0
 73
     0
 74
     0
 75
     0
 76
     0
 77
     1
 78
     8
170
     0
171
     3
172
     1
173
     0
174
     0
175
     0
176
     0
177
     0
178
     0
270
     2
271
     2
272
     2
273
     2
274
     3
340
11
275
     0
280
     0
281
     0
282
     0
283
     0
284
     8
285
     0
286
     0
287
     3
288
     0
  0
ENDTAB
  0
TABLE
  2
BLOCK_RECORD
  5
1
330
0
100
AcDbSymbolTable
 70
     1
  0
BLOCK_RECORD
  5
1F
330
1
100
AcDbSymbolTableRecord
100
AcDbBlockTableRecord
  2
*MODEL_SPACE
  0
BLOCK_RECORD
  5
1B
330
1
100
AcDbSymbolTableRecord
100
AcDbBlockTableRecord
  2
*PAPER_SPACE
  0
ENDTAB
  0
ENDSEC
  0
SECTION
  2
BLOCKS
  0
BLOCK
  5
20
330
1F
100
AcDbEntity
  8
0
100
AcDbBlockBegin
  2
*MODEL_SPACE
 70
     0
 10
0.0
 20
0.0
 30
0.0
  3
*MODEL_SPACE
  1

  0
ENDBLK
  5
21
330
1F
100
AcDbEntity
  8
0
100
AcDbBlockEnd
  0
BLOCK
  5
1C
330
1B
100
AcDbEntity
 67
     1
  8
0
100
AcDbBlockBegin
  2
*PAPER_SPACE
  1

  0
ENDBLK
  5
1D
330
1B
100
AcDbEntity
 67
     1
  8
0
100
AcDbBlockEnd
  0
ENDSEC
  0
SECTION
  2
ENTITIES
  0
SPLINE
  5
100
100
AcDbEntity
  8
Layer_1
 62
7
100
AcDbSpline
 70
8
 71
3
 72
8
 73
4
 74
0
 40
0
 40
0
 40
0
 40
0
 40
1
 40
1
 40
1
 40
1
 10
4.756896
 20
9.136748
 30
0.0
 10
4.793979
 20
9.136749
 30
0.0
 10
4.824040
 20
9.106687
 30
0.0
 10
4.824039
 20
9.069603
 30
0.0
  0
SPLINE
  5
101
100
AcDbEntity
  8
Layer_1
 62
7
100
AcDbSpline
 70
8
 71
3
 72
8
 73
4
 74
0
 40
0
 40
0
 40
0
 40
0
 40
1
 40
1
 40
1
 40
1
 10
4.824039
 20
9.069603
 30
0.0
 10
4.824040
 20
9.032520
 30
0.0
 10
4.793979
 20
9.002458
 30
0.0
 10
4.756896
 20
9.002459
 30
0.0
  0
SPLINE
  5
102
100
AcDbEntity
  8
Layer_1
 62
7
100
AcDbSpline
 70
8
 71
3
 72
8
 73
4
 74
0
 40
0
 40
0
 40
0
 40
0
 40
1
 40
1
 40
1
 40
1
 10
4.756896
 20
9.002459
 30
0.0
 10
4.719813
 20
9.002458
 30
0.0
 10
4.689750
 20
9.032520
 30
0.0
 10
4.689751
 20
9.069603
 30
0.0
  0
SPLINE
  5
103
100
AcDbEntity
  8
Layer_1
 62
7
100
AcDbSpline
 70
8
 71
3
 72
8
 73
4
 74
0
 40
0
 40
0
 40
0
 40
0
 40
1
 40
1
 40
1
 40
1
 10
4.689751
 20
9.069603
 30
0.0
 10
4.689750
 20
9.106687
 30
0.0
 10
4.719813
 20
9.136749
 30
0.0
 10
4.756896
 20
9.136748
 30
0.0
  0
SPLINE
  5
104
100
AcDbEntity
  8
Layer_1
 62
7
100
AcDbSpline
 70
8
 71
3
 72
8
 73
4
 74
0
 40
0
 40
0
 40
0
 40
0
 40
1
 40
1
 40
1
 40
1
 10
8.299604
 20
9.132255
 30
0.0
 10
8.336687
 20
9.132257
 30
0.0
 10
8.366748
 20
9.102194
 30
0.0
 10
8.366747
 20
9.065111
 30
0.0
  0
SPLINE
  5
105
100
AcDbEntity
  8
Layer_1
 62
7
100
AcDbSpline
 70
8
 71
3
 72
8
 73
4
 74
0
 40
0
 40
0
 40
0
 40
0
 40
1
 40
1
 40
1
 40
1
 10
8.366747
 20
9.065111
 30
0.0
 10
8.366748
 20
9.028028
 30
0.0
 10
8.336687
 20
8.997966
 30
0.0
 10
8.299604
 20
8.997967
 30
0.0
  0
SPLINE
  5
106
100
AcDbEntity
  8
Layer_1
 62
7
100
AcDbSpline
 70
8
 71
3
 72
8
 73
4
 74
0
 40
0
 40
0
 40
0
 40
0
 40
1
 40
1
 40
1
 40
1
 10
8.299604
 20
8.997967
 30
0.0
 10
8.262520
 20
8.997966
 30
0.0
 10
8.232458
 20
9.028028
 30
0.0
 10
8.232459
 20
9.065111
 30
0.0
  0
SPLINE
  5
107
100
AcDbEntity
  8
Layer_1
 62
7
100
AcDbSpline
 70
8
 71
3
 72
8
 73
4
 74
0
 40
0
 40
0
 40
0
 40
0
 40
1
 40
1
 40
1
 40
1
 10
8.232459
 20
9.065111
 30
0.0
 10
8.232458
 20
9.102194
 30
0.0
 10
8.262520
 20
9.132257
 30
0.0
 10
8.299604
 20
9.132255
 30
0.0
  0
LWPOLYLINE
  5
108
100
AcDbEntity
  8
Layer_1
 62
7
100
AcDbPolyline
 90
2
 70
1
 10
4.756896
 20
9.136748
 30
0.0
 10
4.756896
 20
9.136748
 30
0.0
  0
SPLINE
  5
109
100
AcDbEntity
  8
Layer_1
 62
7
100
AcDbSpline
 70
8
 71
3
 72
8
 73
4
 74
0
 40
0
 40
0
 40
0
 40
0
 40
1
 40
1
 40
1
 40
1
 10
4.771826
 20
7.473922
 30
0.0
 10
4.808909
 20
7.473923
 30
0.0
 10
4.838971
 20
7.443861
 30
0.0
 10
4.838970
 20
7.406778
 30
0.0
  0
SPLINE
  5
10a
100
AcDbEntity
  8
Layer_1
 62
7
100
AcDbSpline
 70
8
 71
3
 72
8
 73
4
 74
0
 40
0
 40
0
 40
0
 40
0
 40
1
 40
1
 40
1
 40
1
 10
4.838970
 20
7.406778
 30
0.0
 10
4.838971
 20
7.369695
 30
0.0
 10
4.808909
 20
7.339632
 30
0.0
 10
4.771826
 20
7.339634
 30
0.0
  0
SPLINE
  5
10b
100
AcDbEntity
  8
Layer_1
 62
7
100
AcDbSpline
 70
8
 71
3
 72
8
 73
4
 74
0
 40
0
 40
0
 40
0
 40
0
 40
1
 40
1
 40
1
 40
1
 10
4.771826
 20
7.339634
 30
0.0
 10
4.734743
 20
7.339632
 30
0.0
 10
4.704680
 20
7.369695
 30
0.0
 10
4.704681
 20
7.406778
 30
0.0
  0
SPLINE
  5
10c
100
AcDbEntity
  8
Layer_1
 62
7
100
AcDbSpline
 70
8
 71
3
 72
8
 73
4
 74
0
 40
0
 40
0
 40
0
 40
0
 40
1
 40
1
 40
1
 40
1
 10
4.704681
 20
7.406778
 30
0.0
 10
4.704680
 20
7.443861
 30
0.0
 10
4.734743
 20
7.473923
 30
0.0
 10
4.771826
 20
7.473922
 30
0.0
  0
LWPOLYLINE
  5
10d
100
AcDbEntity
  8
Layer_1
 62
7
100
AcDbPolyline
 90
2
 70
1
 10
8.299604
 20
9.132255
 30
0.0
 10
8.299604
 20
9.132255
 30
0.0
  0
SPLINE
  5
10e
100
AcDbEntity
  8
Layer_1
 62
7
100
AcDbSpline
 70
8
 71
3
 72
8
 73
4
 74
0
 40
0
 40
0
 40
0
 40
0
 40
1
 40
1
 40
1
 40
1
 10
8.299604
 20
7.473922
 30
0.0
 10
8.336687
 20
7.473923
 30
0.0
 10
8.366748
 20
7.443861
 30
0.0
 10
8.366747
 20
7.406778
 30
0.0
  0
SPLINE
  5
10f
100
AcDbEntity
  8
Layer_1
 62
7
100
AcDbSpline
 70
8
 71
3
 72
8
 73
4
 74
0
 40
0
 40
0
 40
0
 40
0
 40
1
 40
1
 40
1
 40
1
 10
8.366747
 20
7.406778
 30
0.0
 10
8.366748
 20
7.369695
 30
0.0
 10
8.336687
 20
7.339632
 30
0.0
 10
8.299604
 20
7.339634
 30
0.0
  0
SPLINE
  5
110
100
AcDbEntity
  8
Layer_1
 62
7
100
AcDbSpline
 70
8
 71
3
 72
8
 73
4
 74
0
 40
0
 40
0
 40
0
 40
0
 40
1
 40
1
 40
1
 40
1
 10
8.299604
 20
7.339634
 30
0.0
 10
8.262520
 20
7.339632
 30
0.0
 10
8.232458
 20
7.369695
 30
0.0
 10
8.232459
 20
7.406778
 30
0.0
  0
SPLINE
  5
111
100
AcDbEntity
  8
Layer_1
 62
7
100
AcDbSpline
 70
8
 71
3
 72
8
 73
4
 74
0
 40
0
 40
0
 40
0
 40
0
 40
1
 40
1
 40
1
 40
1
 10
8.232459
 20
7.406778
 30
0.0
 10
8.232458
 20
7.443861
 30
0.0
 10
8.262520
 20
7.473923
 30
0.0
 10
8.299604
 20
7.473922
 30
0.0
  0
LWPOLYLINE
  5
112
100
AcDbEntity
  8
Layer_1
 62
7
100
AcDbPolyline
 90
2
 70
1
 10
4.771826
 20
7.473922
 30
0.0
 10
4.771826
 20
7.473922
 30
0.0
  0
SPLINE
  5
113
100
AcDbEntity
  8
Layer_1
 62
7
100
AcDbSpline
 70
8
 71
3
 72
8
 73
4
 74
0
 40
0
 40
0
 40
0
 40
0
 40
1
 40
1
 40
1
 40
1
 10
5.110934
 20
8.846961
 30
0.0
 10
5.110934
 20
8.881127
 30
0.0
 10
5.136236
 20
8.909106
 30
0.0
 10
5.168046
 20
8.910163
 30
0.0
  0
LWPOLYLINE
  5
114
100
AcDbEntity
  8
Layer_1
 62
7
100
AcDbPolyline
 90
2
 70
1
 10
8.299604
 20
7.473922
 30
0.0
 10
8.299604
 20
7.473922
 30
0.0
  0
SPLINE
  5
115
100
AcDbEntity
  8
Layer_1
 62
7
100
AcDbSpline
 70
8
 71
3
 72
8
 73
4
 74
0
 40
0
 40
0
 40
0
 40
0
 40
1
 40
1
 40
1
 40
1
 10
7.888984
 20
8.910098
 30
0.0
 10
7.920564
 20
8.908746
 30
0.0
 10
7.945528
 20
8.880891
 30
0.0
 10
7.945570
 20
8.846961
 30
0.0
  0
LWPOLYLINE
  5
116
100
AcDbEntity
  8
Layer_1
 62
7
100
AcDbPolyline
 90
5
 70
0
 10
5.168046
 20
8.910163
 30
0.0
 10
5.168046
 20
8.910380
 30
0.0
 10
5.168046
 20
8.910380
 30
0.0
 10
7.888984
 20
8.910380
 30
0.0
 10
7.888984
 20
8.910098
 30
0.0
  0
SPLINE
  5
117
100
AcDbEntity
  8
Layer_1
 62
7
100
AcDbSpline
 70
8
 71
3
 72
8
 73
4
 74
0
 40
0
 40
0
 40
0
 40
0
 40
1
 40
1
 40
1
 40
1
 10
7.945681
 20
7.636170
 30
0.0
 10
7.945570
 20
7.592023
 30
0.0
 10
7.920621
 20
7.564142
 30
0.0
 10
7.889027
 20
7.562789
 30
0.0
  0
LWPOLYLINE
  5
118
100
AcDbEntity
  8
Layer_1
 62
7
100
AcDbPolyline
 90
2
 70
0
 10
7.945570
 20
8.846961
 30
0.0
 10
7.945681
 20
7.636170
 30
0.0
  0
SPLINE
  5
119
100
AcDbEntity
  8
Layer_1
 62
7
100
AcDbSpline
 70
8
 71
3
 72
8
 73
4
 74
0
 40
0
 40
0
 40
0
 40
0
 40
1
 40
1
 40
1
 40
1
 10
5.168088
 20
7.562789
 30
0.0
 10
5.136286
 20
7.563846
 30
0.0
 10
5.111007
 20
7.591811
 30
0.0
 10
5.112897
 20
7.631582
 30
0.0
  0
LWPOLYLINE
  5
11a
100
AcDbEntity
  8
Layer_1
 62
7
100
AcDbPolyline
 90
4
 70
0
 10
7.889027
 20
7.562789
 30
0.0
 10
7.889027
 20
7.561530
 30
0.0
 10
5.168088
 20
7.561530
 30
0.0
 10
5.168088
 20
7.562789
 30
0.0
  0
LWPOLYLINE
  5
11b
100
AcDbEntity
  8
Layer_1
 62
7
100
AcDbPolyline
 90
2
 70
0
 10
5.112897
 20
7.631582
 30
0.0
 10
5.110973
 20
8.846961
 30
0.0
  0
SPLINE
  5
11c
100
AcDbEntity
  8
Layer_1
 62
4
100
AcDbSpline
 70
8
 71
3
 72
8
 73
4
 74
0
 40
0
 40
0
 40
0
 40
0
 40
1
 40
1
 40
1
 40
1
 10
4.565266
 20
10.806834
 30
0.0
 10
4.565266
 20
10.738374
 30
0.0
 10
4.509768
 20
10.682877
 30
0.0
 10
4.441308
 20
10.682877
 30
0.0
  0
SPLINE
  5
11d
100
AcDbEntity
  8
Layer_1
 62
4
100
AcDbSpline
 70
8
 71
3
 72
8
 73
4
 74
0
 40
0
 40
0
 40
0
 40
0
 40
1
 40
1
 40
1
 40
1
 10
4.441308
 20
10.682877
 30
0.0
 10
4.408433
 20
10.682877
 30
0.0
 10
4.376904
 20
10.695936
 30
0.0
 10
4.353657
 20
10.719183
 30
0.0
  0
SPLINE
  5
11e
100
AcDbEntity
  8
Layer_1
 62
4
100
AcDbSpline
 70
8
 71
3
 72
8
 73
4
 74
0
 40
0
 40
0
 40
0
 40
0
 40
1
 40
1
 40
1
 40
1
 10
4.353657
 20
10.719183
 30
0.0
 10
4.330411
 20
10.742429
 30
0.0
 10
4.317351
 20
10.773958
 30
0.0
 10
4.317351
 20
10.806834
 30
0.0
  0
SPLINE
  5
11f
100
AcDbEntity
  8
Layer_1
 62
4
100
AcDbSpline
 70
8
 71
3
 72
8
 73
4
 74
0
 40
0
 40
0
 40
0
 40
0
 40
1
 40
1
 40
1
 40
1
 10
4.317351
 20
10.806834
 30
0.0
 10
4.317351
 20
10.839709
 30
0.0
 10
4.330411
 20
10.871239
 30
0.0
 10
4.353657
 20
10.894485
 30
0.0
  0
SPLINE
  5
120
100
AcDbEntity
  8
Layer_1
 62
4
100
AcDbSpline
 70
8
 71
3
 72
8
 73
4
 74
0
 40
0
 40
0
 40
0
 40
0
 40
1
 40
1
 40
1
 40
1
 10
4.353657
 20
10.894485
 30
0.0
 10
4.376904
 20
10.917732
 30
0.0
 10
4.408433
 20
10.930791
 30
0.0
 10
4.441308
 20
10.930791
 30
0.0
  0
SPLINE
  5
121
100
AcDbEntity
  8
Layer_1
 62
4
100
AcDbSpline
 70
8
 71
3
 72
8
 73
4
 74
0
 40
0
 40
0
 40
0
 40
0
 40
1
 40
1
 40
1
 40
1
 10
4.441308
 20
10.930791
 30
0.0
 10
4.509768
 20
10.930791
 30
0.0
 10
4.565266
 20
10.875294
 30
0.0
 10
4.565266
 20
10.806834
 30
0.0
  0
LWPOLYLINE
  5
122
100
AcDbEntity
  8
Layer_1
 62
4
100
AcDbPolyline
 90
5
 70
1
 10
4.725058
 20
10.999834
 30
0.0
 10
4.725058
 20
9.349834
 30
0.0
 10
4.157558
 20
9.349834
 30
0.0
 10
4.157558
 20
10.999834
 30
0.0
 10
4.725058
 20
10.999834
 30
0.0
  0
SPLINE
  5
123
100
AcDbEntity
  8
Layer_1
 62
4
100
AcDbSpline
 70
8
 71
3
 72
8
 73
4
 74
0
 40
0
 40
0
 40
0
 40
0
 40
1
 40
1
 40
1
 40
1
 10
4.565543
 20
9.542834
 30
0.0
 10
4.565543
 20
9.509958
 30
0.0
 10
4.552484
 20
9.478429
 30
0.0
 10
4.529237
 20
9.455183
 30
0.0
  0
SPLINE
  5
124
100
AcDbEntity
  8
Layer_1
 62
4
100
AcDbSpline
 70
8
 71
3
 72
8
 73
4
 74
0
 40
0
 40
0
 40
0
 40
0
 40
1
 40
1
 40
1
 40
1
 10
4.529237
 20
9.455183
 30
0.0
 10
4.505991
 20
9.431936
 30
0.0
 10
4.474462
 20
9.418876
 30
0.0
 10
4.441586
 20
9.418876
 30
0.0
  0
SPLINE
  5
125
100
AcDbEntity
  8
Layer_1
 62
4
100
AcDbSpline
 70
8
 71
3
 72
8
 73
4
 74
0
 40
0
 40
0
 40
0
 40
0
 40
1
 40
1
 40
1
 40
1
 10
4.441586
 20
9.418876
 30
0.0
 10
4.408710
 20
9.418876
 30
0.0
 10
4.377181
 20
9.431936
 30
0.0
 10
4.353935
 20
9.455183
 30
0.0
  0
SPLINE
  5
126
100
AcDbEntity
  8
Layer_1
 62
4
100
AcDbSpline
 70
8
 71
3
 72
8
 73
4
 74
0
 40
0
 40
0
 40
0
 40
0
 40
1
 40
1
 40
1
 40
1
 10
4.353935
 20
9.455183
 30
0.0
 10
4.330688
 20
9.478429
 30
0.0
 10
4.317629
 20
9.509958
 30
0.0
 10
4.317629
 20
9.542834
 30
0.0
  0
SPLINE
  5
127
100
AcDbEntity
  8
Layer_1
 62
4
100
AcDbSpline
 70
8
 71
3
 72
8
 73
4
 74
0
 40
0
 40
0
 40
0
 40
0
 40
1
 40
1
 40
1
 40
1
 10
4.317629
 20
9.542834
 30
0.0
 10
4.317629
 20
9.611294
 30
0.0
 10
4.373126
 20
9.666791
 30
0.0
 10
4.441586
 20
9.666791
 30
0.0
  0
SPLINE
  5
128
100
AcDbEntity
  8
Layer_1
 62
4
100
AcDbSpline
 70
8
 71
3
 72
8
 73
4
 74
0
 40
0
 40
0
 40
0
 40
0
 40
1
 40
1
 40
1
 40
1
 10
4.441586
 20
9.666791
 30
0.0
 10
4.510046
 20
9.666791
 30
0.0
 10
4.565543
 20
9.611294
 30
0.0
 10
4.565543
 20
9.542834
 30
0.0
  0
LWPOLYLINE
  5
129
100
AcDbEntity
  8
Layer_1
 62
4
100
AcDbPolyline
 90
2
 70
1
 10
4.565266
 20
10.806834
 30
0.0
 10
4.565266
 20
10.806834
 30
0.0
  0
SPLINE
  5
12a
100
AcDbEntity
  8
Layer_1
 62
7
100
AcDbSpline
 70
8
 71
3
 72
8
 73
4
 74
0
 40
0
 40
0
 40
0
 40
0
 40
1
 40
1
 40
1
 40
1
 10
4.504774
 20
10.806834
 30
0.0
 10
4.504774
 20
10.790002
 30
0.0
 10
4.498088
 20
10.773859
 30
0.0
 10
4.486186
 20
10.761957
 30
0.0
  0
SPLINE
  5
12b
100
AcDbEntity
  8
Layer_1
 62
7
100
AcDbSpline
 70
8
 71
3
 72
8
 73
4
 74
0
 40
0
 40
0
 40
0
 40
0
 40
1
 40
1
 40
1
 40
1
 10
4.486186
 20
10.761957
 30
0.0
 10
4.474283
 20
10.750054
 30
0.0
 10
4.458140
 20
10.743368
 30
0.0
 10
4.441308
 20
10.743368
 30
0.0
  0
SPLINE
  5
12c
100
AcDbEntity
  8
Layer_1
 62
7
100
AcDbSpline
 70
8
 71
3
 72
8
 73
4
 74
0
 40
0
 40
0
 40
0
 40
0
 40
1
 40
1
 40
1
 40
1
 10
4.441308
 20
10.743368
 30
0.0
 10
4.406257
 20
10.743368
 30
0.0
 10
4.377842
 20
10.771783
 30
0.0
 10
4.377842
 20
10.806834
 30
0.0
  0
SPLINE
  5
12d
100
AcDbEntity
  8
Layer_1
 62
7
100
AcDbSpline
 70
8
 71
3
 72
8
 73
4
 74
0
 40
0
 40
0
 40
0
 40
0
 40
1
 40
1
 40
1
 40
1
 10
4.377842
 20
10.806834
 30
0.0
 10
4.377842
 20
10.841885
 30
0.0
 10
4.406257
 20
10.870300
 30
0.0
 10
4.441308
 20
10.870300
 30
0.0
  0
SPLINE
  5
12e
100
AcDbEntity
  8
Layer_1
 62
7
100
AcDbSpline
 70
8
 71
3
 72
8
 73
4
 74
0
 40
0
 40
0
 40
0
 40
0
 40
1
 40
1
 40
1
 40
1
 10
4.441308
 20
10.870300
 30
0.0
 10
4.458140
 20
10.870300
 30
0.0
 10
4.474283
 20
10.863614
 30
0.0
 10
4.486186
 20
10.851711
 30
0.0
  0
SPLINE
  5
12f
100
AcDbEntity
  8
Layer_1
 62
7
100
AcDbSpline
 70
8
 71
3
 72
8
 73
4
 74
0
 40
0
 40
0
 40
0
 40
0
 40
1
 40
1
 40
1
 40
1
 10
4.486186
 20
10.851711
 30
0.0
 10
4.498088
 20
10.839809
 30
0.0
 10
4.504774
 20
10.823666
 30
0.0
 10
4.504774
 20
10.806834
 30
0.0
  0
LWPOLYLINE
  5
130
100
AcDbEntity
  8
Layer_1
 62
4
100
AcDbPolyline
 90
2
 70
1
 10
4.565543
 20
9.542834
 30
0.0
 10
4.565543
 20
9.542834
 30
0.0
  0
SPLINE
  5
131
100
AcDbEntity
  8
Layer_1
 62
7
100
AcDbSpline
 70
8
 71
3
 72
8
 73
4
 74
0
 40
0
 40
0
 40
0
 40
0
 40
1
 40
1
 40
1
 40
1
 10
4.505052
 20
9.542834
 30
0.0
 10
4.505052
 20
9.526002
 30
0.0
 10
4.498366
 20
9.509859
 30
0.0
 10
4.486463
 20
9.497956
 30
0.0
  0
SPLINE
  5
132
100
AcDbEntity
  8
Layer_1
 62
7
100
AcDbSpline
 70
8
 71
3
 72
8
 73
4
 74
0
 40
0
 40
0
 40
0
 40
0
 40
1
 40
1
 40
1
 40
1
 10
4.486463
 20
9.497956
 30
0.0
 10
4.474561
 20
9.486054
 30
0.0
 10
4.458418
 20
9.479368
 30
0.0
 10
4.441586
 20
9.479368
 30
0.0
  0
SPLINE
  5
133
100
AcDbEntity
  8
Layer_1
 62
7
100
AcDbSpline
 70
8
 71
3
 72
8
 73
4
 74
0
 40
0
 40
0
 40
0
 40
0
 40
1
 40
1
 40
1
 40
1
 10
4.441586
 20
9.479368
 30
0.0
 10
4.424754
 20
9.479368
 30
0.0
 10
4.408611
 20
9.486054
 30
0.0
 10
4.396709
 20
9.497956
 30
0.0
  0
SPLINE
  5
134
100
AcDbEntity
  8
Layer_1
 62
7
100
AcDbSpline
 70
8
 71
3
 72
8
 73
4
 74
0
 40
0
 40
0
 40
0
 40
0
 40
1
 40
1
 40
1
 40
1
 10
4.396709
 20
9.497956
 30
0.0
 10
4.384806
 20
9.509859
 30
0.0
 10
4.378120
 20
9.526002
 30
0.0
 10
4.378120
 20
9.542834
 30
0.0
  0
SPLINE
  5
135
100
AcDbEntity
  8
Layer_1
 62
7
100
AcDbSpline
 70
8
 71
3
 72
8
 73
4
 74
0
 40
0
 40
0
 40
0
 40
0
 40
1
 40
1
 40
1
 40
1
 10
4.378120
 20
9.542834
 30
0.0
 10
4.378120
 20
9.577885
 30
0.0
 10
4.406535
 20
9.606300
 30
0.0
 10
4.441586
 20
9.606300
 30
0.0
  0
SPLINE
  5
136
100
AcDbEntity
  8
Layer_1
 62
7
100
AcDbSpline
 70
8
 71
3
 72
8
 73
4
 74
0
 40
0
 40
0
 40
0
 40
0
 40
1
 40
1
 40
1
 40
1
 10
4.441586
 20
9.606300
 30
0.0
 10
4.476637
 20
9.606300
 30
0.0
 10
4.505052
 20
9.577885
 30
0.0
 10
4.505052
 20
9.542834
 30
0.0
  0
LWPOLYLINE
  5
137
100
AcDbEntity
  8
Layer_1
 62
7
100
AcDbPolyline
 90
2
 70
1
 10
4.504774
 20
10.806834
 30
0.0
 10
4.504774
 20
10.806834
 30
0.0
  0
LWPOLYLINE
  5
138
100
AcDbEntity
  8
Layer_1
 62
7
100
AcDbPolyline
 90
2
 70
1
 10
4.505052
 20
9.542834
 30
0.0
 10
4.505052
 20
9.542834
 30
0.0
  0
SPLINE
  5
139
100
AcDbEntity
  8
Layer_1
 62
4
100
AcDbSpline
 70
8
 71
3
 72
8
 73
4
 74
0
 40
0
 40
0
 40
0
 40
0
 40
1
 40
1
 40
1
 40
1
 10
4.565266
 20
6.929056
 30
0.0
 10
4.565266
 20
6.860596
 30
0.0
 10
4.509768
 20
6.805099
 30
0.0
 10
4.441308
 20
6.805099
 30
0.0
  0
SPLINE
  5
13a
100
AcDbEntity
  8
Layer_1
 62
4
100
AcDbSpline
 70
8
 71
3
 72
8
 73
4
 74
0
 40
0
 40
0
 40
0
 40
0
 40
1
 40
1
 40
1
 40
1
 10
4.441308
 20
6.805099
 30
0.0
 10
4.408433
 20
6.805099
 30
0.0
 10
4.376904
 20
6.818158
 30
0.0
 10
4.353657
 20
6.841405
 30
0.0
  0
SPLINE
  5
13b
100
AcDbEntity
  8
Layer_1
 62
4
100
AcDbSpline
 70
8
 71
3
 72
8
 73
4
 74
0
 40
0
 40
0
 40
0
 40
0
 40
1
 40
1
 40
1
 40
1
 10
4.353657
 20
6.841405
 30
0.0
 10
4.330411
 20
6.864651
 30
0.0
 10
4.317351
 20
6.896181
 30
0.0
 10
4.317351
 20
6.929056
 30
0.0
  0
SPLINE
  5
13c
100
AcDbEntity
  8
Layer_1
 62
4
100
AcDbSpline
 70
8
 71
3
 72
8
 73
4
 74
0
 40
0
 40
0
 40
0
 40
0
 40
1
 40
1
 40
1
 40
1
 10
4.317351
 20
6.929056
 30
0.0
 10
4.317351
 20
6.961932
 30
0.0
 10
4.330411
 20
6.993461
 30
0.0
 10
4.353657
 20
7.016707
 30
0.0
  0
SPLINE
  5
13d
100
AcDbEntity
  8
Layer_1
 62
4
100
AcDbSpline
 70
8
 71
3
 72
8
 73
4
 74
0
 40
0
 40
0
 40
0
 40
0
 40
1
 40
1
 40
1
 40
1
 10
4.353657
 20
7.016707
 30
0.0
 10
4.376904
 20
7.039954
 30
0.0
 10
4.408433
 20
7.053013
 30
0.0
 10
4.441308
 20
7.053013
 30
0.0
  0
SPLINE
  5
13e
100
AcDbEntity
  8
Layer_1
 62
4
100
AcDbSpline
 70
8
 71
3
 72
8
 73
4
 74
0
 40
0
 40
0
 40
0
 40
0
 40
1
 40
1
 40
1
 40
1
 10
4.441308
 20
7.053013
 30
0.0
 10
4.509768
 20
7.053013
 30
0.0
 10
4.565266
 20
6.997516
 30
0.0
 10
4.565266
 20
6.929056
 30
0.0
  0
LWPOLYLINE
  5
13f
100
AcDbEntity
  8
Layer_1
 62
4
100
AcDbPolyline
 90
5
 70
1
 10
4.725058
 20
7.122056
 30
0.0
 10
4.725058
 20
5.472056
 30
0.0
 10
4.157558
 20
5.472056
 30
0.0
 10
4.157558
 20
7.122056
 30
0.0
 10
4.725058
 20
7.122056
 30
0.0
  0
SPLINE
  5
140
100
AcDbEntity
  8
Layer_1
 62
4
100
AcDbSpline
 70
8
 71
3
 72
8
 73
4
 74
0
 40
0
 40
0
 40
0
 40
0
 40
1
 40
1
 40
1
 40
1
 10
4.565543
 20
5.665056
 30
0.0
 10
4.565543
 20
5.632180
 30
0.0
 10
4.552484
 20
5.600651
 30
0.0
 10
4.529237
 20
5.577405
 30
0.0
  0
SPLINE
  5
141
100
AcDbEntity
  8
Layer_1
 62
4
100
AcDbSpline
 70
8
 71
3
 72
8
 73
4
 74
0
 40
0
 40
0
 40
0
 40
0
 40
1
 40
1
 40
1
 40
1
 10
4.529237
 20
5.577405
 30
0.0
 10
4.505991
 20
5.554158
 30
0.0
 10
4.474462
 20
5.541099
 30
0.0
 10
4.441586
 20
5.541098
 30
0.0
  0
SPLINE
  5
142
100
AcDbEntity
  8
Layer_1
 62
4
100
AcDbSpline
 70
8
 71
3
 72
8
 73
4
 74
0
 40
0
 40
0
 40
0
 40
0
 40
1
 40
1
 40
1
 40
1
 10
4.441586
 20
5.541098
 30
0.0
 10
4.408710
 20
5.541099
 30
0.0
 10
4.377181
 20
5.554158
 30
0.0
 10
4.353935
 20
5.577405
 30
0.0
  0
SPLINE
  5
143
100
AcDbEntity
  8
Layer_1
 62
4
100
AcDbSpline
 70
8
 71
3
 72
8
 73
4
 74
0
 40
0
 40
0
 40
0
 40
0
 40
1
 40
1
 40
1
 40
1
 10
4.353935
 20
5.577405
 30
0.0
 10
4.330688
 20
5.600651
 30
0.0
 10
4.317629
 20
5.632180
 30
0.0
 10
4.317629
 20
5.665056
 30
0.0
  0
SPLINE
  5
144
100
AcDbEntity
  8
Layer_1
 62
4
100
AcDbSpline
 70
8
 71
3
 72
8
 73
4
 74
0
 40
0
 40
0
 40
0
 40
0
 40
1
 40
1
 40
1
 40
1
 10
4.317629
 20
5.665056
 30
0.0
 10
4.317629
 20
5.733516
 30
0.0
 10
4.373126
 20
5.789013
 30
0.0
 10
4.441586
 20
5.789013
 30
0.0
  0
SPLINE
  5
145
100
AcDbEntity
  8
Layer_1
 62
4
100
AcDbSpline
 70
8
 71
3
 72
8
 73
4
 74
0
 40
0
 40
0
 40
0
 40
0
 40
1
 40
1
 40
1
 40
1
 10
4.441586
 20
5.789013
 30
0.0
 10
4.510046
 20
5.789013
 30
0.0
 10
4.565543
 20
5.733516
 30
0.0
 10
4.565543
 20
5.665056
 30
0.0
  0
LWPOLYLINE
  5
146
100
AcDbEntity
  8
Layer_1
 62
4
100
AcDbPolyline
 90
2
 70
1
 10
4.565266
 20
6.929056
 30
0.0
 10
4.565266
 20
6.929056
 30
0.0
  0
SPLINE
  5
147
100
AcDbEntity
  8
Layer_1
 62
7
100
AcDbSpline
 70
8
 71
3
 72
8
 73
4
 74
0
 40
0
 40
0
 40
0
 40
0
 40
1
 40
1
 40
1
 40
1
 10
4.504774
 20
6.929056
 30
0.0
 10
4.504774
 20
6.912224
 30
0.0
 10
4.498088
 20
6.896081
 30
0.0
 10
4.486186
 20
6.884179
 30
0.0
  0
SPLINE
  5
148
100
AcDbEntity
  8
Layer_1
 62
7
100
AcDbSpline
 70
8
 71
3
 72
8
 73
4
 74
0
 40
0
 40
0
 40
0
 40
0
 40
1
 40
1
 40
1
 40
1
 10
4.486186
 20
6.884179
 30
0.0
 10
4.474283
 20
6.872276
 30
0.0
 10
4.458140
 20
6.865590
 30
0.0
 10
4.441308
 20
6.865590
 30
0.0
  0
SPLINE
  5
149
100
AcDbEntity
  8
Layer_1
 62
7
100
AcDbSpline
 70
8
 71
3
 72
8
 73
4
 74
0
 40
0
 40
0
 40
0
 40
0
 40
1
 40
1
 40
1
 40
1
 10
4.441308
 20
6.865590
 30
0.0
 10
4.406257
 20
6.865590
 30
0.0
 10
4.377842
 20
6.894005
 30
0.0
 10
4.377842
 20
6.929056
 30
0.0
  0
SPLINE
  5
14a
100
AcDbEntity
  8
Layer_1
 62
7
100
AcDbSpline
 70
8
 71
3
 72
8
 73
4
 74
0
 40
0
 40
0
 40
0
 40
0
 40
1
 40
1
 40
1
 40
1
 10
4.377842
 20
6.929056
 30
0.0
 10
4.377842
 20
6.964107
 30
0.0
 10
4.406257
 20
6.992522
 30
0.0
 10
4.441308
 20
6.992522
 30
0.0
  0
SPLINE
  5
14b
100
AcDbEntity
  8
Layer_1
 62
7
100
AcDbSpline
 70
8
 71
3
 72
8
 73
4
 74
0
 40
0
 40
0
 40
0
 40
0
 40
1
 40
1
 40
1
 40
1
 10
4.441308
 20
6.992522
 30
0.0
 10
4.458140
 20
6.992522
 30
0.0
 10
4.474283
 20
6.985836
 30
0.0
 10
4.486186
 20
6.973933
 30
0.0
  0
SPLINE
  5
14c
100
AcDbEntity
  8
Layer_1
 62
7
100
AcDbSpline
 70
8
 71
3
 72
8
 73
4
 74
0
 40
0
 40
0
 40
0
 40
0
 40
1
 40
1
 40
1
 40
1
 10
4.486186
 20
6.973933
 30
0.0
 10
4.498088
 20
6.962031
 30
0.0
 10
4.504774
 20
6.945888
 30
0.0
 10
4.504774
 20
6.929056
 30
0.0
  0
LWPOLYLINE
  5
14d
100
AcDbEntity
  8
Layer_1
 62
4
100
AcDbPolyline
 90
2
 70
1
 10
4.565543
 20
5.665056
 30
0.0
 10
4.565543
 20
5.665056
 30
0.0
  0
SPLINE
  5
14e
100
AcDbEntity
  8
Layer_1
 62
7
100
AcDbSpline
 70
8
 71
3
 72
8
 73
4
 74
0
 40
0
 40
0
 40
0
 40
0
 40
1
 40
1
 40
1
 40
1
 10
4.505052
 20
5.665056
 30
0.0
 10
4.505052
 20
5.648224
 30
0.0
 10
4.498366
 20
5.632081
 30
0.0
 10
4.486463
 20
5.620179
 30
0.0
  0
SPLINE
  5
14f
100
AcDbEntity
  8
Layer_1
 62
7
100
AcDbSpline
 70
8
 71
3
 72
8
 73
4
 74
0
 40
0
 40
0
 40
0
 40
0
 40
1
 40
1
 40
1
 40
1
 10
4.486463
 20
5.620179
 30
0.0
 10
4.474561
 20
5.608276
 30
0.0
 10
4.458418
 20
5.601590
 30
0.0
 10
4.441586
 20
5.601590
 30
0.0
  0
SPLINE
  5
150
100
AcDbEntity
  8
Layer_1
 62
7
100
AcDbSpline
 70
8
 71
3
 72
8
 73
4
 74
0
 40
0
 40
0
 40
0
 40
0
 40
1
 40
1
 40
1
 40
1
 10
4.441586
 20
5.601590
 30
0.0
 10
4.424754
 20
5.601590
 30
0.0
 10
4.408611
 20
5.608276
 30
0.0
 10
4.396709
 20
5.620179
 30
0.0
  0
SPLINE
  5
151
100
AcDbEntity
  8
Layer_1
 62
7
100
AcDbSpline
 70
8
 71
3
 72
8
 73
4
 74
0
 40
0
 40
0
 40
0
 40
0
 40
1
 40
1
 40
1
 40
1
 10
4.396709
 20
5.620179
 30
0.0
 10
4.384806
 20
5.632081
 30
0.0
 10
4.378120
 20
5.648224
 30
0.0
 10
4.378120
 20
5.665056
 30
0.0
  0
SPLINE
  5
152
100
AcDbEntity
  8
Layer_1
 62
7
100
AcDbSpline
 70
8
 71
3
 72
8
 73
4
 74
0
 40
0
 40
0
 40
0
 40
0
 40
1
 40
1
 40
1
 40
1
 10
4.378120
 20
5.665056
 30
0.0
 10
4.378120
 20
5.700107
 30
0.0
 10
4.406535
 20
5.728522
 30
0.0
 10
4.441586
 20
5.728522
 30
0.0
  0
SPLINE
  5
153
100
AcDbEntity
  8
Layer_1
 62
7
100
AcDbSpline
 70
8
 71
3
 72
8
 73
4
 74
0
 40
0
 40
0
 40
0
 40
0
 40
1
 40
1
 40
1
 40
1
 10
4.441586
 20
5.728522
 30
0.0
 10
4.476637
 20
5.728522
 30
0.0
 10
4.505052
 20
5.700107
 30
0.0
 10
4.505052
 20
5.665056
 30
0.0
  0
LWPOLYLINE
  5
154
100
AcDbEntity
  8
Layer_1
 62
7
100
AcDbPolyline
 90
2
 70
1
 10
4.504774
 20
6.929056
 30
0.0
 10
4.504774
 20
6.929056
 30
0.0
  0
LWPOLYLINE
  5
155
100
AcDbEntity
  8
Layer_1
 62
7
100
AcDbPolyline
 90
2
 70
1
 10
4.505052
 20
5.665056
 30
0.0
 10
4.505052
 20
5.665056
 30
0.0
  0
SPLINE
  5
156
100
AcDbEntity
  8
Layer_1
 62
4
100
AcDbSpline
 70
8
 71
3
 72
8
 73
4
 74
0
 40
0
 40
0
 40
0
 40
0
 40
1
 40
1
 40
1
 40
1
 10
18.731932
 20
10.806834
 30
0.0
 10
18.731932
 20
10.738374
 30
0.0
 10
18.676435
 20
10.682877
 30
0.0
 10
18.607975
 20
10.682877
 30
0.0
  0
SPLINE
  5
157
100
AcDbEntity
  8
Layer_1
 62
4
100
AcDbSpline
 70
8
 71
3
 72
8
 73
4
 74
0
 40
0
 40
0
 40
0
 40
0
 40
1
 40
1
 40
1
 40
1
 10
18.607975
 20
10.682877
 30
0.0
 10
18.575099
 20
10.682877
 30
0.0
 10
18.543570
 20
10.695936
 30
0.0
 10
18.520324
 20
10.719183
 30
0.0
  0
SPLINE
  5
158
100
AcDbEntity
  8
Layer_1
 62
4
100
AcDbSpline
 70
8
 71
3
 72
8
 73
4
 74
0
 40
0
 40
0
 40
0
 40
0
 40
1
 40
1
 40
1
 40
1
 10
18.520324
 20
10.719183
 30
0.0
 10
18.497077
 20
10.742429
 30
0.0
 10
18.484018
 20
10.773958
 30
0.0
 10
18.484018
 20
10.806834
 30
0.0
  0
SPLINE
  5
159
100
AcDbEntity
  8
Layer_1
 62
4
100
AcDbSpline
 70
8
 71
3
 72
8
 73
4
 74
0
 40
0
 40
0
 40
0
 40
0
 40
1
 40
1
 40
1
 40
1
 10
18.484018
 20
10.806834
 30
0.0
 10
18.484018
 20
10.839709
 30
0.0
 10
18.497077
 20
10.871239
 30
0.0
 10
18.520324
 20
10.894485
 30
0.0
  0
SPLINE
  5
15a
100
AcDbEntity
  8
Layer_1
 62
4
100
AcDbSpline
 70
8
 71
3
 72
8
 73
4
 74
0
 40
0
 40
0
 40
0
 40
0
 40
1
 40
1
 40
1
 40
1
 10
18.520324
 20
10.894485
 30
0.0
 10
18.543570
 20
10.917732
 30
0.0
 10
18.575099
 20
10.930791
 30
0.0
 10
18.607975
 20
10.930791
 30
0.0
  0
SPLINE
  5
15b
100
AcDbEntity
  8
Layer_1
 62
4
100
AcDbSpline
 70
8
 71
3
 72
8
 73
4
 74
0
 40
0
 40
0
 40
0
 40
0
 40
1
 40
1
 40
1
 40
1
 10
18.607975
 20
10.930791
 30
0.0
 10
18.676435
 20
10.930791
 30
0.0
 10
18.731932
 20
10.875294
 30
0.0
 10
18.731932
 20
10.806834
 30
0.0
  0
LWPOLYLINE
  5
15c
100
AcDbEntity
  8
Layer_1
 62
4
100
AcDbPolyline
 90
5
 70
1
 10
18.891725
 20
10.999834
 30
0.0
 10
18.891725
 20
9.349834
 30
0.0
 10
18.324225
 20
9.349834
 30
0.0
 10
18.324225
 20
10.999834
 30
0.0
 10
18.891725
 20
10.999834
 30
0.0
  0
SPLINE
  5
15d
100
AcDbEntity
  8
Layer_1
 62
4
100
AcDbSpline
 70
8
 71
3
 72
8
 73
4
 74
0
 40
0
 40
0
 40
0
 40
0
 40
1
 40
1
 40
1
 40
1
 10
18.732210
 20
9.542834
 30
0.0
 10
18.732210
 20
9.509958
 30
0.0
 10
18.719150
 20
9.478429
 30
0.0
 10
18.695904
 20
9.455183
 30
0.0
  0
SPLINE
  5
15e
100
AcDbEntity
  8
Layer_1
 62
4
100
AcDbSpline
 70
8
 71
3
 72
8
 73
4
 74
0
 40
0
 40
0
 40
0
 40
0
 40
1
 40
1
 40
1
 40
1
 10
18.695904
 20
9.455183
 30
0.0
 10
18.672657
 20
9.431936
 30
0.0
 10
18.641128
 20
9.418876
 30
0.0
 10
18.608253
 20
9.418876
 30
0.0
  0
SPLINE
  5
15f
100
AcDbEntity
  8
Layer_1
 62
4
100
AcDbSpline
 70
8
 71
3
 72
8
 73
4
 74
0
 40
0
 40
0
 40
0
 40
0
 40
1
 40
1
 40
1
 40
1
 10
18.608253
 20
9.418876
 30
0.0
 10
18.575377
 20
9.418876
 30
0.0
 10
18.543848
 20
9.431936
 30
0.0
 10
18.520602
 20
9.455183
 30
0.0
  0
SPLINE
  5
160
100
AcDbEntity
  8
Layer_1
 62
4
100
AcDbSpline
 70
8
 71
3
 72
8
 73
4
 74
0
 40
0
 40
0
 40
0
 40
0
 40
1
 40
1
 40
1
 40
1
 10
18.520602
 20
9.455183
 30
0.0
 10
18.497355
 20
9.478429
 30
0.0
 10
18.484295
 20
9.509958
 30
0.0
 10
18.484295
 20
9.542834
 30
0.0
  0
SPLINE
  5
161
100
AcDbEntity
  8
Layer_1
 62
4
100
AcDbSpline
 70
8
 71
3
 72
8
 73
4
 74
0
 40
0
 40
0
 40
0
 40
0
 40
1
 40
1
 40
1
 40
1
 10
18.484295
 20
9.542834
 30
0.0
 10
18.484295
 20
9.611294
 30
0.0
 10
18.539793
 20
9.666791
 30
0.0
 10
18.608253
 20
9.666791
 30
0.0
  0
SPLINE
  5
162
100
AcDbEntity
  8
Layer_1
 62
4
100
AcDbSpline
 70
8
 71
3
 72
8
 73
4
 74
0
 40
0
 40
0
 40
0
 40
0
 40
1
 40
1
 40
1
 40
1
 10
18.608253
 20
9.666791
 30
0.0
 10
18.676712
 20
9.666791
 30
0.0
 10
18.732210
 20
9.611294
 30
0.0
 10
18.732210
 20
9.542834
 30
0.0
  0
LWPOLYLINE
  5
163
100
AcDbEntity
  8
Layer_1
 62
4
100
AcDbPolyline
 90
2
 70
1
 10
18.731932
 20
10.806834
 30
0.0
 10
18.731932
 20
10.806834
 30
0.0
  0
SPLINE
  5
164
100
AcDbEntity
  8
Layer_1
 62
7
100
AcDbSpline
 70
8
 71
3
 72
8
 73
4
 74
0
 40
0
 40
0
 40
0
 40
0
 40
1
 40
1
 40
1
 40
1
 10
18.671441
 20
10.806834
 30
0.0
 10
18.671441
 20
10.790002
 30
0.0
 10
18.664755
 20
10.773859
 30
0.0
 10
18.652852
 20
10.761957
 30
0.0
  0
SPLINE
  5
165
100
AcDbEntity
  8
Layer_1
 62
7
100
AcDbSpline
 70
8
 71
3
 72
8
 73
4
 74
0
 40
0
 40
0
 40
0
 40
0
 40
1
 40
1
 40
1
 40
1
 10
18.652852
 20
10.761957
 30
0.0
 10
18.640950
 20
10.750054
 30
0.0
 10
18.624807
 20
10.743368
 30
0.0
 10
18.607975
 20
10.743368
 30
0.0
  0
SPLINE
  5
166
100
AcDbEntity
  8
Layer_1
 62
7
100
AcDbSpline
 70
8
 71
3
 72
8
 73
4
 74
0
 40
0
 40
0
 40
0
 40
0
 40
1
 40
1
 40
1
 40
1
 10
18.607975
 20
10.743368
 30
0.0
 10
18.572924
 20
10.743368
 30
0.0
 10
18.544509
 20
10.771783
 30
0.0
 10
18.544509
 20
10.806834
 30
0.0
  0
SPLINE
  5
167
100
AcDbEntity
  8
Layer_1
 62
7
100
AcDbSpline
 70
8
 71
3
 72
8
 73
4
 74
0
 40
0
 40
0
 40
0
 40
0
 40
1
 40
1
 40
1
 40
1
 10
18.544509
 20
10.806834
 30
0.0
 10
18.544509
 20
10.841885
 30
0.0
 10
18.572924
 20
10.870300
 30
0.0
 10
18.607975
 20
10.870300
 30
0.0
  0
SPLINE
  5
168
100
AcDbEntity
  8
Layer_1
 62
7
100
AcDbSpline
 70
8
 71
3
 72
8
 73
4
 74
0
 40
0
 40
0
 40
0
 40
0
 40
1
 40
1
 40
1
 40
1
 10
18.607975
 20
10.870300
 30
0.0
 10
18.624807
 20
10.870300
 30
0.0
 10
18.640950
 20
10.863614
 30
0.0
 10
18.652852
 20
10.851711
 30
0.0
  0
SPLINE
  5
169
100
AcDbEntity
  8
Layer_1
 62
7
100
AcDbSpline
 70
8
 71
3
 72
8
 73
4
 74
0
 40
0
 40
0
 40
0
 40
0
 40
1
 40
1
 40
1
 40
1
 10
18.652852
 20
10.851711
 30
0.0
 10
18.664755
 20
10.839809
 30
0.0
 10
18.671441
 20
10.823666
 30
0.0
 10
18.671441
 20
10.806834
 30
0.0
  0
LWPOLYLINE
  5
16a
100
AcDbEntity
  8
Layer_1
 62
4
100
AcDbPolyline
 90
2
 70
1
 10
18.732210
 20
9.542834
 30
0.0
 10
18.732210
 20
9.542834
 30
0.0
  0
SPLINE
  5
16b
100
AcDbEntity
  8
Layer_1
 62
7
100
AcDbSpline
 70
8
 71
3
 72
8
 73
4
 74
0
 40
0
 40
0
 40
0
 40
0
 40
1
 40
1
 40
1
 40
1
 10
18.671719
 20
9.542834
 30
0.0
 10
18.671719
 20
9.526002
 30
0.0
 10
18.665032
 20
9.509859
 30
0.0
 10
18.653130
 20
9.497956
 30
0.0
  0
SPLINE
  5
16c
100
AcDbEntity
  8
Layer_1
 62
7
100
AcDbSpline
 70
8
 71
3
 72
8
 73
4
 74
0
 40
0
 40
0
 40
0
 40
0
 40
1
 40
1
 40
1
 40
1
 10
18.653130
 20
9.497956
 30
0.0
 10
18.641228
 20
9.486054
 30
0.0
 10
18.625085
 20
9.479368
 30
0.0
 10
18.608253
 20
9.479368
 30
0.0
  0
SPLINE
  5
16d
100
AcDbEntity
  8
Layer_1
 62
7
100
AcDbSpline
 70
8
 71
3
 72
8
 73
4
 74
0
 40
0
 40
0
 40
0
 40
0
 40
1
 40
1
 40
1
 40
1
 10
18.608253
 20
9.479368
 30
0.0
 10
18.591420
 20
9.479368
 30
0.0
 10
18.575278
 20
9.486054
 30
0.0
 10
18.563375
 20
9.497956
 30
0.0
  0
SPLINE
  5
16e
100
AcDbEntity
  8
Layer_1
 62
7
100
AcDbSpline
 70
8
 71
3
 72
8
 73
4
 74
0
 40
0
 40
0
 40
0
 40
0
 40
1
 40
1
 40
1
 40
1
 10
18.563375
 20
9.497956
 30
0.0
 10
18.551473
 20
9.509859
 30
0.0
 10
18.544787
 20
9.526002
 30
0.0
 10
18.544787
 20
9.542834
 30
0.0
  0
SPLINE
  5
16f
100
AcDbEntity
  8
Layer_1
 62
7
100
AcDbSpline
 70
8
 71
3
 72
8
 73
4
 74
0
 40
0
 40
0
 40
0
 40
0
 40
1
 40
1
 40
1
 40
1
 10
18.544787
 20
9.542834
 30
0.0
 10
18.544787
 20
9.577885
 30
0.0
 10
18.573201
 20
9.606300
 30
0.0
 10
18.608253
 20
9.606300
 30
0.0
  0
SPLINE
  5
170
100
AcDbEntity
  8
Layer_1
 62
7
100
AcDbSpline
 70
8
 71
3
 72
8
 73
4
 74
0
 40
0
 40
0
 40
0
 40
0
 40
1
 40
1
 40
1
 40
1
 10
18.608253
 20
9.606300
 30
0.0
 10
18.643304
 20
9.606300
 30
0.0
 10
18.671719
 20
9.577885
 30
0.0
 10
18.671719
 20
9.542834
 30
0.0
  0
LWPOLYLINE
  5
171
100
AcDbEntity
  8
Layer_1
 62
7
100
AcDbPolyline
 90
2
 70
1
 10
18.671441
 20
10.806834
 30
0.0
 10
18.671441
 20
10.806834
 30
0.0
  0
LWPOLYLINE
  5
172
100
AcDbEntity
  8
Layer_1
 62
7
100
AcDbPolyline
 90
2
 70
1
 10
18.671719
 20
9.542834
 30
0.0
 10
18.671719
 20
9.542834
 30
0.0
  0
SPLINE
  5
173
100
AcDbEntity
  8
Layer_1
 62
4
100
AcDbSpline
 70
8
 71
3
 72
8
 73
4
 74
0
 40
0
 40
0
 40
0
 40
0
 40
1
 40
1
 40
1
 40
1
 10
18.731932
 20
6.929056
 30
0.0
 10
18.731932
 20
6.860596
 30
0.0
 10
18.676435
 20
6.805099
 30
0.0
 10
18.607975
 20
6.805099
 30
0.0
  0
SPLINE
  5
174
100
AcDbEntity
  8
Layer_1
 62
4
100
AcDbSpline
 70
8
 71
3
 72
8
 73
4
 74
0
 40
0
 40
0
 40
0
 40
0
 40
1
 40
1
 40
1
 40
1
 10
18.607975
 20
6.805099
 30
0.0
 10
18.575099
 20
6.805099
 30
0.0
 10
18.543570
 20
6.818158
 30
0.0
 10
18.520324
 20
6.841405
 30
0.0
  0
SPLINE
  5
175
100
AcDbEntity
  8
Layer_1
 62
4
100
AcDbSpline
 70
8
 71
3
 72
8
 73
4
 74
0
 40
0
 40
0
 40
0
 40
0
 40
1
 40
1
 40
1
 40
1
 10
18.520324
 20
6.841405
 30
0.0
 10
18.497077
 20
6.864651
 30
0.0
 10
18.484018
 20
6.896181
 30
0.0
 10
18.484018
 20
6.929056
 30
0.0
  0
SPLINE
  5
176
100
AcDbEntity
  8
Layer_1
 62
4
100
AcDbSpline
 70
8
 71
3
 72
8
 73
4
 74
0
 40
0
 40
0
 40
0
 40
0
 40
1
 40
1
 40
1
 40
1
 10
18.484018
 20
6.929056
 30
0.0
 10
18.484018
 20
6.961932
 30
0.0
 10
18.497077
 20
6.993461
 30
0.0
 10
18.520324
 20
7.016707
 30
0.0
  0
SPLINE
  5
177
100
AcDbEntity
  8
Layer_1
 62
4
100
AcDbSpline
 70
8
 71
3
 72
8
 73
4
 74
0
 40
0
 40
0
 40
0
 40
0
 40
1
 40
1
 40
1
 40
1
 10
18.520324
 20
7.016707
 30
0.0
 10
18.543570
 20
7.039954
 30
0.0
 10
18.575099
 20
7.053013
 30
0.0
 10
18.607975
 20
7.053013
 30
0.0
  0
SPLINE
  5
178
100
AcDbEntity
  8
Layer_1
 62
4
100
AcDbSpline
 70
8
 71
3
 72
8
 73
4
 74
0
 40
0
 40
0
 40
0
 40
0
 40
1
 40
1
 40
1
 40
1
 10
18.607975
 20
7.053013
 30
0.0
 10
18.676435
 20
7.053013
 30
0.0
 10
18.731932
 20
6.997516
 30
0.0
 10
18.731932
 20
6.929056
 30
0.0
  0
LWPOLYLINE
  5
179
100
AcDbEntity
  8
Layer_1
 62
4
100
AcDbPolyline
 90
5
 70
1
 10
18.891725
 20
7.122056
 30
0.0
 10
18.891725
 20
5.472056
 30
0.0
 10
18.324225
 20
5.472056
 30
0.0
 10
18.324225
 20
7.122056
 30
0.0
 10
18.891725
 20
7.122056
 30
0.0
  0
SPLINE
  5
17a
100
AcDbEntity
  8
Layer_1
 62
4
100
AcDbSpline
 70
8
 71
3
 72
8
 73
4
 74
0
 40
0
 40
0
 40
0
 40
0
 40
1
 40
1
 40
1
 40
1
 10
18.732210
 20
5.665056
 30
0.0
 10
18.732210
 20
5.632180
 30
0.0
 10
18.719150
 20
5.600651
 30
0.0
 10
18.695904
 20
5.577405
 30
0.0
  0
SPLINE
  5
17b
100
AcDbEntity
  8
Layer_1
 62
4
100
AcDbSpline
 70
8
 71
3
 72
8
 73
4
 74
0
 40
0
 40
0
 40
0
 40
0
 40
1
 40
1
 40
1
 40
1
 10
18.695904
 20
5.577405
 30
0.0
 10
18.672657
 20
5.554158
 30
0.0
 10
18.641128
 20
5.541099
 30
0.0
 10
18.608253
 20
5.541099
 30
0.0
  0
SPLINE
  5
17c
100
AcDbEntity
  8
Layer_1
 62
4
100
AcDbSpline
 70
8
 71
3
 72
8
 73
4
 74
0
 40
0
 40
0
 40
0
 40
0
 40
1
 40
1
 40
1
 40
1
 10
18.608253
 20
5.541099
 30
0.0
 10
18.575377
 20
5.541099
 30
0.0
 10
18.543848
 20
5.554158
 30
0.0
 10
18.520602
 20
5.577405
 30
0.0
  0
SPLINE
  5
17d
100
AcDbEntity
  8
Layer_1
 62
4
100
AcDbSpline
 70
8
 71
3
 72
8
 73
4
 74
0
 40
0
 40
0
 40
0
 40
0
 40
1
 40
1
 40
1
 40
1
 10
18.520602
 20
5.577405
 30
0.0
 10
18.497355
 20
5.600651
 30
0.0
 10
18.484295
 20
5.632180
 30
0.0
 10
18.484295
 20
5.665056
 30
0.0
  0
SPLINE
  5
17e
100
AcDbEntity
  8
Layer_1
 62
4
100
AcDbSpline
 70
8
 71
3
 72
8
 73
4
 74
0
 40
0
 40
0
 40
0
 40
0
 40
1
 40
1
 40
1
 40
1
 10
18.484295
 20
5.665056
 30
0.0
 10
18.484295
 20
5.733516
 30
0.0
 10
18.539793
 20
5.789013
 30
0.0
 10
18.608253
 20
5.789013
 30
0.0
  0
SPLINE
  5
17f
100
AcDbEntity
  8
Layer_1
 62
4
100
AcDbSpline
 70
8
 71
3
 72
8
 73
4
 74
0
 40
0
 40
0
 40
0
 40
0
 40
1
 40
1
 40
1
 40
1
 10
18.608253
 20
5.789013
 30
0.0
 10
18.676712
 20
5.789013
 30
0.0
 10
18.732210
 20
5.733516
 30
0.0
 10
18.732210
 20
5.665056
 30
0.0
  0
LWPOLYLINE
  5
180
100
AcDbEntity
  8
Layer_1
 62
4
100
AcDbPolyline
 90
2
 70
1
 10
18.731932
 20
6.929056
 30
0.0
 10
18.731932
 20
6.929056
 30
0.0
  0
SPLINE
  5
181
100
AcDbEntity
  8
Layer_1
 62
7
100
AcDbSpline
 70
8
 71
3
 72
8
 73
4
 74
0
 40
0
 40
0
 40
0
 40
0
 40
1
 40
1
 40
1
 40
1
 10
18.671441
 20
6.929056
 30
0.0
 10
18.671441
 20
6.912224
 30
0.0
 10
18.664754
 20
6.896081
 30
0.0
 10
18.652852
 20
6.884179
 30
0.0
  0
SPLINE
  5
182
100
AcDbEntity
  8
Layer_1
 62
7
100
AcDbSpline
 70
8
 71
3
 72
8
 73
4
 74
0
 40
0
 40
0
 40
0
 40
0
 40
1
 40
1
 40
1
 40
1
 10
18.652852
 20
6.884179
 30
0.0
 10
18.640950
 20
6.872277
 30
0.0
 10
18.624807
 20
6.865590
 30
0.0
 10
18.607975
 20
6.865590
 30
0.0
  0
SPLINE
  5
183
100
AcDbEntity
  8
Layer_1
 62
7
100
AcDbSpline
 70
8
 71
3
 72
8
 73
4
 74
0
 40
0
 40
0
 40
0
 40
0
 40
1
 40
1
 40
1
 40
1
 10
18.607975
 20
6.865590
 30
0.0
 10
18.572924
 20
6.865590
 30
0.0
 10
18.544509
 20
6.894005
 30
0.0
 10
18.544509
 20
6.929056
 30
0.0
  0
SPLINE
  5
184
100
AcDbEntity
  8
Layer_1
 62
7
100
AcDbSpline
 70
8
 71
3
 72
8
 73
4
 74
0
 40
0
 40
0
 40
0
 40
0
 40
1
 40
1
 40
1
 40
1
 10
18.544509
 20
6.929056
 30
0.0
 10
18.544509
 20
6.964107
 30
0.0
 10
18.572924
 20
6.992522
 30
0.0
 10
18.607975
 20
6.992522
 30
0.0
  0
SPLINE
  5
185
100
AcDbEntity
  8
Layer_1
 62
7
100
AcDbSpline
 70
8
 71
3
 72
8
 73
4
 74
0
 40
0
 40
0
 40
0
 40
0
 40
1
 40
1
 40
1
 40
1
 10
18.607975
 20
6.992522
 30
0.0
 10
18.624807
 20
6.992522
 30
0.0
 10
18.640950
 20
6.985836
 30
0.0
 10
18.652852
 20
6.973933
 30
0.0
  0
SPLINE
  5
186
100
AcDbEntity
  8
Layer_1
 62
7
100
AcDbSpline
 70
8
 71
3
 72
8
 73
4
 74
0
 40
0
 40
0
 40
0
 40
0
 40
1
 40
1
 40
1
 40
1
 10
18.652852
 20
6.973933
 30
0.0
 10
18.664754
 20
6.962031
 30
0.0
 10
18.671441
 20
6.945888
 30
0.0
 10
18.671441
 20
6.929056
 30
0.0
  0
LWPOLYLINE
  5
187
100
AcDbEntity
  8
Layer_1
 62
4
100
AcDbPolyline
 90
2
 70
1
 10
18.732210
 20
5.665056
 30
0.0
 10
18.732210
 20
5.665056
 30
0.0
  0
SPLINE
  5
188
100
AcDbEntity
  8
Layer_1
 62
7
100
AcDbSpline
 70
8
 71
3
 72
8
 73
4
 74
0
 40
0
 40
0
 40
0
 40
0
 40
1
 40
1
 40
1
 40
1
 10
18.671719
 20
5.665056
 30
0.0
 10
18.671719
 20
5.648224
 30
0.0
 10
18.665032
 20
5.632081
 30
0.0
 10
18.653130
 20
5.620179
 30
0.0
  0
SPLINE
  5
189
100
AcDbEntity
  8
Layer_1
 62
7
100
AcDbSpline
 70
8
 71
3
 72
8
 73
4
 74
0
 40
0
 40
0
 40
0
 40
0
 40
1
 40
1
 40
1
 40
1
 10
18.653130
 20
5.620179
 30
0.0
 10
18.641228
 20
5.608276
 30
0.0
 10
18.625085
 20
5.601590
 30
0.0
 10
18.608253
 20
5.601590
 30
0.0
  0
SPLINE
  5
18a
100
AcDbEntity
  8
Layer_1
 62
7
100
AcDbSpline
 70
8
 71
3
 72
8
 73
4
 74
0
 40
0
 40
0
 40
0
 40
0
 40
1
 40
1
 40
1
 40
1
 10
18.608253
 20
5.601590
 30
0.0
 10
18.591420
 20
5.601590
 30
0.0
 10
18.575278
 20
5.608276
 30
0.0
 10
18.563375
 20
5.620179
 30
0.0
  0
SPLINE
  5
18b
100
AcDbEntity
  8
Layer_1
 62
7
100
AcDbSpline
 70
8
 71
3
 72
8
 73
4
 74
0
 40
0
 40
0
 40
0
 40
0
 40
1
 40
1
 40
1
 40
1
 10
18.563375
 20
5.620179
 30
0.0
 10
18.551473
 20
5.632081
 30
0.0
 10
18.544787
 20
5.648224
 30
0.0
 10
18.544787
 20
5.665056
 30
0.0
  0
SPLINE
  5
18c
100
AcDbEntity
  8
Layer_1
 62
7
100
AcDbSpline
 70
8
 71
3
 72
8
 73
4
 74
0
 40
0
 40
0
 40
0
 40
0
 40
1
 40
1
 40
1
 40
1
 10
18.544787
 20
5.665056
 30
0.0
 10
18.544787
 20
5.700107
 30
0.0
 10
18.573201
 20
5.728522
 30
0.0
 10
18.608253
 20
5.728522
 30
0.0
  0
SPLINE
  5
18d
100
AcDbEntity
  8
Layer_1
 62
7
100
AcDbSpline
 70
8
 71
3
 72
8
 73
4
 74
0
 40
0
 40
0
 40
0
 40
0
 40
1
 40
1
 40
1
 40
1
 10
18.608253
 20
5.728522
 30
0.0
 10
18.643304
 20
5.728522
 30
0.0
 10
18.671719
 20
5.700107
 30
0.0
 10
18.671719
 20
5.665056
 30
0.0
  0
LWPOLYLINE
  5
18e
100
AcDbEntity
  8
Layer_1
 62
7
100
AcDbPolyline
 90
2
 70
1
 10
18.671441
 20
6.929056
 30
0.0
 10
18.671441
 20
6.929056
 30
0.0
  0
LWPOLYLINE
  5
18f
100
AcDbEntity
  8
Layer_1
 62
7
100
AcDbPolyline
 90
2
 70
1
 10
18.671719
 20
5.665056
 30
0.0
 10
18.671719
 20
5.665056
 30
0.0
  0
LWPOLYLINE
  5
190
100
AcDbEntity
  8
Layer_1
 62
7
100
AcDbPolyline
 90
5
 70
1
 10
4.024626
 20
11.499335
 30
0.0
 10
19.050908
 20
11.499335
 30
0.0
 10
19.050908
 20
2.754302
 30
0.0
 10
4.024626
 20
2.754302
 30
0.0
 10
4.024626
 20
11.499335
 30
0.0
  0
ENDSEC
  0
SECTION
  2
OBJECTS
  0
DICTIONARY
  5
C
330
0
100
AcDbDictionary
  3
ACAD_GROUP
350
D
  3
ACAD_MLINESTYLE
350
17
  0
DICTIONARY
  5
D
330
C
100
AcDbDictionary
  0
DICTIONARY
  5
1A
330
C
100
AcDbDictionary
  0
DICTIONARY
  5
17
330
C
100
AcDbDictionary
  3
STANDARD
350
18
  0
DICTIONARY
  5
19
330
C
100
AcDbDictionary
  0
ENDSEC
  0
EOF
